<?xml version="1.0" encoding="utf-8" ?>
<svg baseProfile="tiny" height="8.5in" version="1.2" width="11in" xmlns="http://www.w3.org/2000/svg" xmlns:ev="http://www.w3.org/2001/xml-events" xmlns:xlink="http://www.w3.org/1999/xlink"><defs /><g transform="translate(96, 24.0)"><rect fill="none" height="768.0" stroke="#008080" width="408.0" x="0" y="0" /><g transform="translate(8, 8)"><rect fill="#d7d7d7" height="20" stroke="#888888" width="392.0" x="0" y="0" /><text alignment-baseline="text-after-edge" fill="#444444" font-family="Ubuntu Mono" font-size="12" text-anchor="start" x="4" y="16">Mon  Tue  Wed  Thu  Fri  Sat  Sun</text><text alignment-baseline="text-after-edge" fill="#444444" font-family="Ubuntu Mono" font-size="12" text-anchor="end" x="388.0" y="16">    /    /  20    </text></g><g transform="translate(302.0,28)"><g><rect fill="none" height="18" stroke="none" width="98.0" x="0" y="8" /><text alignment-baseline="text-after-edge" fill="#444444" font-family="Trebuchet MS" font-size="10" text-anchor="start" x="4" y="22">Time Well Spent</text></g><g><text alignment-baseline="text-after-edge" fill="#444444" font-family="Ubuntu Mono" font-size="8" text-anchor="start" x="0" y="45.39393939393939">05:00</text><line stroke="#d7d7d7" x1="0" x2="98.0" y1="47.39393939393939" y2="47.39393939393939" /><line stroke="#d7d7d7" x1="0" x2="98.0" y1="68.78787878787878" y2="68.78787878787878" /><text alignment-baseline="text-after-edge" fill="#444444" font-family="Ubuntu Mono" font-size="8" text-anchor="start" x="0" y="88.18181818181819">06:00</text><line stroke="#d7d7d7" x1="0" x2="98.0" y1="90.18181818181819" y2="90.18181818181819" /><line stroke="#d7d7d7" x1="0" x2="98.0" y1="111.57575757575758" y2="111.57575757575758" /><text alignment-baseline="text-after-edge" fill="#444444" font-family="Ubuntu Mono" font-size="8" text-anchor="start" x="0" y="130.96969696969697">07:00</text><line stroke="#d7d7d7" x1="0" x2="98.0" y1="132.96969696969697" y2="132.96969696969697" /><line stroke="#d7d7d7" x1="0" x2="98.0" y1="154.36363636363637" y2="154.36363636363637" /><text alignment-baseline="text-after-edge" fill="#444444" font-family="Ubuntu Mono" font-size="8" text-anchor="start" x="0" y="173.75757575757575">08:00</text><line stroke="#d7d7d7" x1="0" x2="98.0" y1="175.75757575757575" y2="175.75757575757575" /><line stroke="#d7d7d7" x1="0" x2="98.0" y1="197.15151515151513" y2="197.15151515151513" /><text alignment-baseline="text-after-edge" fill="#444444" font-family="Ubuntu Mono" font-size="8" text-anchor="start" x="0" y="216.54545454545456">09:00</text><line stroke="#d7d7d7" x1="0" x2="98.0" y1="218.54545454545456" y2="218.54545454545456" /><line stroke="#d7d7d7" x1="0" x2="98.0" y1="239.93939393939394" y2="239.93939393939394" /><text alignment-baseline="text-after-edge" fill="#444444" font-family="Ubuntu Mono" font-size="8" text-anchor="start" x="0" y="259.3333333333333">10:00</text><line stroke="#d7d7d7" x1="0" x2="98.0" y1="261.3333333333333" y2="261.3333333333333" /><line stroke="#d7d7d7" x1="0" x2="98.0" y1="282.72727272727275" y2="282.72727272727275" /><text alignment-baseline="text-after-edge" fill="#444444" font-family="Ubuntu Mono" font-size="8" text-anchor="start" x="0" y="302.1212121212121">11:00</text><line stroke="#d7d7d7" x1="0" x2="98.0" y1="304.1212121212121" y2="304.1212121212121" /><line stroke="#d7d7d7" x1="0" x2="98.0" y1="325.5151515151515" y2="325.5151515151515" /><text alignment-baseline="text-after-edge" fill="#444444" font-family="Ubuntu Mono" font-size="8" text-anchor="start" x="0" y="344.9090909090909">12:00</text><line stroke="#d7d7d7" x1="0" x2="98.0" y1="346.9090909090909" y2="346.9090909090909" /><line stroke="#d7d7d7" x1="0" x2="98.0" y1="368.3030303030303" y2="368.3030303030303" /><text alignment-baseline="text-after-edge" fill="#444444" font-family="Ubuntu Mono" font-size="8" text-anchor="start" x="0" y="387.6969696969697">13:00</text><line stroke="#d7d7d7" x1="0" x2="98.0" y1="389.6969696969697" y2="389.6969696969697" /><line stroke="#d7d7d7" x1="0" x2="98.0" y1="411.09090909090907" y2="411.09090909090907" /><text alignment-baseline="text-after-edge" fill="#444444" font-family="Ubuntu Mono" font-size="8" text-anchor="start" x="0" y="430.4848484848485">14:00</text><line stroke="#d7d7d7" x1="0" x2="98.0" y1="432.4848484848485" y2="432.4848484848485" /><line stroke="#d7d7d7" x1="0" x2="98.0" y1="453.8787878787879" y2="453.8787878787879" /><text alignment-baseline="text-after-edge" fill="#444444" font-family="Ubuntu Mono" font-size="8" text-anchor="start" x="0" y="473.27272727272725">15:00</text><line stroke="#d7d7d7" x1="0" x2="98.0" y1="475.27272727272725" y2="475.27272727272725" /><line stroke="#d7d7d7" x1="0" x2="98.0" y1="496.6666666666667" y2="496.6666666666667" /><text alignment-baseline="text-after-edge" fill="#444444" font-family="Ubuntu Mono" font-size="8" text-anchor="start" x="0" y="516.0606060606061">16:00</text><line stroke="#d7d7d7" x1="0" x2="98.0" y1="518.0606060606061" y2="518.0606060606061" /><line stroke="#d7d7d7" x1="0" x2="98.0" y1="539.4545454545455" y2="539.4545454545455" /><text alignment-baseline="text-after-edge" fill="#444444" font-family="Ubuntu Mono" font-size="8" text-anchor="start" x="0" y="558.8484848484849">17:00</text><line stroke="#d7d7d7" x1="0" x2="98.0" y1="560.8484848484849" y2="560.8484848484849" /><line stroke="#d7d7d7" x1="0" x2="98.0" y1="582.2424242424242" y2="582.2424242424242" /><text alignment-baseline="text-after-edge" fill="#444444" font-family="Ubuntu Mono" font-size="8" text-anchor="start" x="0" y="601.6363636363636">18:00</text><line stroke="#d7d7d7" x1="0" x2="98.0" y1="603.6363636363636" y2="603.6363636363636" /><line stroke="#d7d7d7" x1="0" x2="98.0" y1="625.030303030303" y2="625.030303030303" /><text alignment-baseline="text-after-edge" fill="#444444" font-family="Ubuntu Mono" font-size="8" text-anchor="start" x="0" y="644.4242424242424">19:00</text><line stroke="#d7d7d7" x1="0" x2="98.0" y1="646.4242424242424" y2="646.4242424242424" /><line stroke="#d7d7d7" x1="0" x2="98.0" y1="667.8181818181819" y2="667.8181818181819" /><text alignment-baseline="text-after-edge" fill="#444444" font-family="Ubuntu Mono" font-size="8" text-anchor="start" x="0" y="687.2121212121212">20:00</text><line stroke="#d7d7d7" x1="0" x2="98.0" y1="689.2121212121212" y2="689.2121212121212" /><line stroke="#d7d7d7" x1="0" x2="98.0" y1="710.6060606060606" y2="710.6060606060606" /><text alignment-baseline="text-after-edge" fill="#444444" font-family="Ubuntu Mono" font-size="8" text-anchor="start" x="0" y="730.0">21:00</text><line stroke="#d7d7d7" x1="0" x2="98.0" y1="732.0" y2="732.0" /></g></g><g transform="translate(8,28)"><g><rect fill="#888888" height="18" stroke="#888888" width="286.0" x="0" y="8" /><text alignment-baseline="text-after-edge" fill="#ffffff" font-family="Trebuchet MS" font-size="10" text-anchor="start" x="4" y="22">Primary Efforts</text><text alignment-baseline="text-after-edge" fill="#ffffff" font-family="Trebuchet MS" font-size="10" text-anchor="start" x="151.0" y="22">Alignment</text></g><g><line stroke="#d7d7d7" x1="0" x2="286.0" y1="46" y2="46" /><line stroke="#d7d7d7" x1="0" x2="286.0" y1="66" y2="66" /><line stroke="#d7d7d7" x1="0" x2="286.0" y1="86" y2="86" /><line stroke="#d7d7d7" x1="0" x2="286.0" y1="106" y2="106" /></g><rect fill="none" height="98" stroke="#008080" width="286.0" x="0" y="8" /></g><g transform="translate(8,134)"><rect fill="none" height="18" stroke="none" width="286.0" x="0" y="8" /><text alignment-baseline="text-after-edge" fill="#444444" font-family="Ubuntu Mono" font-size="10" text-anchor="start" x="4" y="22">[] Vision </text><text alignment-baseline="text-after-edge" fill="#444444" font-family="Ubuntu Mono" font-size="10" text-anchor="start" x="79.5" y="22">[] Goals</text><text alignment-baseline="text-after-edge" fill="#444444" font-family="Ubuntu Mono" font-size="10" text-anchor="start" x="155.0" y="22">[] Calendar</text><text alignment-baseline="text-after-edge" fill="#444444" font-family="Ubuntu Mono" font-size="10" text-anchor="start" x="230.5" y="22">[] Habit</text></g><g transform="translate(8,160)"><g><rect fill="#888888" height="18" stroke="#888888" width="286.0" x="0" y="8" /><text alignment-baseline="text-after-edge" fill="#ffffff" font-family="Trebuchet MS" font-size="10" text-anchor="start" x="4" y="22">Today I will pay most attention to:</text></g><g><line stroke="#d7d7d7" x1="0" x2="286.0" y1="58.0" y2="58.0" /></g><rect fill="none" height="50.0" stroke="#008080" width="286.0" x="0" y="8" /></g><g transform="translate(8,218.0)"><g><rect fill="#888888" height="18" stroke="#888888" width="286.0" x="0" y="8" /><text alignment-baseline="text-after-edge" fill="#ffffff" font-family="Trebuchet MS" font-size="10" text-anchor="start" x="4" y="22">To Do</text></g><g><line stroke="#d7d7d7" x1="0" x2="286.0" y1="46" y2="46" /><line stroke="#d7d7d7" x1="0" x2="286.0" y1="66" y2="66" /><line stroke="#d7d7d7" x1="0" x2="286.0" y1="86" y2="86" /><line stroke="#d7d7d7" x1="0" x2="286.0" y1="106" y2="106" /><line stroke="#d7d7d7" x1="0" x2="286.0" y1="126" y2="126" /><line stroke="#d7d7d7" x1="0" x2="286.0" y1="146" y2="146" /><line stroke="#d7d7d7" x1="0" x2="286.0" y1="166" y2="166" /><line stroke="#d7d7d7" x1="0" x2="286.0" y1="186" y2="186" /></g><rect fill="none" height="178" stroke="#008080" width="286.0" x="0" y="8" /></g><g transform="translate(8,404.0)"><g><rect fill="#888888" height="18" stroke="#888888" width="286.0" x="0" y="8" /><text alignment-baseline="text-after-edge" fill="#ffffff" font-family="Trebuchet MS" font-size="10" text-anchor="start" x="4" y="22">Gratitude</text></g><g><line stroke="#d7d7d7" x1="0" x2="286.0" y1="58.0" y2="58.0" /></g><rect fill="none" height="50.0" stroke="#008080" width="286.0" x="0" y="8" /></g><g transform="translate(8,462.0)"><g><rect fill="none" height="18" stroke="none" width="286.0" x="0" y="8" /><text alignment-baseline="text-after-edge" fill="#444444" font-family="Ubuntu Mono" font-size="10" text-anchor="start" x="4" y="22">How can I embrace discomfort and grow today?</text></g><g><line stroke="#d7d7d7" x1="0" x2="286.0" y1="46" y2="46" /><line stroke="#d7d7d7" x1="0" x2="286.0" y1="66" y2="66" /><line stroke="#d7d7d7" x1="0" x2="286.0" y1="86" y2="86" /><line stroke="#d7d7d7" x1="0" x2="286.0" y1="106" y2="106" /></g><rect fill="none" height="98" stroke="#008080" width="286.0" x="0" y="8" /></g><g transform="translate(8,568.0)"><g><rect fill="none" height="18" stroke="none" width="286.0" x="0" y="8" /><text alignment-baseline="text-after-edge" fill="#444444" font-family="Ubuntu Mono" font-size="10" text-anchor="start" x="4" y="22">One acheivement I take pride in:</text></g><g><line stroke="#d7d7d7" x1="0" x2="286.0" y1="46" y2="46" /><line stroke="#d7d7d7" x1="0" x2="286.0" y1="66" y2="66" /><line stroke="#d7d7d7" x1="0" x2="286.0" y1="86" y2="86" /></g><rect fill="none" height="78" stroke="#008080" width="286.0" x="0" y="8" /></g><g transform="translate(8,654.0)"><g><rect fill="none" height="18" stroke="none" width="286.0" x="0" y="8" /><text alignment-baseline="text-after-edge" fill="#444444" font-family="Ubuntu Mono" font-size="10" text-anchor="start" x="4" y="22">How can I move towards my ideal self?</text></g><g><line stroke="#d7d7d7" x1="0" x2="286.0" y1="46" y2="46" /><line stroke="#d7d7d7" x1="0" x2="286.0" y1="66" y2="66" /><line stroke="#d7d7d7" x1="0" x2="286.0" y1="86" y2="86" /><line stroke="#d7d7d7" x1="0" x2="286.0" y1="106" y2="106" /></g><rect fill="none" height="98" stroke="#008080" width="286.0" x="0" y="8" /></g></g><g transform="translate(624.0, 24.0)"><rect fill="none" height="768.0" stroke="#008080" width="408.0" x="0" y="0" /><g transform="translate(8, 8)"><rect fill="#d7d7d7" height="20" stroke="#888888" width="392.0" x="0" y="0" /><text alignment-baseline="text-after-edge" fill="#444444" font-family="Ubuntu Mono" font-size="12" text-anchor="start" x="4" y="16">Mon  Tue  Wed  Thu  Fri  Sat  Sun</text><text alignment-baseline="text-after-edge" fill="#444444" font-family="Ubuntu Mono" font-size="12" text-anchor="end" x="388.0" y="16">    /    /  20    </text></g><g transform="translate(302.0,28)"><g><rect fill="none" height="18" stroke="none" width="98.0" x="0" y="8" /><text alignment-baseline="text-after-edge" fill="#444444" font-family="Trebuchet MS" font-size="10" text-anchor="start" x="4" y="22">Time Well Spent</text></g><g><text alignment-baseline="text-after-edge" fill="#444444" font-family="Ubuntu Mono" font-size="8" text-anchor="start" x="0" y="45.39393939393939">05:00</text><line stroke="#d7d7d7" x1="0" x2="98.0" y1="47.39393939393939" y2="47.39393939393939" /><line stroke="#d7d7d7" x1="0" x2="98.0" y1="68.78787878787878" y2="68.78787878787878" /><text alignment-baseline="text-after-edge" fill="#444444" font-family="Ubuntu Mono" font-size="8" text-anchor="start" x="0" y="88.18181818181819">06:00</text><line stroke="#d7d7d7" x1="0" x2="98.0" y1="90.18181818181819" y2="90.18181818181819" /><line stroke="#d7d7d7" x1="0" x2="98.0" y1="111.57575757575758" y2="111.57575757575758" /><text alignment-baseline="text-after-edge" fill="#444444" font-family="Ubuntu Mono" font-size="8" text-anchor="start" x="0" y="130.96969696969697">07:00</text><line stroke="#d7d7d7" x1="0" x2="98.0" y1="132.96969696969697" y2="132.96969696969697" /><line stroke="#d7d7d7" x1="0" x2="98.0" y1="154.36363636363637" y2="154.36363636363637" /><text alignment-baseline="text-after-edge" fill="#444444" font-family="Ubuntu Mono" font-size="8" text-anchor="start" x="0" y="173.75757575757575">08:00</text><line stroke="#d7d7d7" x1="0" x2="98.0" y1="175.75757575757575" y2="175.75757575757575" /><line stroke="#d7d7d7" x1="0" x2="98.0" y1="197.15151515151513" y2="197.15151515151513" /><text alignment-baseline="text-after-edge" fill="#444444" font-family="Ubuntu Mono" font-size="8" text-anchor="start" x="0" y="216.54545454545456">09:00</text><line stroke="#d7d7d7" x1="0" x2="98.0" y1="218.54545454545456" y2="218.54545454545456" /><line stroke="#d7d7d7" x1="0" x2="98.0" y1="239.93939393939394" y2="239.93939393939394" /><text alignment-baseline="text-after-edge" fill="#444444" font-family="Ubuntu Mono" font-size="8" text-anchor="start" x="0" y="259.3333333333333">10:00</text><line stroke="#d7d7d7" x1="0" x2="98.0" y1="261.3333333333333" y2="261.3333333333333" /><line stroke="#d7d7d7" x1="0" x2="98.0" y1="282.72727272727275" y2="282.72727272727275" /><text alignment-baseline="text-after-edge" fill="#444444" font-family="Ubuntu Mono" font-size="8" text-anchor="start" x="0" y="302.1212121212121">11:00</text><line stroke="#d7d7d7" x1="0" x2="98.0" y1="304.1212121212121" y2="304.1212121212121" /><line stroke="#d7d7d7" x1="0" x2="98.0" y1="325.5151515151515" y2="325.5151515151515" /><text alignment-baseline="text-after-edge" fill="#444444" font-family="Ubuntu Mono" font-size="8" text-anchor="start" x="0" y="344.9090909090909">12:00</text><line stroke="#d7d7d7" x1="0" x2="98.0" y1="346.9090909090909" y2="346.9090909090909" /><line stroke="#d7d7d7" x1="0" x2="98.0" y1="368.3030303030303" y2="368.3030303030303" /><text alignment-baseline="text-after-edge" fill="#444444" font-family="Ubuntu Mono" font-size="8" text-anchor="start" x="0" y="387.6969696969697">13:00</text><line stroke="#d7d7d7" x1="0" x2="98.0" y1="389.6969696969697" y2="389.6969696969697" /><line stroke="#d7d7d7" x1="0" x2="98.0" y1="411.09090909090907" y2="411.09090909090907" /><text alignment-baseline="text-after-edge" fill="#444444" font-family="Ubuntu Mono" font-size="8" text-anchor="start" x="0" y="430.4848484848485">14:00</text><line stroke="#d7d7d7" x1="0" x2="98.0" y1="432.4848484848485" y2="432.4848484848485" /><line stroke="#d7d7d7" x1="0" x2="98.0" y1="453.8787878787879" y2="453.8787878787879" /><text alignment-baseline="text-after-edge" fill="#444444" font-family="Ubuntu Mono" font-size="8" text-anchor="start" x="0" y="473.27272727272725">15:00</text><line stroke="#d7d7d7" x1="0" x2="98.0" y1="475.27272727272725" y2="475.27272727272725" /><line stroke="#d7d7d7" x1="0" x2="98.0" y1="496.6666666666667" y2="496.6666666666667" /><text alignment-baseline="text-after-edge" fill="#444444" font-family="Ubuntu Mono" font-size="8" text-anchor="start" x="0" y="516.0606060606061">16:00</text><line stroke="#d7d7d7" x1="0" x2="98.0" y1="518.0606060606061" y2="518.0606060606061" /><line stroke="#d7d7d7" x1="0" x2="98.0" y1="539.4545454545455" y2="539.4545454545455" /><text alignment-baseline="text-after-edge" fill="#444444" font-family="Ubuntu Mono" font-size="8" text-anchor="start" x="0" y="558.8484848484849">17:00</text><line stroke="#d7d7d7" x1="0" x2="98.0" y1="560.8484848484849" y2="560.8484848484849" /><line stroke="#d7d7d7" x1="0" x2="98.0" y1="582.2424242424242" y2="582.2424242424242" /><text alignment-baseline="text-after-edge" fill="#444444" font-family="Ubuntu Mono" font-size="8" text-anchor="start" x="0" y="601.6363636363636">18:00</text><line stroke="#d7d7d7" x1="0" x2="98.0" y1="603.6363636363636" y2="603.6363636363636" /><line stroke="#d7d7d7" x1="0" x2="98.0" y1="625.030303030303" y2="625.030303030303" /><text alignment-baseline="text-after-edge" fill="#444444" font-family="Ubuntu Mono" font-size="8" text-anchor="start" x="0" y="644.4242424242424">19:00</text><line stroke="#d7d7d7" x1="0" x2="98.0" y1="646.4242424242424" y2="646.4242424242424" /><line stroke="#d7d7d7" x1="0" x2="98.0" y1="667.8181818181819" y2="667.8181818181819" /><text alignment-baseline="text-after-edge" fill="#444444" font-family="Ubuntu Mono" font-size="8" text-anchor="start" x="0" y="687.2121212121212">20:00</text><line stroke="#d7d7d7" x1="0" x2="98.0" y1="689.2121212121212" y2="689.2121212121212" /><line stroke="#d7d7d7" x1="0" x2="98.0" y1="710.6060606060606" y2="710.6060606060606" /><text alignment-baseline="text-after-edge" fill="#444444" font-family="Ubuntu Mono" font-size="8" text-anchor="start" x="0" y="730.0">21:00</text><line stroke="#d7d7d7" x1="0" x2="98.0" y1="732.0" y2="732.0" /></g></g><g transform="translate(8,28)"><g><rect fill="#888888" height="18" stroke="#888888" width="286.0" x="0" y="8" /><text alignment-baseline="text-after-edge" fill="#ffffff" font-family="Trebuchet MS" font-size="10" text-anchor="start" x="4" y="22">Primary Efforts</text><text alignment-baseline="text-after-edge" fill="#ffffff" font-family="Trebuchet MS" font-size="10" text-anchor="start" x="151.0" y="22">Alignment</text></g><g><line stroke="#d7d7d7" x1="0" x2="286.0" y1="46" y2="46" /><line stroke="#d7d7d7" x1="0" x2="286.0" y1="66" y2="66" /><line stroke="#d7d7d7" x1="0" x2="286.0" y1="86" y2="86" /><line stroke="#d7d7d7" x1="0" x2="286.0" y1="106" y2="106" /></g><rect fill="none" height="98" stroke="#008080" width="286.0" x="0" y="8" /></g><g transform="translate(8,134)"><rect fill="none" height="18" stroke="none" width="286.0" x="0" y="8" /><text alignment-baseline="text-after-edge" fill="#444444" font-family="Ubuntu Mono" font-size="10" text-anchor="start" x="4" y="22">[] Vision </text><text alignment-baseline="text-after-edge" fill="#444444" font-family="Ubuntu Mono" font-size="10" text-anchor="start" x="79.5" y="22">[] Goals</text><text alignment-baseline="text-after-edge" fill="#444444" font-family="Ubuntu Mono" font-size="10" text-anchor="start" x="155.0" y="22">[] Calendar</text><text alignment-baseline="text-after-edge" fill="#444444" font-family="Ubuntu Mono" font-size="10" text-anchor="start" x="230.5" y="22">[] Habit</text></g><g transform="translate(8,160)"><g><rect fill="#888888" height="18" stroke="#888888" width="286.0" x="0" y="8" /><text alignment-baseline="text-after-edge" fill="#ffffff" font-family="Trebuchet MS" font-size="10" text-anchor="start" x="4" y="22">Today I will pay most attention to:</text></g><g><line stroke="#d7d7d7" x1="0" x2="286.0" y1="58.0" y2="58.0" /></g><rect fill="none" height="50.0" stroke="#008080" width="286.0" x="0" y="8" /></g><g transform="translate(8,218.0)"><g><rect fill="#888888" height="18" stroke="#888888" width="286.0" x="0" y="8" /><text alignment-baseline="text-after-edge" fill="#ffffff" font-family="Trebuchet MS" font-size="10" text-anchor="start" x="4" y="22">To Do</text></g><g><line stroke="#d7d7d7" x1="0" x2="286.0" y1="46" y2="46" /><line stroke="#d7d7d7" x1="0" x2="286.0" y1="66" y2="66" /><line stroke="#d7d7d7" x1="0" x2="286.0" y1="86" y2="86" /><line stroke="#d7d7d7" x1="0" x2="286.0" y1="106" y2="106" /><line stroke="#d7d7d7" x1="0" x2="286.0" y1="126" y2="126" /><line stroke="#d7d7d7" x1="0" x2="286.0" y1="146" y2="146" /><line stroke="#d7d7d7" x1="0" x2="286.0" y1="166" y2="166" /><line stroke="#d7d7d7" x1="0" x2="286.0" y1="186" y2="186" /></g><rect fill="none" height="178" stroke="#008080" width="286.0" x="0" y="8" /></g><g transform="translate(8,404.0)"><g><rect fill="#888888" height="18" stroke="#888888" width="286.0" x="0" y="8" /><text alignment-baseline="text-after-edge" fill="#ffffff" font-family="Trebuchet MS" font-size="10" text-anchor="start" x="4" y="22">Gratitude</text></g><g><line stroke="#d7d7d7" x1="0" x2="286.0" y1="58.0" y2="58.0" /></g><rect fill="none" height="50.0" stroke="#008080" width="286.0" x="0" y="8" /></g><g transform="translate(8,462.0)"><g><rect fill="none" height="18" stroke="none" width="286.0" x="0" y="8" /><text alignment-baseline="text-after-edge" fill="#444444" font-family="Ubuntu Mono" font-size="10" text-anchor="start" x="4" y="22">How can I embrace discomfort and grow today?</text></g><g><line stroke="#d7d7d7" x1="0" x2="286.0" y1="46" y2="46" /><line stroke="#d7d7d7" x1="0" x2="286.0" y1="66" y2="66" /><line stroke="#d7d7d7" x1="0" x2="286.0" y1="86" y2="86" /><line stroke="#d7d7d7" x1="0" x2="286.0" y1="106" y2="106" /></g><rect fill="none" height="98" stroke="#008080" width="286.0" x="0" y="8" /></g><g transform="translate(8,568.0)"><g><rect fill="none" height="18" stroke="none" width="286.0" x="0" y="8" /><text alignment-baseline="text-after-edge" fill="#444444" font-family="Ubuntu Mono" font-size="10" text-anchor="start" x="4" y="22">One acheivement I take pride in:</text></g><g><line stroke="#d7d7d7" x1="0" x2="286.0" y1="46" y2="46" /><line stroke="#d7d7d7" x1="0" x2="286.0" y1="66" y2="66" /><line stroke="#d7d7d7" x1="0" x2="286.0" y1="86" y2="86" /></g><rect fill="none" height="78" stroke="#008080" width="286.0" x="0" y="8" /></g><g transform="translate(8,654.0)"><g><rect fill="none" height="18" stroke="none" width="286.0" x="0" y="8" /><text alignment-baseline="text-after-edge" fill="#444444" font-family="Ubuntu Mono" font-size="10" text-anchor="start" x="4" y="22">How can I move towards my ideal self?</text></g><g><line stroke="#d7d7d7" x1="0" x2="286.0" y1="46" y2="46" /><line stroke="#d7d7d7" x1="0" x2="286.0" y1="66" y2="66" /><line stroke="#d7d7d7" x1="0" x2="286.0" y1="86" y2="86" /><line stroke="#d7d7d7" x1="0" x2="286.0" y1="106" y2="106" /></g><rect fill="none" height="98" stroke="#008080" width="286.0" x="0" y="8" /></g></g></svg>