<?xml version="1.0" encoding="utf-8" ?>
<svg baseProfile="tiny" height="8.5in" version="1.2" width="11in" xmlns="http://www.w3.org/2000/svg" xmlns:ev="http://www.w3.org/2001/xml-events" xmlns:xlink="http://www.w3.org/1999/xlink"><defs /><g transform="translate(96, 24.0)"><rect fill="none" height="768.0" stroke="#008080" width="408.0" x="0" y="0" /><g transform="translate(8, 8)"><rect fill="#d7d7d7" height="36" stroke="#888888" width="392.0" x="0" y="0" /><text alignment-baseline="text-after-edge" fill="#444444" font-family="Trebuchet MS" font-size="28" text-anchor="start" x="4" y="32">Goal #</text></g><g transform="translate(8,44)"><rect fill="none" height="17" stroke="none" width="392.0" x="0" y="8" /><text alignment-baseline="text-after-edge" fill="#444444" font-family="Ubuntu Mono" font-size="9" text-anchor="start" x="4" y="21">[] Specific  [] Actionable  [] Measureable  [] Exciting  [] Challenging</text></g><g transform="translate(8,69)"><g><rect fill="#888888" height="18" stroke="#888888" width="392.0" x="0" y="8" /><text alignment-baseline="text-after-edge" fill="#ffffff" font-family="Trebuchet MS" font-size="10" text-anchor="start" x="4" y="22">Critical Steps</text></g><g><line stroke="#d7d7d7" x1="0" x2="392.0" y1="46" y2="46" /><text alignment-baseline="text-after-edge" fill="#444444" font-family="Ubuntu Mono" font-size="8" text-anchor="start" x="4" y="44">[]</text><line stroke="#d7d7d7" x1="0" x2="392.0" y1="66" y2="66" /><text alignment-baseline="text-after-edge" fill="#444444" font-family="Ubuntu Mono" font-size="8" text-anchor="start" x="4" y="64">[]</text><line stroke="#d7d7d7" x1="0" x2="392.0" y1="86" y2="86" /><text alignment-baseline="text-after-edge" fill="#444444" font-family="Ubuntu Mono" font-size="8" text-anchor="start" x="4" y="84">[]</text><line stroke="#d7d7d7" x1="0" x2="392.0" y1="106" y2="106" /><text alignment-baseline="text-after-edge" fill="#444444" font-family="Ubuntu Mono" font-size="8" text-anchor="start" x="4" y="104">[]</text><line stroke="#d7d7d7" x1="0" x2="392.0" y1="126" y2="126" /><text alignment-baseline="text-after-edge" fill="#444444" font-family="Ubuntu Mono" font-size="8" text-anchor="start" x="4" y="124">[]</text><line stroke="#d7d7d7" x1="0" x2="392.0" y1="146" y2="146" /><text alignment-baseline="text-after-edge" fill="#444444" font-family="Ubuntu Mono" font-size="8" text-anchor="start" x="4" y="144">[]</text><line stroke="#d7d7d7" x1="0" x2="392.0" y1="166" y2="166" /><text alignment-baseline="text-after-edge" fill="#444444" font-family="Ubuntu Mono" font-size="8" text-anchor="start" x="4" y="164">[]</text></g><rect fill="none" height="158" stroke="#008080" width="392.0" x="0" y="8" /></g><g transform="translate(8,235)"><g><rect fill="#888888" height="18" stroke="#888888" width="392.0" x="0" y="8" /><text alignment-baseline="text-after-edge" fill="#ffffff" font-family="Trebuchet MS" font-size="10" text-anchor="start" x="4" y="22">Evaluation Metrics</text></g><g><line stroke="#d7d7d7" x1="0" x2="392.0" y1="46" y2="46" /><line stroke="#d7d7d7" x1="0" x2="392.0" y1="66" y2="66" /></g></g><g transform="translate(8,301)"><g><rect fill="none" height="18" stroke="none" width="392.0" x="0" y="8" /><text alignment-baseline="text-after-edge" fill="#444444" font-family="Trebuchet MS" font-size="10" text-anchor="start" x="4" y="22">Compromises &amp; Costs</text></g><g><line stroke="#d7d7d7" x1="0" x2="392.0" y1="46" y2="46" /><text alignment-baseline="text-after-edge" fill="#444444" font-family="Ubuntu Mono" font-size="8" text-anchor="start" x="4" y="44">1</text><line stroke="#d7d7d7" x1="0" x2="392.0" y1="66" y2="66" /><text alignment-baseline="text-after-edge" fill="#444444" font-family="Ubuntu Mono" font-size="8" text-anchor="start" x="4" y="64">2</text><line stroke="#d7d7d7" x1="0" x2="392.0" y1="86" y2="86" /><text alignment-baseline="text-after-edge" fill="#444444" font-family="Ubuntu Mono" font-size="8" text-anchor="start" x="4" y="84">3</text><line stroke="#d7d7d7" x1="0" x2="392.0" y1="106" y2="106" /><text alignment-baseline="text-after-edge" fill="#444444" font-family="Ubuntu Mono" font-size="8" text-anchor="start" x="4" y="104">4</text><line stroke="#d7d7d7" x1="0" x2="392.0" y1="126" y2="126" /><text alignment-baseline="text-after-edge" fill="#444444" font-family="Ubuntu Mono" font-size="8" text-anchor="start" x="4" y="124">5</text></g><rect fill="none" height="118" stroke="#008080" width="392.0" x="0" y="8" /></g><g transform="translate(8,427)"><g><rect fill="#888888" height="18" stroke="#888888" width="392.0" x="0" y="8" /><text alignment-baseline="text-after-edge" fill="#ffffff" font-family="Trebuchet MS" font-size="10" text-anchor="start" x="4" y="22">Monthly Benchmarks</text></g><g><line stroke="#d7d7d7" x1="0" x2="392.0" y1="46" y2="46" /><text alignment-baseline="text-after-edge" fill="#444444" font-family="Ubuntu Mono" font-size="8" text-anchor="start" x="4" y="44">Month 1:</text><line stroke="#d7d7d7" x1="0" x2="392.0" y1="66" y2="66" /><text alignment-baseline="text-after-edge" fill="#444444" font-family="Ubuntu Mono" font-size="8" text-anchor="start" x="4" y="64">Month 2:</text><line stroke="#d7d7d7" x1="0" x2="392.0" y1="86" y2="86" /><text alignment-baseline="text-after-edge" fill="#444444" font-family="Ubuntu Mono" font-size="8" text-anchor="start" x="4" y="84">Month 3:</text></g><rect fill="none" height="78" stroke="#008080" width="392.0" x="0" y="8" /></g><g transform="translate(8,513)"><g><rect fill="#888888" height="18" stroke="#888888" width="392.0" x="0" y="8" /><text alignment-baseline="text-after-edge" fill="#ffffff" font-family="Trebuchet MS" font-size="10" text-anchor="start" x="4" y="22">Impacts of Success</text></g><g><line stroke="#d7d7d7" x1="0" x2="392.0" y1="46" y2="46" /><text alignment-baseline="text-after-edge" fill="#444444" font-family="Ubuntu Mono" font-size="8" text-anchor="start" x="0" y="44">1</text><line stroke="#d7d7d7" x1="0" x2="392.0" y1="66" y2="66" /><text alignment-baseline="text-after-edge" fill="#444444" font-family="Ubuntu Mono" font-size="8" text-anchor="start" x="0" y="64">2</text><line stroke="#d7d7d7" x1="0" x2="392.0" y1="86" y2="86" /><text alignment-baseline="text-after-edge" fill="#444444" font-family="Ubuntu Mono" font-size="8" text-anchor="start" x="0" y="84">3</text></g></g><g transform="translate(8,599)"><g><rect fill="none" height="18" stroke="none" width="392.0" x="0" y="8" /><text alignment-baseline="text-after-edge" fill="#444444" font-family="Ubuntu Mono" font-size="10" text-anchor="start" x="4" y="22">Execution Plan</text></g><g><line stroke="#d7d7d7" x1="0" x2="392.0" y1="80.5" y2="80.5" /></g><rect fill="none" height="72.5" stroke="#008080" width="392.0" x="0" y="8" /></g><g transform="translate(8,679.5)"><g><rect fill="none" height="18" stroke="none" width="392.0" x="0" y="8" /><text alignment-baseline="text-after-edge" fill="#444444" font-family="Ubuntu Mono" font-size="10" text-anchor="start" x="4" y="22">Celebration Plan</text></g><g><line stroke="#d7d7d7" x1="0" x2="392.0" y1="80.5" y2="80.5" /></g><rect fill="none" height="72.5" stroke="#008080" width="392.0" x="0" y="8" /></g></g><g transform="translate(624.0, 24.0)"><rect fill="none" height="768.0" stroke="#008080" width="408.0" x="0" y="0" /><g transform="translate(8, 8)"><rect fill="#d7d7d7" height="36" stroke="#888888" width="392.0" x="0" y="0" /><text alignment-baseline="text-after-edge" fill="#444444" font-family="Trebuchet MS" font-size="28" text-anchor="start" x="4" y="32">Goal #</text></g><g transform="translate(8,44)"><rect fill="none" height="17" stroke="none" width="392.0" x="0" y="8" /><text alignment-baseline="text-after-edge" fill="#444444" font-family="Ubuntu Mono" font-size="9" text-anchor="start" x="4" y="21">[] Specific  [] Actionable  [] Measureable  [] Exciting  [] Challenging</text></g><g transform="translate(8,69)"><g><rect fill="#888888" height="18" stroke="#888888" width="392.0" x="0" y="8" /><text alignment-baseline="text-after-edge" fill="#ffffff" font-family="Trebuchet MS" font-size="10" text-anchor="start" x="4" y="22">Critical Steps</text></g><g><line stroke="#d7d7d7" x1="0" x2="392.0" y1="46" y2="46" /><text alignment-baseline="text-after-edge" fill="#444444" font-family="Ubuntu Mono" font-size="8" text-anchor="start" x="4" y="44">[]</text><line stroke="#d7d7d7" x1="0" x2="392.0" y1="66" y2="66" /><text alignment-baseline="text-after-edge" fill="#444444" font-family="Ubuntu Mono" font-size="8" text-anchor="start" x="4" y="64">[]</text><line stroke="#d7d7d7" x1="0" x2="392.0" y1="86" y2="86" /><text alignment-baseline="text-after-edge" fill="#444444" font-family="Ubuntu Mono" font-size="8" text-anchor="start" x="4" y="84">[]</text><line stroke="#d7d7d7" x1="0" x2="392.0" y1="106" y2="106" /><text alignment-baseline="text-after-edge" fill="#444444" font-family="Ubuntu Mono" font-size="8" text-anchor="start" x="4" y="104">[]</text><line stroke="#d7d7d7" x1="0" x2="392.0" y1="126" y2="126" /><text alignment-baseline="text-after-edge" fill="#444444" font-family="Ubuntu Mono" font-size="8" text-anchor="start" x="4" y="124">[]</text><line stroke="#d7d7d7" x1="0" x2="392.0" y1="146" y2="146" /><text alignment-baseline="text-after-edge" fill="#444444" font-family="Ubuntu Mono" font-size="8" text-anchor="start" x="4" y="144">[]</text><line stroke="#d7d7d7" x1="0" x2="392.0" y1="166" y2="166" /><text alignment-baseline="text-after-edge" fill="#444444" font-family="Ubuntu Mono" font-size="8" text-anchor="start" x="4" y="164">[]</text></g><rect fill="none" height="158" stroke="#008080" width="392.0" x="0" y="8" /></g><g transform="translate(8,235)"><g><rect fill="#888888" height="18" stroke="#888888" width="392.0" x="0" y="8" /><text alignment-baseline="text-after-edge" fill="#ffffff" font-family="Trebuchet MS" font-size="10" text-anchor="start" x="4" y="22">Evaluation Metrics</text></g><g><line stroke="#d7d7d7" x1="0" x2="392.0" y1="46" y2="46" /><line stroke="#d7d7d7" x1="0" x2="392.0" y1="66" y2="66" /></g></g><g transform="translate(8,301)"><g><rect fill="none" height="18" stroke="none" width="392.0" x="0" y="8" /><text alignment-baseline="text-after-edge" fill="#444444" font-family="Trebuchet MS" font-size="10" text-anchor="start" x="4" y="22">Compromises &amp; Costs</text></g><g><line stroke="#d7d7d7" x1="0" x2="392.0" y1="46" y2="46" /><text alignment-baseline="text-after-edge" fill="#444444" font-family="Ubuntu Mono" font-size="8" text-anchor="start" x="4" y="44">1</text><line stroke="#d7d7d7" x1="0" x2="392.0" y1="66" y2="66" /><text alignment-baseline="text-after-edge" fill="#444444" font-family="Ubuntu Mono" font-size="8" text-anchor="start" x="4" y="64">2</text><line stroke="#d7d7d7" x1="0" x2="392.0" y1="86" y2="86" /><text alignment-baseline="text-after-edge" fill="#444444" font-family="Ubuntu Mono" font-size="8" text-anchor="start" x="4" y="84">3</text><line stroke="#d7d7d7" x1="0" x2="392.0" y1="106" y2="106" /><text alignment-baseline="text-after-edge" fill="#444444" font-family="Ubuntu Mono" font-size="8" text-anchor="start" x="4" y="104">4</text><line stroke="#d7d7d7" x1="0" x2="392.0" y1="126" y2="126" /><text alignment-baseline="text-after-edge" fill="#444444" font-family="Ubuntu Mono" font-size="8" text-anchor="start" x="4" y="124">5</text></g><rect fill="none" height="118" stroke="#008080" width="392.0" x="0" y="8" /></g><g transform="translate(8,427)"><g><rect fill="#888888" height="18" stroke="#888888" width="392.0" x="0" y="8" /><text alignment-baseline="text-after-edge" fill="#ffffff" font-family="Trebuchet MS" font-size="10" text-anchor="start" x="4" y="22">Monthly Benchmarks</text></g><g><line stroke="#d7d7d7" x1="0" x2="392.0" y1="46" y2="46" /><text alignment-baseline="text-after-edge" fill="#444444" font-family="Ubuntu Mono" font-size="8" text-anchor="start" x="4" y="44">Month 1:</text><line stroke="#d7d7d7" x1="0" x2="392.0" y1="66" y2="66" /><text alignment-baseline="text-after-edge" fill="#444444" font-family="Ubuntu Mono" font-size="8" text-anchor="start" x="4" y="64">Month 2:</text><line stroke="#d7d7d7" x1="0" x2="392.0" y1="86" y2="86" /><text alignment-baseline="text-after-edge" fill="#444444" font-family="Ubuntu Mono" font-size="8" text-anchor="start" x="4" y="84">Month 3:</text></g><rect fill="none" height="78" stroke="#008080" width="392.0" x="0" y="8" /></g><g transform="translate(8,513)"><g><rect fill="#888888" height="18" stroke="#888888" width="392.0" x="0" y="8" /><text alignment-baseline="text-after-edge" fill="#ffffff" font-family="Trebuchet MS" font-size="10" text-anchor="start" x="4" y="22">Impacts of Success</text></g><g><line stroke="#d7d7d7" x1="0" x2="392.0" y1="46" y2="46" /><text alignment-baseline="text-after-edge" fill="#444444" font-family="Ubuntu Mono" font-size="8" text-anchor="start" x="0" y="44">1</text><line stroke="#d7d7d7" x1="0" x2="392.0" y1="66" y2="66" /><text alignment-baseline="text-after-edge" fill="#444444" font-family="Ubuntu Mono" font-size="8" text-anchor="start" x="0" y="64">2</text><line stroke="#d7d7d7" x1="0" x2="392.0" y1="86" y2="86" /><text alignment-baseline="text-after-edge" fill="#444444" font-family="Ubuntu Mono" font-size="8" text-anchor="start" x="0" y="84">3</text></g></g><g transform="translate(8,599)"><g><rect fill="none" height="18" stroke="none" width="392.0" x="0" y="8" /><text alignment-baseline="text-after-edge" fill="#444444" font-family="Ubuntu Mono" font-size="10" text-anchor="start" x="4" y="22">Execution Plan</text></g><g><line stroke="#d7d7d7" x1="0" x2="392.0" y1="80.5" y2="80.5" /></g><rect fill="none" height="72.5" stroke="#008080" width="392.0" x="0" y="8" /></g><g transform="translate(8,679.5)"><g><rect fill="none" height="18" stroke="none" width="392.0" x="0" y="8" /><text alignment-baseline="text-after-edge" fill="#444444" font-family="Ubuntu Mono" font-size="10" text-anchor="start" x="4" y="22">Celebration Plan</text></g><g><line stroke="#d7d7d7" x1="0" x2="392.0" y1="80.5" y2="80.5" /></g><rect fill="none" height="72.5" stroke="#008080" width="392.0" x="0" y="8" /></g></g></svg>