<?xml version="1.0" encoding="utf-8" ?>
<svg baseProfile="tiny" height="8.5in" version="1.2" width="11in" xmlns="http://www.w3.org/2000/svg" xmlns:ev="http://www.w3.org/2001/xml-events" xmlns:xlink="http://www.w3.org/1999/xlink"><defs /><g transform="translate(24.0, 24.0)"><rect fill="none" height="768.0" stroke="#008080" width="408.0" x="0" y="0" /><g transform="translate(10, 10)"><rect fill="none" height="22" stroke="#008080" stroke-width="1" width="388.0" x="0" y="0" /><text alignment-baseline="text-after-edge" fill="#444444" font-family="Trebuchet MS" font-size="12" text-anchor="start" transform="translate(5,17)">A Commitment to Growth</text></g><g transform="translate(10, 32)"><g transform="translate(0,0)"><rect fill="none" height="94.0" stroke="#008080" stroke-width="1" width="388.0" x="0" y="0" /><text alignment-baseline="text-after-edge" fill="#444444" font-family="Ubuntu Mono" font-size="10" text-anchor="start" transform="translate(5,17.0)">I, (your name), vow to be true to my word and to live with</text><text alignment-baseline="text-after-edge" fill="#444444" font-family="Ubuntu Mono" font-size="10" text-anchor="start" transform="translate(5,29.0)">intention. I will no longer treat my time as something to be taken</text><text alignment-baseline="text-after-edge" fill="#444444" font-family="Ubuntu Mono" font-size="10" text-anchor="start" transform="translate(5,41.0)">for granted. From this moment on, I commit to striving for my</text><text alignment-baseline="text-after-edge" fill="#444444" font-family="Ubuntu Mono" font-size="10" text-anchor="start" transform="translate(5,53.0)">fullest potential—for myself, for those I care about, and for the</text><text alignment-baseline="text-after-edge" fill="#444444" font-family="Ubuntu Mono" font-size="10" text-anchor="start" transform="translate(5,65.0)">greater good. I promise to dedicate time to this journal each day</text><text alignment-baseline="text-after-edge" fill="#444444" font-family="Ubuntu Mono" font-size="10" text-anchor="start" transform="translate(5,77.0)">until it is complete, and through this practice, to bring my</text><text alignment-baseline="text-after-edge" fill="#444444" font-family="Ubuntu Mono" font-size="10" text-anchor="start" transform="translate(5,89.0)">dreams, my purpose, and my highest self into being.</text></g><g transform="translate(0,94.0)"><g><line stroke="#888888" stroke-dasharray="1,5" stroke-width="1" transform="translate(0,31.6)" x1="0" x2="388.0" y1="0" y2="0" /><line stroke="#888888" stroke-dasharray="1,5" stroke-width="1" transform="translate(0,63.2)" x1="0" x2="388.0" y1="0" y2="0" /><line stroke="#888888" stroke-dasharray="1,5" stroke-width="1" transform="translate(0,94.80000000000001)" x1="0" x2="388.0" y1="0" y2="0" /><line stroke="#888888" stroke-dasharray="1,5" stroke-width="1" transform="translate(0,126.4)" x1="0" x2="388.0" y1="0" y2="0" /><line stroke="#888888" stroke-dasharray="1,5" stroke-width="1" transform="translate(0,158.0)" x1="0" x2="388.0" y1="0" y2="0" /><line stroke="#888888" stroke-dasharray="1,5" stroke-width="1" transform="translate(0,189.6)" x1="0" x2="388.0" y1="0" y2="0" /><line stroke="#888888" stroke-dasharray="1,5" stroke-width="1" transform="translate(0,221.2)" x1="0" x2="388.0" y1="0" y2="0" /><line stroke="#888888" stroke-dasharray="1,5" stroke-width="1" transform="translate(0,252.79999999999998)" x1="0" x2="388.0" y1="0" y2="0" /><line stroke="#888888" stroke-dasharray="1,5" stroke-width="1" transform="translate(0,284.4)" x1="0" x2="388.0" y1="0" y2="0" /><line stroke="#888888" stroke-dasharray="1,5" stroke-width="1" transform="translate(0,316.0)" x1="0" x2="388.0" y1="0" y2="0" /><line stroke="#888888" stroke-dasharray="1,5" stroke-width="1" transform="translate(0,347.6)" x1="0" x2="388.0" y1="0" y2="0" /><line stroke="#888888" stroke-dasharray="1,5" stroke-width="1" transform="translate(0,379.20000000000005)" x1="0" x2="388.0" y1="0" y2="0" /><line stroke="#888888" stroke-dasharray="1,5" stroke-width="1" transform="translate(0,410.80000000000007)" x1="0" x2="388.0" y1="0" y2="0" /><line stroke="#888888" stroke-dasharray="1,5" stroke-width="1" transform="translate(0,442.4000000000001)" x1="0" x2="388.0" y1="0" y2="0" /><line stroke="#888888" stroke-dasharray="1,5" stroke-width="1" transform="translate(0,474.0000000000001)" x1="0" x2="388.0" y1="0" y2="0" /><line stroke="#888888" stroke-dasharray="1,5" stroke-width="1" transform="translate(0,505.60000000000014)" x1="0" x2="388.0" y1="0" y2="0" /><line stroke="#888888" stroke-dasharray="1,5" stroke-width="1" transform="translate(0,537.2000000000002)" x1="0" x2="388.0" y1="0" y2="0" /><line stroke="#888888" stroke-dasharray="1,5" stroke-width="1" transform="translate(0,568.8000000000002)" x1="0" x2="388.0" y1="0" y2="0" /><line stroke="#888888" stroke-dasharray="1,5" stroke-width="1" transform="translate(0,600.4000000000002)" x1="0" x2="388.0" y1="0" y2="0" /><line stroke="#888888" stroke-dasharray="1,5" stroke-width="1" transform="translate(0,632.0000000000002)" x1="0" x2="388.0" y1="0" y2="0" /></g><g><line stroke="#888888" stroke-dasharray="1,0" stroke-width="1" transform="translate(0,21.06666666666667)" x1="0" x2="388.0" y1="0" y2="0" /><line stroke="#888888" stroke-dasharray="1,0" stroke-width="1" transform="translate(0,52.66666666666667)" x1="0" x2="388.0" y1="0" y2="0" /><line stroke="#888888" stroke-dasharray="1,0" stroke-width="1" transform="translate(0,84.26666666666668)" x1="0" x2="388.0" y1="0" y2="0" /><line stroke="#888888" stroke-dasharray="1,0" stroke-width="1" transform="translate(0,115.86666666666667)" x1="0" x2="388.0" y1="0" y2="0" /><line stroke="#888888" stroke-dasharray="1,0" stroke-width="1" transform="translate(0,147.46666666666667)" x1="0" x2="388.0" y1="0" y2="0" /><line stroke="#888888" stroke-dasharray="1,0" stroke-width="1" transform="translate(0,179.06666666666666)" x1="0" x2="388.0" y1="0" y2="0" /><line stroke="#888888" stroke-dasharray="1,0" stroke-width="1" transform="translate(0,210.66666666666666)" x1="0" x2="388.0" y1="0" y2="0" /><line stroke="#888888" stroke-dasharray="1,0" stroke-width="1" transform="translate(0,242.26666666666665)" x1="0" x2="388.0" y1="0" y2="0" /><line stroke="#888888" stroke-dasharray="1,0" stroke-width="1" transform="translate(0,273.8666666666667)" x1="0" x2="388.0" y1="0" y2="0" /><line stroke="#888888" stroke-dasharray="1,0" stroke-width="1" transform="translate(0,305.4666666666667)" x1="0" x2="388.0" y1="0" y2="0" /><line stroke="#888888" stroke-dasharray="1,0" stroke-width="1" transform="translate(0,337.0666666666667)" x1="0" x2="388.0" y1="0" y2="0" /><line stroke="#888888" stroke-dasharray="1,0" stroke-width="1" transform="translate(0,368.66666666666674)" x1="0" x2="388.0" y1="0" y2="0" /><line stroke="#888888" stroke-dasharray="1,0" stroke-width="1" transform="translate(0,400.26666666666677)" x1="0" x2="388.0" y1="0" y2="0" /><line stroke="#888888" stroke-dasharray="1,0" stroke-width="1" transform="translate(0,431.8666666666668)" x1="0" x2="388.0" y1="0" y2="0" /><line stroke="#888888" stroke-dasharray="1,0" stroke-width="1" transform="translate(0,463.4666666666668)" x1="0" x2="388.0" y1="0" y2="0" /><line stroke="#888888" stroke-dasharray="1,0" stroke-width="1" transform="translate(0,495.06666666666683)" x1="0" x2="388.0" y1="0" y2="0" /><line stroke="#888888" stroke-dasharray="1,0" stroke-width="1" transform="translate(0,526.6666666666669)" x1="0" x2="388.0" y1="0" y2="0" /><line stroke="#888888" stroke-dasharray="1,0" stroke-width="1" transform="translate(0,558.2666666666669)" x1="0" x2="388.0" y1="0" y2="0" /><line stroke="#888888" stroke-dasharray="1,0" stroke-width="1" transform="translate(0,589.8666666666669)" x1="0" x2="388.0" y1="0" y2="0" /><line stroke="#888888" stroke-dasharray="1,0" stroke-width="1" transform="translate(0,621.4666666666669)" x1="0" x2="388.0" y1="0" y2="0" /></g></g></g></g><g transform="translate(624.0, 24.0)"><rect fill="none" height="768.0" stroke="#008080" width="408.0" x="0" y="0" /><g transform="translate(10, 10)"><rect fill="none" height="22" stroke="#008080" stroke-width="1" width="388.0" x="0" y="0" /><text alignment-baseline="text-after-edge" fill="#444444" font-family="Trebuchet MS" font-size="12" text-anchor="start" transform="translate(5,17)">Book of Plans</text></g><g transform="translate(10, 32)"><g transform="translate(0,0)"><g><line stroke="#888888" stroke-dasharray="1,5" stroke-width="1" transform="translate(0,30.25)" x1="0" x2="388.0" y1="0" y2="0" /><line stroke="#888888" stroke-dasharray="1,5" stroke-width="1" transform="translate(0,60.5)" x1="0" x2="388.0" y1="0" y2="0" /><line stroke="#888888" stroke-dasharray="1,5" stroke-width="1" transform="translate(0,90.75)" x1="0" x2="388.0" y1="0" y2="0" /><line stroke="#888888" stroke-dasharray="1,5" stroke-width="1" transform="translate(0,121.0)" x1="0" x2="388.0" y1="0" y2="0" /><line stroke="#888888" stroke-dasharray="1,5" stroke-width="1" transform="translate(0,151.25)" x1="0" x2="388.0" y1="0" y2="0" /><line stroke="#888888" stroke-dasharray="1,5" stroke-width="1" transform="translate(0,181.5)" x1="0" x2="388.0" y1="0" y2="0" /><line stroke="#888888" stroke-dasharray="1,5" stroke-width="1" transform="translate(0,211.75)" x1="0" x2="388.0" y1="0" y2="0" /><line stroke="#888888" stroke-dasharray="1,5" stroke-width="1" transform="translate(0,242.0)" x1="0" x2="388.0" y1="0" y2="0" /><line stroke="#888888" stroke-dasharray="1,5" stroke-width="1" transform="translate(0,272.25)" x1="0" x2="388.0" y1="0" y2="0" /><line stroke="#888888" stroke-dasharray="1,5" stroke-width="1" transform="translate(0,302.5)" x1="0" x2="388.0" y1="0" y2="0" /><line stroke="#888888" stroke-dasharray="1,5" stroke-width="1" transform="translate(0,332.75)" x1="0" x2="388.0" y1="0" y2="0" /><line stroke="#888888" stroke-dasharray="1,5" stroke-width="1" transform="translate(0,363.0)" x1="0" x2="388.0" y1="0" y2="0" /><line stroke="#888888" stroke-dasharray="1,5" stroke-width="1" transform="translate(0,393.25)" x1="0" x2="388.0" y1="0" y2="0" /><line stroke="#888888" stroke-dasharray="1,5" stroke-width="1" transform="translate(0,423.5)" x1="0" x2="388.0" y1="0" y2="0" /><line stroke="#888888" stroke-dasharray="1,5" stroke-width="1" transform="translate(0,453.75)" x1="0" x2="388.0" y1="0" y2="0" /><line stroke="#888888" stroke-dasharray="1,5" stroke-width="1" transform="translate(0,484.0)" x1="0" x2="388.0" y1="0" y2="0" /><line stroke="#888888" stroke-dasharray="1,5" stroke-width="1" transform="translate(0,514.25)" x1="0" x2="388.0" y1="0" y2="0" /><line stroke="#888888" stroke-dasharray="1,5" stroke-width="1" transform="translate(0,544.5)" x1="0" x2="388.0" y1="0" y2="0" /><line stroke="#888888" stroke-dasharray="1,5" stroke-width="1" transform="translate(0,574.75)" x1="0" x2="388.0" y1="0" y2="0" /><line stroke="#888888" stroke-dasharray="1,5" stroke-width="1" transform="translate(0,605.0)" x1="0" x2="388.0" y1="0" y2="0" /><line stroke="#888888" stroke-dasharray="1,5" stroke-width="1" transform="translate(0,635.25)" x1="0" x2="388.0" y1="0" y2="0" /><line stroke="#888888" stroke-dasharray="1,5" stroke-width="1" transform="translate(0,665.5)" x1="0" x2="388.0" y1="0" y2="0" /><line stroke="#888888" stroke-dasharray="1,5" stroke-width="1" transform="translate(0,695.75)" x1="0" x2="388.0" y1="0" y2="0" /><line stroke="#888888" stroke-dasharray="1,5" stroke-width="1" transform="translate(0,726.0)" x1="0" x2="388.0" y1="0" y2="0" /></g><g><line stroke="#888888" stroke-dasharray="1,0" stroke-width="1" transform="translate(0,20.166666666666664)" x1="0" x2="388.0" y1="0" y2="0" /><line stroke="#888888" stroke-dasharray="1,0" stroke-width="1" transform="translate(0,50.416666666666664)" x1="0" x2="388.0" y1="0" y2="0" /><line stroke="#888888" stroke-dasharray="1,0" stroke-width="1" transform="translate(0,80.66666666666666)" x1="0" x2="388.0" y1="0" y2="0" /><line stroke="#888888" stroke-dasharray="1,0" stroke-width="1" transform="translate(0,110.91666666666666)" x1="0" x2="388.0" y1="0" y2="0" /><line stroke="#888888" stroke-dasharray="1,0" stroke-width="1" transform="translate(0,141.16666666666666)" x1="0" x2="388.0" y1="0" y2="0" /><line stroke="#888888" stroke-dasharray="1,0" stroke-width="1" transform="translate(0,171.41666666666666)" x1="0" x2="388.0" y1="0" y2="0" /><line stroke="#888888" stroke-dasharray="1,0" stroke-width="1" transform="translate(0,201.66666666666666)" x1="0" x2="388.0" y1="0" y2="0" /><line stroke="#888888" stroke-dasharray="1,0" stroke-width="1" transform="translate(0,231.91666666666666)" x1="0" x2="388.0" y1="0" y2="0" /><line stroke="#888888" stroke-dasharray="1,0" stroke-width="1" transform="translate(0,262.16666666666663)" x1="0" x2="388.0" y1="0" y2="0" /><line stroke="#888888" stroke-dasharray="1,0" stroke-width="1" transform="translate(0,292.41666666666663)" x1="0" x2="388.0" y1="0" y2="0" /><line stroke="#888888" stroke-dasharray="1,0" stroke-width="1" transform="translate(0,322.66666666666663)" x1="0" x2="388.0" y1="0" y2="0" /><line stroke="#888888" stroke-dasharray="1,0" stroke-width="1" transform="translate(0,352.91666666666663)" x1="0" x2="388.0" y1="0" y2="0" /><line stroke="#888888" stroke-dasharray="1,0" stroke-width="1" transform="translate(0,383.16666666666663)" x1="0" x2="388.0" y1="0" y2="0" /><line stroke="#888888" stroke-dasharray="1,0" stroke-width="1" transform="translate(0,413.41666666666663)" x1="0" x2="388.0" y1="0" y2="0" /><line stroke="#888888" stroke-dasharray="1,0" stroke-width="1" transform="translate(0,443.66666666666663)" x1="0" x2="388.0" y1="0" y2="0" /><line stroke="#888888" stroke-dasharray="1,0" stroke-width="1" transform="translate(0,473.91666666666663)" x1="0" x2="388.0" y1="0" y2="0" /><line stroke="#888888" stroke-dasharray="1,0" stroke-width="1" transform="translate(0,504.16666666666663)" x1="0" x2="388.0" y1="0" y2="0" /><line stroke="#888888" stroke-dasharray="1,0" stroke-width="1" transform="translate(0,534.4166666666666)" x1="0" x2="388.0" y1="0" y2="0" /><line stroke="#888888" stroke-dasharray="1,0" stroke-width="1" transform="translate(0,564.6666666666666)" x1="0" x2="388.0" y1="0" y2="0" /><line stroke="#888888" stroke-dasharray="1,0" stroke-width="1" transform="translate(0,594.9166666666666)" x1="0" x2="388.0" y1="0" y2="0" /><line stroke="#888888" stroke-dasharray="1,0" stroke-width="1" transform="translate(0,625.1666666666666)" x1="0" x2="388.0" y1="0" y2="0" /><line stroke="#888888" stroke-dasharray="1,0" stroke-width="1" transform="translate(0,655.4166666666666)" x1="0" x2="388.0" y1="0" y2="0" /><line stroke="#888888" stroke-dasharray="1,0" stroke-width="1" transform="translate(0,685.6666666666666)" x1="0" x2="388.0" y1="0" y2="0" /><line stroke="#888888" stroke-dasharray="1,0" stroke-width="1" transform="translate(0,715.9166666666666)" x1="0" x2="388.0" y1="0" y2="0" /></g></g></g></g></svg>