<?xml version="1.0" encoding="utf-8" ?>
<svg baseProfile="tiny" height="8.5in" version="1.2" width="11in" xmlns="http://www.w3.org/2000/svg" xmlns:ev="http://www.w3.org/2001/xml-events" xmlns:xlink="http://www.w3.org/1999/xlink"><defs /><g transform="translate(24.0, 24.0)"><rect fill="none" height="768.0" stroke="#008080" width="408.0" x="0" y="0" /><g transform="translate(10, 10)"><rect fill="none" height="22" stroke="#008080" stroke-width="1" width="388.0" x="0" y="0" /><text alignment-baseline="text-after-edge" fill="#444444" font-family="Trebuchet MS" font-size="12" text-anchor="start" transform="translate(5,17)">A Year of Growth</text></g><g transform="translate(10, 32)"><g transform="translate(0,0)"><rect fill="none" height="82.0" stroke="#008080" stroke-width="1" width="388.0" x="0" y="0" /><text alignment-baseline="text-after-edge" fill="#444444" font-family="Ubuntu Mono" font-size="10" text-anchor="start" transform="translate(5,17.0)">Imagine your life 12 months from now. Where do you want to be, and</text><text alignment-baseline="text-after-edge" fill="#444444" font-family="Ubuntu Mono" font-size="10" text-anchor="start" transform="translate(5,29.0)">what do you hope to have accomplished? Be specific and aim for</text><text alignment-baseline="text-after-edge" fill="#444444" font-family="Ubuntu Mono" font-size="10" text-anchor="start" transform="translate(5,41.0)">goals that excite you, even if they feel slightly out of reach.</text><text alignment-baseline="text-after-edge" fill="#444444" font-family="Ubuntu Mono" font-size="10" text-anchor="start" transform="translate(5,53.0)">Think about how you want to grow personally, professionally, and</text><text alignment-baseline="text-after-edge" fill="#444444" font-family="Ubuntu Mono" font-size="10" text-anchor="start" transform="translate(5,65.0)">emotionally. What changes do you want to see in your work, your</text><text alignment-baseline="text-after-edge" fill="#444444" font-family="Ubuntu Mono" font-size="10" text-anchor="start" transform="translate(5,77.0)">relationships, and your overall well-being?</text></g><g transform="translate(0,82.0)"><g><line stroke="#888888" stroke-dasharray="1,5" stroke-width="1" transform="translate(0,31.7)" x1="0" x2="388.0" y1="0" y2="0" /><line stroke="#888888" stroke-dasharray="1,5" stroke-width="1" transform="translate(0,63.4)" x1="0" x2="388.0" y1="0" y2="0" /><line stroke="#888888" stroke-dasharray="1,5" stroke-width="1" transform="translate(0,95.1)" x1="0" x2="388.0" y1="0" y2="0" /><line stroke="#888888" stroke-dasharray="1,5" stroke-width="1" transform="translate(0,126.8)" x1="0" x2="388.0" y1="0" y2="0" /><line stroke="#888888" stroke-dasharray="1,5" stroke-width="1" transform="translate(0,158.5)" x1="0" x2="388.0" y1="0" y2="0" /><line stroke="#888888" stroke-dasharray="1,5" stroke-width="1" transform="translate(0,190.2)" x1="0" x2="388.0" y1="0" y2="0" /><line stroke="#888888" stroke-dasharray="1,5" stroke-width="1" transform="translate(0,221.89999999999998)" x1="0" x2="388.0" y1="0" y2="0" /><line stroke="#888888" stroke-dasharray="1,5" stroke-width="1" transform="translate(0,253.59999999999997)" x1="0" x2="388.0" y1="0" y2="0" /><line stroke="#888888" stroke-dasharray="1,5" stroke-width="1" transform="translate(0,285.29999999999995)" x1="0" x2="388.0" y1="0" y2="0" /><line stroke="#888888" stroke-dasharray="1,5" stroke-width="1" transform="translate(0,316.99999999999994)" x1="0" x2="388.0" y1="0" y2="0" /><line stroke="#888888" stroke-dasharray="1,5" stroke-width="1" transform="translate(0,348.69999999999993)" x1="0" x2="388.0" y1="0" y2="0" /><line stroke="#888888" stroke-dasharray="1,5" stroke-width="1" transform="translate(0,380.3999999999999)" x1="0" x2="388.0" y1="0" y2="0" /><line stroke="#888888" stroke-dasharray="1,5" stroke-width="1" transform="translate(0,412.0999999999999)" x1="0" x2="388.0" y1="0" y2="0" /><line stroke="#888888" stroke-dasharray="1,5" stroke-width="1" transform="translate(0,443.7999999999999)" x1="0" x2="388.0" y1="0" y2="0" /><line stroke="#888888" stroke-dasharray="1,5" stroke-width="1" transform="translate(0,475.4999999999999)" x1="0" x2="388.0" y1="0" y2="0" /><line stroke="#888888" stroke-dasharray="1,5" stroke-width="1" transform="translate(0,507.1999999999999)" x1="0" x2="388.0" y1="0" y2="0" /><line stroke="#888888" stroke-dasharray="1,5" stroke-width="1" transform="translate(0,538.8999999999999)" x1="0" x2="388.0" y1="0" y2="0" /><line stroke="#888888" stroke-dasharray="1,5" stroke-width="1" transform="translate(0,570.5999999999999)" x1="0" x2="388.0" y1="0" y2="0" /><line stroke="#888888" stroke-dasharray="1,5" stroke-width="1" transform="translate(0,602.3)" x1="0" x2="388.0" y1="0" y2="0" /><line stroke="#888888" stroke-dasharray="1,5" stroke-width="1" transform="translate(0,634.0)" x1="0" x2="388.0" y1="0" y2="0" /></g><g><line stroke="#888888" stroke-dasharray="1,0" stroke-width="1" transform="translate(0,21.133333333333333)" x1="0" x2="388.0" y1="0" y2="0" /><line stroke="#888888" stroke-dasharray="1,0" stroke-width="1" transform="translate(0,52.83333333333333)" x1="0" x2="388.0" y1="0" y2="0" /><line stroke="#888888" stroke-dasharray="1,0" stroke-width="1" transform="translate(0,84.53333333333333)" x1="0" x2="388.0" y1="0" y2="0" /><line stroke="#888888" stroke-dasharray="1,0" stroke-width="1" transform="translate(0,116.23333333333333)" x1="0" x2="388.0" y1="0" y2="0" /><line stroke="#888888" stroke-dasharray="1,0" stroke-width="1" transform="translate(0,147.93333333333334)" x1="0" x2="388.0" y1="0" y2="0" /><line stroke="#888888" stroke-dasharray="1,0" stroke-width="1" transform="translate(0,179.63333333333333)" x1="0" x2="388.0" y1="0" y2="0" /><line stroke="#888888" stroke-dasharray="1,0" stroke-width="1" transform="translate(0,211.33333333333331)" x1="0" x2="388.0" y1="0" y2="0" /><line stroke="#888888" stroke-dasharray="1,0" stroke-width="1" transform="translate(0,243.0333333333333)" x1="0" x2="388.0" y1="0" y2="0" /><line stroke="#888888" stroke-dasharray="1,0" stroke-width="1" transform="translate(0,274.7333333333333)" x1="0" x2="388.0" y1="0" y2="0" /><line stroke="#888888" stroke-dasharray="1,0" stroke-width="1" transform="translate(0,306.4333333333333)" x1="0" x2="388.0" y1="0" y2="0" /><line stroke="#888888" stroke-dasharray="1,0" stroke-width="1" transform="translate(0,338.13333333333327)" x1="0" x2="388.0" y1="0" y2="0" /><line stroke="#888888" stroke-dasharray="1,0" stroke-width="1" transform="translate(0,369.83333333333326)" x1="0" x2="388.0" y1="0" y2="0" /><line stroke="#888888" stroke-dasharray="1,0" stroke-width="1" transform="translate(0,401.53333333333325)" x1="0" x2="388.0" y1="0" y2="0" /><line stroke="#888888" stroke-dasharray="1,0" stroke-width="1" transform="translate(0,433.23333333333323)" x1="0" x2="388.0" y1="0" y2="0" /><line stroke="#888888" stroke-dasharray="1,0" stroke-width="1" transform="translate(0,464.9333333333332)" x1="0" x2="388.0" y1="0" y2="0" /><line stroke="#888888" stroke-dasharray="1,0" stroke-width="1" transform="translate(0,496.6333333333332)" x1="0" x2="388.0" y1="0" y2="0" /><line stroke="#888888" stroke-dasharray="1,0" stroke-width="1" transform="translate(0,528.3333333333333)" x1="0" x2="388.0" y1="0" y2="0" /><line stroke="#888888" stroke-dasharray="1,0" stroke-width="1" transform="translate(0,560.0333333333333)" x1="0" x2="388.0" y1="0" y2="0" /><line stroke="#888888" stroke-dasharray="1,0" stroke-width="1" transform="translate(0,591.7333333333333)" x1="0" x2="388.0" y1="0" y2="0" /><line stroke="#888888" stroke-dasharray="1,0" stroke-width="1" transform="translate(0,623.4333333333334)" x1="0" x2="388.0" y1="0" y2="0" /></g></g></g></g><g transform="translate(624.0, 24.0)"><rect fill="none" height="768.0" stroke="#008080" width="408.0" x="0" y="0" /><g transform="translate(10, 10)"><rect fill="none" height="22" stroke="#008080" stroke-width="1" width="388.0" x="0" y="0" /><text alignment-baseline="text-after-edge" fill="#444444" font-family="Trebuchet MS" font-size="12" text-anchor="start" transform="translate(5,17)">A Year of Growth</text></g><g transform="translate(10, 32)"><g transform="translate(0,0)"><g><line stroke="#888888" stroke-dasharray="1,5" stroke-width="1" transform="translate(0,29.833333333333332)" x1="0" x2="388.0" y1="0" y2="0" /><line stroke="#888888" stroke-dasharray="1,5" stroke-width="1" transform="translate(0,59.666666666666664)" x1="0" x2="388.0" y1="0" y2="0" /><line stroke="#888888" stroke-dasharray="1,5" stroke-width="1" transform="translate(0,89.5)" x1="0" x2="388.0" y1="0" y2="0" /><line stroke="#888888" stroke-dasharray="1,5" stroke-width="1" transform="translate(0,119.33333333333333)" x1="0" x2="388.0" y1="0" y2="0" /><line stroke="#888888" stroke-dasharray="1,5" stroke-width="1" transform="translate(0,149.16666666666666)" x1="0" x2="388.0" y1="0" y2="0" /><line stroke="#888888" stroke-dasharray="1,5" stroke-width="1" transform="translate(0,179.0)" x1="0" x2="388.0" y1="0" y2="0" /><line stroke="#888888" stroke-dasharray="1,5" stroke-width="1" transform="translate(0,208.83333333333334)" x1="0" x2="388.0" y1="0" y2="0" /><line stroke="#888888" stroke-dasharray="1,5" stroke-width="1" transform="translate(0,238.66666666666669)" x1="0" x2="388.0" y1="0" y2="0" /><line stroke="#888888" stroke-dasharray="1,5" stroke-width="1" transform="translate(0,268.5)" x1="0" x2="388.0" y1="0" y2="0" /><line stroke="#888888" stroke-dasharray="1,5" stroke-width="1" transform="translate(0,298.3333333333333)" x1="0" x2="388.0" y1="0" y2="0" /><line stroke="#888888" stroke-dasharray="1,5" stroke-width="1" transform="translate(0,328.16666666666663)" x1="0" x2="388.0" y1="0" y2="0" /><line stroke="#888888" stroke-dasharray="1,5" stroke-width="1" transform="translate(0,357.99999999999994)" x1="0" x2="388.0" y1="0" y2="0" /><line stroke="#888888" stroke-dasharray="1,5" stroke-width="1" transform="translate(0,387.83333333333326)" x1="0" x2="388.0" y1="0" y2="0" /><line stroke="#888888" stroke-dasharray="1,5" stroke-width="1" transform="translate(0,417.6666666666666)" x1="0" x2="388.0" y1="0" y2="0" /><line stroke="#888888" stroke-dasharray="1,5" stroke-width="1" transform="translate(0,447.4999999999999)" x1="0" x2="388.0" y1="0" y2="0" /><line stroke="#888888" stroke-dasharray="1,5" stroke-width="1" transform="translate(0,477.3333333333332)" x1="0" x2="388.0" y1="0" y2="0" /><line stroke="#888888" stroke-dasharray="1,5" stroke-width="1" transform="translate(0,507.1666666666665)" x1="0" x2="388.0" y1="0" y2="0" /><line stroke="#888888" stroke-dasharray="1,5" stroke-width="1" transform="translate(0,536.9999999999999)" x1="0" x2="388.0" y1="0" y2="0" /><line stroke="#888888" stroke-dasharray="1,5" stroke-width="1" transform="translate(0,566.8333333333333)" x1="0" x2="388.0" y1="0" y2="0" /><line stroke="#888888" stroke-dasharray="1,5" stroke-width="1" transform="translate(0,596.6666666666666)" x1="0" x2="388.0" y1="0" y2="0" /><line stroke="#888888" stroke-dasharray="1,5" stroke-width="1" transform="translate(0,626.5)" x1="0" x2="388.0" y1="0" y2="0" /><line stroke="#888888" stroke-dasharray="1,5" stroke-width="1" transform="translate(0,656.3333333333334)" x1="0" x2="388.0" y1="0" y2="0" /><line stroke="#888888" stroke-dasharray="1,5" stroke-width="1" transform="translate(0,686.1666666666667)" x1="0" x2="388.0" y1="0" y2="0" /><line stroke="#888888" stroke-dasharray="1,5" stroke-width="1" transform="translate(0,716.0000000000001)" x1="0" x2="388.0" y1="0" y2="0" /></g><g><line stroke="#888888" stroke-dasharray="1,0" stroke-width="1" transform="translate(0,19.888888888888886)" x1="0" x2="388.0" y1="0" y2="0" /><line stroke="#888888" stroke-dasharray="1,0" stroke-width="1" transform="translate(0,49.722222222222214)" x1="0" x2="388.0" y1="0" y2="0" /><line stroke="#888888" stroke-dasharray="1,0" stroke-width="1" transform="translate(0,79.55555555555554)" x1="0" x2="388.0" y1="0" y2="0" /><line stroke="#888888" stroke-dasharray="1,0" stroke-width="1" transform="translate(0,109.38888888888887)" x1="0" x2="388.0" y1="0" y2="0" /><line stroke="#888888" stroke-dasharray="1,0" stroke-width="1" transform="translate(0,139.2222222222222)" x1="0" x2="388.0" y1="0" y2="0" /><line stroke="#888888" stroke-dasharray="1,0" stroke-width="1" transform="translate(0,169.05555555555554)" x1="0" x2="388.0" y1="0" y2="0" /><line stroke="#888888" stroke-dasharray="1,0" stroke-width="1" transform="translate(0,198.88888888888889)" x1="0" x2="388.0" y1="0" y2="0" /><line stroke="#888888" stroke-dasharray="1,0" stroke-width="1" transform="translate(0,228.72222222222223)" x1="0" x2="388.0" y1="0" y2="0" /><line stroke="#888888" stroke-dasharray="1,0" stroke-width="1" transform="translate(0,258.55555555555554)" x1="0" x2="388.0" y1="0" y2="0" /><line stroke="#888888" stroke-dasharray="1,0" stroke-width="1" transform="translate(0,288.38888888888886)" x1="0" x2="388.0" y1="0" y2="0" /><line stroke="#888888" stroke-dasharray="1,0" stroke-width="1" transform="translate(0,318.2222222222222)" x1="0" x2="388.0" y1="0" y2="0" /><line stroke="#888888" stroke-dasharray="1,0" stroke-width="1" transform="translate(0,348.0555555555555)" x1="0" x2="388.0" y1="0" y2="0" /><line stroke="#888888" stroke-dasharray="1,0" stroke-width="1" transform="translate(0,377.8888888888888)" x1="0" x2="388.0" y1="0" y2="0" /><line stroke="#888888" stroke-dasharray="1,0" stroke-width="1" transform="translate(0,407.7222222222221)" x1="0" x2="388.0" y1="0" y2="0" /><line stroke="#888888" stroke-dasharray="1,0" stroke-width="1" transform="translate(0,437.55555555555543)" x1="0" x2="388.0" y1="0" y2="0" /><line stroke="#888888" stroke-dasharray="1,0" stroke-width="1" transform="translate(0,467.38888888888874)" x1="0" x2="388.0" y1="0" y2="0" /><line stroke="#888888" stroke-dasharray="1,0" stroke-width="1" transform="translate(0,497.22222222222206)" x1="0" x2="388.0" y1="0" y2="0" /><line stroke="#888888" stroke-dasharray="1,0" stroke-width="1" transform="translate(0,527.0555555555554)" x1="0" x2="388.0" y1="0" y2="0" /><line stroke="#888888" stroke-dasharray="1,0" stroke-width="1" transform="translate(0,556.8888888888888)" x1="0" x2="388.0" y1="0" y2="0" /><line stroke="#888888" stroke-dasharray="1,0" stroke-width="1" transform="translate(0,586.7222222222222)" x1="0" x2="388.0" y1="0" y2="0" /><line stroke="#888888" stroke-dasharray="1,0" stroke-width="1" transform="translate(0,616.5555555555555)" x1="0" x2="388.0" y1="0" y2="0" /><line stroke="#888888" stroke-dasharray="1,0" stroke-width="1" transform="translate(0,646.3888888888889)" x1="0" x2="388.0" y1="0" y2="0" /><line stroke="#888888" stroke-dasharray="1,0" stroke-width="1" transform="translate(0,676.2222222222223)" x1="0" x2="388.0" y1="0" y2="0" /><line stroke="#888888" stroke-dasharray="1,0" stroke-width="1" transform="translate(0,706.0555555555557)" x1="0" x2="388.0" y1="0" y2="0" /></g></g></g></g></svg>