<?xml version="1.0" encoding="utf-8" ?>
<svg baseProfile="tiny" height="8.5in" version="1.2" width="11in" xmlns="http://www.w3.org/2000/svg" xmlns:ev="http://www.w3.org/2001/xml-events" xmlns:xlink="http://www.w3.org/1999/xlink"><defs /><g transform="translate(96, 24.0)"><rect fill="none" height="768.0" stroke="#008080" width="408.0" x="0" y="0" /><g transform="translate(8, 8)"><rect fill="#d7d7d7" height="22" stroke="#888888" width="392.0" x="0" y="0" /><text alignment-baseline="text-after-edge" fill="#444444" font-family="Ubuntu Mono" font-size="12" text-anchor="start" x="5" y="17">Mon  Tue  Wed  Thu  Fri  Sat  Sun</text><text alignment-baseline="text-after-edge" fill="#444444" font-family="Ubuntu Mono" font-size="12" text-anchor="start" x="282.0" y="17">      /      /  20    </text></g><g transform="translate(302.0,30)"><g><rect fill="none" height="20" stroke="none" width="98.0" x="0" y="8" /><text alignment-baseline="text-after-edge" fill="#444444" font-family="Trebuchet MS" font-size="10" text-anchor="start" x="5" y="23">Time Well Spent</text></g><g><text alignment-baseline="text-after-edge" fill="#444444" font-family="Ubuntu Mono" font-size="8" text-anchor="start" x="0" y="47.27272727272727">05:00</text><line stroke="#d7d7d7" x1="0" x2="98.0" y1="49.27272727272727" y2="49.27272727272727" /><line stroke="#d7d7d7" x1="0" x2="98.0" y1="70.54545454545455" y2="70.54545454545455" /><text alignment-baseline="text-after-edge" fill="#444444" font-family="Ubuntu Mono" font-size="8" text-anchor="start" x="0" y="89.81818181818181">06:00</text><line stroke="#d7d7d7" x1="0" x2="98.0" y1="91.81818181818181" y2="91.81818181818181" /><line stroke="#d7d7d7" x1="0" x2="98.0" y1="113.0909090909091" y2="113.0909090909091" /><text alignment-baseline="text-after-edge" fill="#444444" font-family="Ubuntu Mono" font-size="8" text-anchor="start" x="0" y="132.36363636363637">07:00</text><line stroke="#d7d7d7" x1="0" x2="98.0" y1="134.36363636363637" y2="134.36363636363637" /><line stroke="#d7d7d7" x1="0" x2="98.0" y1="155.63636363636365" y2="155.63636363636365" /><text alignment-baseline="text-after-edge" fill="#444444" font-family="Ubuntu Mono" font-size="8" text-anchor="start" x="0" y="174.9090909090909">08:00</text><line stroke="#d7d7d7" x1="0" x2="98.0" y1="176.9090909090909" y2="176.9090909090909" /><line stroke="#d7d7d7" x1="0" x2="98.0" y1="198.1818181818182" y2="198.1818181818182" /><text alignment-baseline="text-after-edge" fill="#444444" font-family="Ubuntu Mono" font-size="8" text-anchor="start" x="0" y="217.45454545454547">09:00</text><line stroke="#d7d7d7" x1="0" x2="98.0" y1="219.45454545454547" y2="219.45454545454547" /><line stroke="#d7d7d7" x1="0" x2="98.0" y1="240.72727272727275" y2="240.72727272727275" /><text alignment-baseline="text-after-edge" fill="#444444" font-family="Ubuntu Mono" font-size="8" text-anchor="start" x="0" y="260.0">10:00</text><line stroke="#d7d7d7" x1="0" x2="98.0" y1="262.0" y2="262.0" /><line stroke="#d7d7d7" x1="0" x2="98.0" y1="283.27272727272725" y2="283.27272727272725" /><text alignment-baseline="text-after-edge" fill="#444444" font-family="Ubuntu Mono" font-size="8" text-anchor="start" x="0" y="302.54545454545456">11:00</text><line stroke="#d7d7d7" x1="0" x2="98.0" y1="304.54545454545456" y2="304.54545454545456" /><line stroke="#d7d7d7" x1="0" x2="98.0" y1="325.8181818181818" y2="325.8181818181818" /><text alignment-baseline="text-after-edge" fill="#444444" font-family="Ubuntu Mono" font-size="8" text-anchor="start" x="0" y="345.09090909090907">12:00</text><line stroke="#d7d7d7" x1="0" x2="98.0" y1="347.09090909090907" y2="347.09090909090907" /><line stroke="#d7d7d7" x1="0" x2="98.0" y1="368.3636363636364" y2="368.3636363636364" /><text alignment-baseline="text-after-edge" fill="#444444" font-family="Ubuntu Mono" font-size="8" text-anchor="start" x="0" y="387.6363636363636">13:00</text><line stroke="#d7d7d7" x1="0" x2="98.0" y1="389.6363636363636" y2="389.6363636363636" /><line stroke="#d7d7d7" x1="0" x2="98.0" y1="410.9090909090909" y2="410.9090909090909" /><text alignment-baseline="text-after-edge" fill="#444444" font-family="Ubuntu Mono" font-size="8" text-anchor="start" x="0" y="430.1818181818182">14:00</text><line stroke="#d7d7d7" x1="0" x2="98.0" y1="432.1818181818182" y2="432.1818181818182" /><line stroke="#d7d7d7" x1="0" x2="98.0" y1="453.45454545454544" y2="453.45454545454544" /><text alignment-baseline="text-after-edge" fill="#444444" font-family="Ubuntu Mono" font-size="8" text-anchor="start" x="0" y="472.72727272727275">15:00</text><line stroke="#d7d7d7" x1="0" x2="98.0" y1="474.72727272727275" y2="474.72727272727275" /><line stroke="#d7d7d7" x1="0" x2="98.0" y1="496.0" y2="496.0" /><text alignment-baseline="text-after-edge" fill="#444444" font-family="Ubuntu Mono" font-size="8" text-anchor="start" x="0" y="515.2727272727273">16:00</text><line stroke="#d7d7d7" x1="0" x2="98.0" y1="517.2727272727273" y2="517.2727272727273" /><line stroke="#d7d7d7" x1="0" x2="98.0" y1="538.5454545454546" y2="538.5454545454546" /><text alignment-baseline="text-after-edge" fill="#444444" font-family="Ubuntu Mono" font-size="8" text-anchor="start" x="0" y="557.8181818181819">17:00</text><line stroke="#d7d7d7" x1="0" x2="98.0" y1="559.8181818181819" y2="559.8181818181819" /><line stroke="#d7d7d7" x1="0" x2="98.0" y1="581.0909090909091" y2="581.0909090909091" /><text alignment-baseline="text-after-edge" fill="#444444" font-family="Ubuntu Mono" font-size="8" text-anchor="start" x="0" y="600.3636363636364">18:00</text><line stroke="#d7d7d7" x1="0" x2="98.0" y1="602.3636363636364" y2="602.3636363636364" /><line stroke="#d7d7d7" x1="0" x2="98.0" y1="623.6363636363636" y2="623.6363636363636" /><text alignment-baseline="text-after-edge" fill="#444444" font-family="Ubuntu Mono" font-size="8" text-anchor="start" x="0" y="642.9090909090909">19:00</text><line stroke="#d7d7d7" x1="0" x2="98.0" y1="644.9090909090909" y2="644.9090909090909" /><line stroke="#d7d7d7" x1="0" x2="98.0" y1="666.1818181818181" y2="666.1818181818181" /><text alignment-baseline="text-after-edge" fill="#444444" font-family="Ubuntu Mono" font-size="8" text-anchor="start" x="0" y="685.4545454545455">20:00</text><line stroke="#d7d7d7" x1="0" x2="98.0" y1="687.4545454545455" y2="687.4545454545455" /><line stroke="#d7d7d7" x1="0" x2="98.0" y1="708.7272727272727" y2="708.7272727272727" /><text alignment-baseline="text-after-edge" fill="#444444" font-family="Ubuntu Mono" font-size="8" text-anchor="start" x="0" y="728.0">21:00</text><line stroke="#d7d7d7" x1="0" x2="98.0" y1="730.0" y2="730.0" /></g></g><g transform="translate(8,30)"><g><rect fill="#888888" height="20" stroke="#888888" width="286.0" x="0" y="8" /><text alignment-baseline="text-after-edge" fill="#ffffff" font-family="Trebuchet MS" font-size="10" text-anchor="start" x="5" y="23">Primary Efforts</text><text alignment-baseline="text-after-edge" fill="#ffffff" font-family="Trebuchet MS" font-size="10" text-anchor="start" x="147.0" y="23">Alignment</text></g><g><line stroke="#d7d7d7" x1="0" x2="286.0" y1="48" y2="48" /><line stroke="#d7d7d7" x1="0" x2="286.0" y1="68" y2="68" /><line stroke="#d7d7d7" x1="0" x2="286.0" y1="88" y2="88" /><line stroke="#d7d7d7" x1="0" x2="286.0" y1="108" y2="108" /></g><rect fill="none" height="100" stroke="#008080" width="286.0" x="0" y="8" /></g><g transform="translate(8,138)"><rect fill="none" height="20" stroke="none" width="286.0" x="0" y="8" /><text alignment-baseline="text-after-edge" fill="#444444" font-family="Ubuntu Mono" font-size="10" text-anchor="start" x="5" y="23">[] Vision </text><text alignment-baseline="text-after-edge" fill="#444444" font-family="Ubuntu Mono" font-size="10" text-anchor="start" x="73.5" y="23">[] Goals</text><text alignment-baseline="text-after-edge" fill="#444444" font-family="Ubuntu Mono" font-size="10" text-anchor="start" x="147.0" y="23">[] Calendar</text><text alignment-baseline="text-after-edge" fill="#444444" font-family="Ubuntu Mono" font-size="10" text-anchor="start" x="220.5" y="23">[] Habit</text></g><g transform="translate(8,166)"><g><rect fill="#888888" height="20" stroke="#888888" width="286.0" x="0" y="8" /><text alignment-baseline="text-after-edge" fill="#ffffff" font-family="Trebuchet MS" font-size="10" text-anchor="start" x="5" y="23">Today I will pay most attention to:</text></g><g><line stroke="#d7d7d7" x1="0" x2="286.0" y1="51.0" y2="51.0" /></g><rect fill="none" height="43.0" stroke="#008080" width="286.0" x="0" y="8" /></g><g transform="translate(8,217.0)"><g><rect fill="#888888" height="20" stroke="#888888" width="286.0" x="0" y="8" /><text alignment-baseline="text-after-edge" fill="#ffffff" font-family="Trebuchet MS" font-size="10" text-anchor="start" x="5" y="23">To Do</text></g><g><line stroke="#d7d7d7" x1="0" x2="286.0" y1="48" y2="48" /><line stroke="#d7d7d7" x1="0" x2="286.0" y1="68" y2="68" /><line stroke="#d7d7d7" x1="0" x2="286.0" y1="88" y2="88" /><line stroke="#d7d7d7" x1="0" x2="286.0" y1="108" y2="108" /><line stroke="#d7d7d7" x1="0" x2="286.0" y1="128" y2="128" /><line stroke="#d7d7d7" x1="0" x2="286.0" y1="148" y2="148" /><line stroke="#d7d7d7" x1="0" x2="286.0" y1="168" y2="168" /><line stroke="#d7d7d7" x1="0" x2="286.0" y1="188" y2="188" /><text alignment-baseline="text-after-edge" fill="#444444" font-family="Ubuntu Mono" font-size="8" text-anchor="start" x="5" y="43">[]</text><text alignment-baseline="text-after-edge" fill="#444444" font-family="Ubuntu Mono" font-size="8" text-anchor="start" x="5" y="63">[]</text><text alignment-baseline="text-after-edge" fill="#444444" font-family="Ubuntu Mono" font-size="8" text-anchor="start" x="5" y="83">[]</text><text alignment-baseline="text-after-edge" fill="#444444" font-family="Ubuntu Mono" font-size="8" text-anchor="start" x="5" y="103">[]</text><text alignment-baseline="text-after-edge" fill="#444444" font-family="Ubuntu Mono" font-size="8" text-anchor="start" x="5" y="123">[]</text><text alignment-baseline="text-after-edge" fill="#444444" font-family="Ubuntu Mono" font-size="8" text-anchor="start" x="5" y="143">[]</text><text alignment-baseline="text-after-edge" fill="#444444" font-family="Ubuntu Mono" font-size="8" text-anchor="start" x="5" y="163">[]</text><text alignment-baseline="text-after-edge" fill="#444444" font-family="Ubuntu Mono" font-size="8" text-anchor="start" x="5" y="183">[]</text></g><rect fill="none" height="180" stroke="#008080" width="286.0" x="0" y="8" /></g><g transform="translate(8,405.0)"><g><rect fill="#888888" height="20" stroke="#888888" width="286.0" x="0" y="8" /><text alignment-baseline="text-after-edge" fill="#ffffff" font-family="Trebuchet MS" font-size="10" text-anchor="start" x="5" y="23">Gratitude</text></g><g><line stroke="#d7d7d7" x1="0" x2="286.0" y1="51.0" y2="51.0" /></g><rect fill="none" height="43.0" stroke="#008080" width="286.0" x="0" y="8" /></g><g transform="translate(8,456.0)"><g><rect fill="none" height="20" stroke="none" width="286.0" x="0" y="8" /><text alignment-baseline="text-after-edge" fill="#444444" font-family="Ubuntu Mono" font-size="10" text-anchor="start" x="5" y="23">How can I embrace discomfort and grow today?</text></g><g><line stroke="#d7d7d7" x1="0" x2="286.0" y1="48" y2="48" /><line stroke="#d7d7d7" x1="0" x2="286.0" y1="68" y2="68" /><line stroke="#d7d7d7" x1="0" x2="286.0" y1="88" y2="88" /><line stroke="#d7d7d7" x1="0" x2="286.0" y1="108" y2="108" /></g><rect fill="none" height="100" stroke="#008080" width="286.0" x="0" y="8" /></g><g transform="translate(8,564.0)"><g><rect fill="none" height="20" stroke="none" width="286.0" x="0" y="8" /><text alignment-baseline="text-after-edge" fill="#444444" font-family="Ubuntu Mono" font-size="10" text-anchor="start" x="5" y="23">One achievement I take pride in:</text></g><g><line stroke="#d7d7d7" x1="0" x2="286.0" y1="48" y2="48" /><line stroke="#d7d7d7" x1="0" x2="286.0" y1="68" y2="68" /><line stroke="#d7d7d7" x1="0" x2="286.0" y1="88" y2="88" /></g><rect fill="none" height="80" stroke="#008080" width="286.0" x="0" y="8" /></g><g transform="translate(8,652.0)"><g><rect fill="none" height="20" stroke="none" width="286.0" x="0" y="8" /><text alignment-baseline="text-after-edge" fill="#444444" font-family="Ubuntu Mono" font-size="10" text-anchor="start" x="5" y="23">How can I move towards my ideal self?</text></g><g><line stroke="#d7d7d7" x1="0" x2="286.0" y1="48" y2="48" /><line stroke="#d7d7d7" x1="0" x2="286.0" y1="68" y2="68" /><line stroke="#d7d7d7" x1="0" x2="286.0" y1="88" y2="88" /><line stroke="#d7d7d7" x1="0" x2="286.0" y1="108" y2="108" /></g><rect fill="none" height="100" stroke="#008080" width="286.0" x="0" y="8" /></g></g><g transform="translate(624.0, 24.0)"><rect fill="none" height="768.0" stroke="#008080" width="408.0" x="0" y="0" /><g transform="translate(8, 8)"><rect fill="#d7d7d7" height="22" stroke="#888888" width="392.0" x="0" y="0" /><text alignment-baseline="text-after-edge" fill="#444444" font-family="Ubuntu Mono" font-size="12" text-anchor="start" x="5" y="17">Mon  Tue  Wed  Thu  Fri  Sat  Sun</text><text alignment-baseline="text-after-edge" fill="#444444" font-family="Ubuntu Mono" font-size="12" text-anchor="start" x="282.0" y="17">      /      /  20    </text></g><g transform="translate(302.0,30)"><g><rect fill="none" height="20" stroke="none" width="98.0" x="0" y="8" /><text alignment-baseline="text-after-edge" fill="#444444" font-family="Trebuchet MS" font-size="10" text-anchor="start" x="5" y="23">Time Well Spent</text></g><g><text alignment-baseline="text-after-edge" fill="#444444" font-family="Ubuntu Mono" font-size="8" text-anchor="start" x="0" y="47.27272727272727">05:00</text><line stroke="#d7d7d7" x1="0" x2="98.0" y1="49.27272727272727" y2="49.27272727272727" /><line stroke="#d7d7d7" x1="0" x2="98.0" y1="70.54545454545455" y2="70.54545454545455" /><text alignment-baseline="text-after-edge" fill="#444444" font-family="Ubuntu Mono" font-size="8" text-anchor="start" x="0" y="89.81818181818181">06:00</text><line stroke="#d7d7d7" x1="0" x2="98.0" y1="91.81818181818181" y2="91.81818181818181" /><line stroke="#d7d7d7" x1="0" x2="98.0" y1="113.0909090909091" y2="113.0909090909091" /><text alignment-baseline="text-after-edge" fill="#444444" font-family="Ubuntu Mono" font-size="8" text-anchor="start" x="0" y="132.36363636363637">07:00</text><line stroke="#d7d7d7" x1="0" x2="98.0" y1="134.36363636363637" y2="134.36363636363637" /><line stroke="#d7d7d7" x1="0" x2="98.0" y1="155.63636363636365" y2="155.63636363636365" /><text alignment-baseline="text-after-edge" fill="#444444" font-family="Ubuntu Mono" font-size="8" text-anchor="start" x="0" y="174.9090909090909">08:00</text><line stroke="#d7d7d7" x1="0" x2="98.0" y1="176.9090909090909" y2="176.9090909090909" /><line stroke="#d7d7d7" x1="0" x2="98.0" y1="198.1818181818182" y2="198.1818181818182" /><text alignment-baseline="text-after-edge" fill="#444444" font-family="Ubuntu Mono" font-size="8" text-anchor="start" x="0" y="217.45454545454547">09:00</text><line stroke="#d7d7d7" x1="0" x2="98.0" y1="219.45454545454547" y2="219.45454545454547" /><line stroke="#d7d7d7" x1="0" x2="98.0" y1="240.72727272727275" y2="240.72727272727275" /><text alignment-baseline="text-after-edge" fill="#444444" font-family="Ubuntu Mono" font-size="8" text-anchor="start" x="0" y="260.0">10:00</text><line stroke="#d7d7d7" x1="0" x2="98.0" y1="262.0" y2="262.0" /><line stroke="#d7d7d7" x1="0" x2="98.0" y1="283.27272727272725" y2="283.27272727272725" /><text alignment-baseline="text-after-edge" fill="#444444" font-family="Ubuntu Mono" font-size="8" text-anchor="start" x="0" y="302.54545454545456">11:00</text><line stroke="#d7d7d7" x1="0" x2="98.0" y1="304.54545454545456" y2="304.54545454545456" /><line stroke="#d7d7d7" x1="0" x2="98.0" y1="325.8181818181818" y2="325.8181818181818" /><text alignment-baseline="text-after-edge" fill="#444444" font-family="Ubuntu Mono" font-size="8" text-anchor="start" x="0" y="345.09090909090907">12:00</text><line stroke="#d7d7d7" x1="0" x2="98.0" y1="347.09090909090907" y2="347.09090909090907" /><line stroke="#d7d7d7" x1="0" x2="98.0" y1="368.3636363636364" y2="368.3636363636364" /><text alignment-baseline="text-after-edge" fill="#444444" font-family="Ubuntu Mono" font-size="8" text-anchor="start" x="0" y="387.6363636363636">13:00</text><line stroke="#d7d7d7" x1="0" x2="98.0" y1="389.6363636363636" y2="389.6363636363636" /><line stroke="#d7d7d7" x1="0" x2="98.0" y1="410.9090909090909" y2="410.9090909090909" /><text alignment-baseline="text-after-edge" fill="#444444" font-family="Ubuntu Mono" font-size="8" text-anchor="start" x="0" y="430.1818181818182">14:00</text><line stroke="#d7d7d7" x1="0" x2="98.0" y1="432.1818181818182" y2="432.1818181818182" /><line stroke="#d7d7d7" x1="0" x2="98.0" y1="453.45454545454544" y2="453.45454545454544" /><text alignment-baseline="text-after-edge" fill="#444444" font-family="Ubuntu Mono" font-size="8" text-anchor="start" x="0" y="472.72727272727275">15:00</text><line stroke="#d7d7d7" x1="0" x2="98.0" y1="474.72727272727275" y2="474.72727272727275" /><line stroke="#d7d7d7" x1="0" x2="98.0" y1="496.0" y2="496.0" /><text alignment-baseline="text-after-edge" fill="#444444" font-family="Ubuntu Mono" font-size="8" text-anchor="start" x="0" y="515.2727272727273">16:00</text><line stroke="#d7d7d7" x1="0" x2="98.0" y1="517.2727272727273" y2="517.2727272727273" /><line stroke="#d7d7d7" x1="0" x2="98.0" y1="538.5454545454546" y2="538.5454545454546" /><text alignment-baseline="text-after-edge" fill="#444444" font-family="Ubuntu Mono" font-size="8" text-anchor="start" x="0" y="557.8181818181819">17:00</text><line stroke="#d7d7d7" x1="0" x2="98.0" y1="559.8181818181819" y2="559.8181818181819" /><line stroke="#d7d7d7" x1="0" x2="98.0" y1="581.0909090909091" y2="581.0909090909091" /><text alignment-baseline="text-after-edge" fill="#444444" font-family="Ubuntu Mono" font-size="8" text-anchor="start" x="0" y="600.3636363636364">18:00</text><line stroke="#d7d7d7" x1="0" x2="98.0" y1="602.3636363636364" y2="602.3636363636364" /><line stroke="#d7d7d7" x1="0" x2="98.0" y1="623.6363636363636" y2="623.6363636363636" /><text alignment-baseline="text-after-edge" fill="#444444" font-family="Ubuntu Mono" font-size="8" text-anchor="start" x="0" y="642.9090909090909">19:00</text><line stroke="#d7d7d7" x1="0" x2="98.0" y1="644.9090909090909" y2="644.9090909090909" /><line stroke="#d7d7d7" x1="0" x2="98.0" y1="666.1818181818181" y2="666.1818181818181" /><text alignment-baseline="text-after-edge" fill="#444444" font-family="Ubuntu Mono" font-size="8" text-anchor="start" x="0" y="685.4545454545455">20:00</text><line stroke="#d7d7d7" x1="0" x2="98.0" y1="687.4545454545455" y2="687.4545454545455" /><line stroke="#d7d7d7" x1="0" x2="98.0" y1="708.7272727272727" y2="708.7272727272727" /><text alignment-baseline="text-after-edge" fill="#444444" font-family="Ubuntu Mono" font-size="8" text-anchor="start" x="0" y="728.0">21:00</text><line stroke="#d7d7d7" x1="0" x2="98.0" y1="730.0" y2="730.0" /></g></g><g transform="translate(8,30)"><g><rect fill="#888888" height="20" stroke="#888888" width="286.0" x="0" y="8" /><text alignment-baseline="text-after-edge" fill="#ffffff" font-family="Trebuchet MS" font-size="10" text-anchor="start" x="5" y="23">Primary Efforts</text><text alignment-baseline="text-after-edge" fill="#ffffff" font-family="Trebuchet MS" font-size="10" text-anchor="start" x="147.0" y="23">Alignment</text></g><g><line stroke="#d7d7d7" x1="0" x2="286.0" y1="48" y2="48" /><line stroke="#d7d7d7" x1="0" x2="286.0" y1="68" y2="68" /><line stroke="#d7d7d7" x1="0" x2="286.0" y1="88" y2="88" /><line stroke="#d7d7d7" x1="0" x2="286.0" y1="108" y2="108" /></g><rect fill="none" height="100" stroke="#008080" width="286.0" x="0" y="8" /></g><g transform="translate(8,138)"><rect fill="none" height="20" stroke="none" width="286.0" x="0" y="8" /><text alignment-baseline="text-after-edge" fill="#444444" font-family="Ubuntu Mono" font-size="10" text-anchor="start" x="5" y="23">[] Vision </text><text alignment-baseline="text-after-edge" fill="#444444" font-family="Ubuntu Mono" font-size="10" text-anchor="start" x="73.5" y="23">[] Goals</text><text alignment-baseline="text-after-edge" fill="#444444" font-family="Ubuntu Mono" font-size="10" text-anchor="start" x="147.0" y="23">[] Calendar</text><text alignment-baseline="text-after-edge" fill="#444444" font-family="Ubuntu Mono" font-size="10" text-anchor="start" x="220.5" y="23">[] Habit</text></g><g transform="translate(8,166)"><g><rect fill="#888888" height="20" stroke="#888888" width="286.0" x="0" y="8" /><text alignment-baseline="text-after-edge" fill="#ffffff" font-family="Trebuchet MS" font-size="10" text-anchor="start" x="5" y="23">Today I will pay most attention to:</text></g><g><line stroke="#d7d7d7" x1="0" x2="286.0" y1="51.0" y2="51.0" /></g><rect fill="none" height="43.0" stroke="#008080" width="286.0" x="0" y="8" /></g><g transform="translate(8,217.0)"><g><rect fill="#888888" height="20" stroke="#888888" width="286.0" x="0" y="8" /><text alignment-baseline="text-after-edge" fill="#ffffff" font-family="Trebuchet MS" font-size="10" text-anchor="start" x="5" y="23">To Do</text></g><g><line stroke="#d7d7d7" x1="0" x2="286.0" y1="48" y2="48" /><line stroke="#d7d7d7" x1="0" x2="286.0" y1="68" y2="68" /><line stroke="#d7d7d7" x1="0" x2="286.0" y1="88" y2="88" /><line stroke="#d7d7d7" x1="0" x2="286.0" y1="108" y2="108" /><line stroke="#d7d7d7" x1="0" x2="286.0" y1="128" y2="128" /><line stroke="#d7d7d7" x1="0" x2="286.0" y1="148" y2="148" /><line stroke="#d7d7d7" x1="0" x2="286.0" y1="168" y2="168" /><line stroke="#d7d7d7" x1="0" x2="286.0" y1="188" y2="188" /><text alignment-baseline="text-after-edge" fill="#444444" font-family="Ubuntu Mono" font-size="8" text-anchor="start" x="5" y="43">[]</text><text alignment-baseline="text-after-edge" fill="#444444" font-family="Ubuntu Mono" font-size="8" text-anchor="start" x="5" y="63">[]</text><text alignment-baseline="text-after-edge" fill="#444444" font-family="Ubuntu Mono" font-size="8" text-anchor="start" x="5" y="83">[]</text><text alignment-baseline="text-after-edge" fill="#444444" font-family="Ubuntu Mono" font-size="8" text-anchor="start" x="5" y="103">[]</text><text alignment-baseline="text-after-edge" fill="#444444" font-family="Ubuntu Mono" font-size="8" text-anchor="start" x="5" y="123">[]</text><text alignment-baseline="text-after-edge" fill="#444444" font-family="Ubuntu Mono" font-size="8" text-anchor="start" x="5" y="143">[]</text><text alignment-baseline="text-after-edge" fill="#444444" font-family="Ubuntu Mono" font-size="8" text-anchor="start" x="5" y="163">[]</text><text alignment-baseline="text-after-edge" fill="#444444" font-family="Ubuntu Mono" font-size="8" text-anchor="start" x="5" y="183">[]</text></g><rect fill="none" height="180" stroke="#008080" width="286.0" x="0" y="8" /></g><g transform="translate(8,405.0)"><g><rect fill="#888888" height="20" stroke="#888888" width="286.0" x="0" y="8" /><text alignment-baseline="text-after-edge" fill="#ffffff" font-family="Trebuchet MS" font-size="10" text-anchor="start" x="5" y="23">Gratitude</text></g><g><line stroke="#d7d7d7" x1="0" x2="286.0" y1="51.0" y2="51.0" /></g><rect fill="none" height="43.0" stroke="#008080" width="286.0" x="0" y="8" /></g><g transform="translate(8,456.0)"><g><rect fill="none" height="20" stroke="none" width="286.0" x="0" y="8" /><text alignment-baseline="text-after-edge" fill="#444444" font-family="Ubuntu Mono" font-size="10" text-anchor="start" x="5" y="23">How can I embrace discomfort and grow today?</text></g><g><line stroke="#d7d7d7" x1="0" x2="286.0" y1="48" y2="48" /><line stroke="#d7d7d7" x1="0" x2="286.0" y1="68" y2="68" /><line stroke="#d7d7d7" x1="0" x2="286.0" y1="88" y2="88" /><line stroke="#d7d7d7" x1="0" x2="286.0" y1="108" y2="108" /></g><rect fill="none" height="100" stroke="#008080" width="286.0" x="0" y="8" /></g><g transform="translate(8,564.0)"><g><rect fill="none" height="20" stroke="none" width="286.0" x="0" y="8" /><text alignment-baseline="text-after-edge" fill="#444444" font-family="Ubuntu Mono" font-size="10" text-anchor="start" x="5" y="23">One achievement I take pride in:</text></g><g><line stroke="#d7d7d7" x1="0" x2="286.0" y1="48" y2="48" /><line stroke="#d7d7d7" x1="0" x2="286.0" y1="68" y2="68" /><line stroke="#d7d7d7" x1="0" x2="286.0" y1="88" y2="88" /></g><rect fill="none" height="80" stroke="#008080" width="286.0" x="0" y="8" /></g><g transform="translate(8,652.0)"><g><rect fill="none" height="20" stroke="none" width="286.0" x="0" y="8" /><text alignment-baseline="text-after-edge" fill="#444444" font-family="Ubuntu Mono" font-size="10" text-anchor="start" x="5" y="23">How can I move towards my ideal self?</text></g><g><line stroke="#d7d7d7" x1="0" x2="286.0" y1="48" y2="48" /><line stroke="#d7d7d7" x1="0" x2="286.0" y1="68" y2="68" /><line stroke="#d7d7d7" x1="0" x2="286.0" y1="88" y2="88" /><line stroke="#d7d7d7" x1="0" x2="286.0" y1="108" y2="108" /></g><rect fill="none" height="100" stroke="#008080" width="286.0" x="0" y="8" /></g></g></svg>