<?xml version="1.0" encoding="utf-8" ?>
<svg baseProfile="tiny" height="8.5in" version="1.2" width="11in" xmlns="http://www.w3.org/2000/svg" xmlns:ev="http://www.w3.org/2001/xml-events" xmlns:xlink="http://www.w3.org/1999/xlink"><defs /><g transform="translate(96, 24.0)"><rect fill="none" height="768.0" stroke="#008080" width="408.0" x="0" y="0" /><g transform="translate(8, 8)"><rect fill="none" height="24.4" stroke="#888888" stroke-width="1" width="392.0" x="0" y="0" /><text alignment-baseline="text-after-edge" fill="#444444" font-family="Ubuntu Mono" font-size="12" text-anchor="start" transform="translate(5,19.4)">Mon  Tue  Wed  Thu  Fri  Sat  Sun        /      /  20    </text></g><g transform="translate(8, 32.4)" /><g transform="translate(302.0,32.4)"><g><rect fill="none" height="20" stroke="none" width="98.0" x="0" y="8" /><text alignment-baseline="text-after-edge" fill="#444444" font-family="Trebuchet MS" font-size="10" text-anchor="start" x="5" y="23">Time Well Spent</text></g><g><text alignment-baseline="text-after-edge" fill="#444444" font-family="Ubuntu Mono" font-size="8" text-anchor="start" x="0" y="47.2">05:00</text><line stroke="#d7d7d7" x1="0" x2="98.0" y1="49.2" y2="49.2" /><line stroke="#d7d7d7" x1="0" x2="98.0" y1="70.4" y2="70.4" /><text alignment-baseline="text-after-edge" fill="#444444" font-family="Ubuntu Mono" font-size="8" text-anchor="start" x="0" y="89.6">06:00</text><line stroke="#d7d7d7" x1="0" x2="98.0" y1="91.6" y2="91.6" /><line stroke="#d7d7d7" x1="0" x2="98.0" y1="112.8" y2="112.8" /><text alignment-baseline="text-after-edge" fill="#444444" font-family="Ubuntu Mono" font-size="8" text-anchor="start" x="0" y="132.0">07:00</text><line stroke="#d7d7d7" x1="0" x2="98.0" y1="134.0" y2="134.0" /><line stroke="#d7d7d7" x1="0" x2="98.0" y1="155.2" y2="155.2" /><text alignment-baseline="text-after-edge" fill="#444444" font-family="Ubuntu Mono" font-size="8" text-anchor="start" x="0" y="174.39999999999998">08:00</text><line stroke="#d7d7d7" x1="0" x2="98.0" y1="176.39999999999998" y2="176.39999999999998" /><line stroke="#d7d7d7" x1="0" x2="98.0" y1="197.60000000000002" y2="197.60000000000002" /><text alignment-baseline="text-after-edge" fill="#444444" font-family="Ubuntu Mono" font-size="8" text-anchor="start" x="0" y="216.8">09:00</text><line stroke="#d7d7d7" x1="0" x2="98.0" y1="218.8" y2="218.8" /><line stroke="#d7d7d7" x1="0" x2="98.0" y1="240.0" y2="240.0" /><text alignment-baseline="text-after-edge" fill="#444444" font-family="Ubuntu Mono" font-size="8" text-anchor="start" x="0" y="259.2">10:00</text><line stroke="#d7d7d7" x1="0" x2="98.0" y1="261.2" y2="261.2" /><line stroke="#d7d7d7" x1="0" x2="98.0" y1="282.4" y2="282.4" /><text alignment-baseline="text-after-edge" fill="#444444" font-family="Ubuntu Mono" font-size="8" text-anchor="start" x="0" y="301.59999999999997">11:00</text><line stroke="#d7d7d7" x1="0" x2="98.0" y1="303.59999999999997" y2="303.59999999999997" /><line stroke="#d7d7d7" x1="0" x2="98.0" y1="324.79999999999995" y2="324.79999999999995" /><text alignment-baseline="text-after-edge" fill="#444444" font-family="Ubuntu Mono" font-size="8" text-anchor="start" x="0" y="344.0">12:00</text><line stroke="#d7d7d7" x1="0" x2="98.0" y1="346.0" y2="346.0" /><line stroke="#d7d7d7" x1="0" x2="98.0" y1="367.2" y2="367.2" /><text alignment-baseline="text-after-edge" fill="#444444" font-family="Ubuntu Mono" font-size="8" text-anchor="start" x="0" y="386.4">13:00</text><line stroke="#d7d7d7" x1="0" x2="98.0" y1="388.4" y2="388.4" /><line stroke="#d7d7d7" x1="0" x2="98.0" y1="409.59999999999997" y2="409.59999999999997" /><text alignment-baseline="text-after-edge" fill="#444444" font-family="Ubuntu Mono" font-size="8" text-anchor="start" x="0" y="428.79999999999995">14:00</text><line stroke="#d7d7d7" x1="0" x2="98.0" y1="430.79999999999995" y2="430.79999999999995" /><line stroke="#d7d7d7" x1="0" x2="98.0" y1="452.0" y2="452.0" /><text alignment-baseline="text-after-edge" fill="#444444" font-family="Ubuntu Mono" font-size="8" text-anchor="start" x="0" y="471.2">15:00</text><line stroke="#d7d7d7" x1="0" x2="98.0" y1="473.2" y2="473.2" /><line stroke="#d7d7d7" x1="0" x2="98.0" y1="494.4" y2="494.4" /><text alignment-baseline="text-after-edge" fill="#444444" font-family="Ubuntu Mono" font-size="8" text-anchor="start" x="0" y="513.6">16:00</text><line stroke="#d7d7d7" x1="0" x2="98.0" y1="515.6" y2="515.6" /><line stroke="#d7d7d7" x1="0" x2="98.0" y1="536.8" y2="536.8" /><text alignment-baseline="text-after-edge" fill="#444444" font-family="Ubuntu Mono" font-size="8" text-anchor="start" x="0" y="556.0">17:00</text><line stroke="#d7d7d7" x1="0" x2="98.0" y1="558.0" y2="558.0" /><line stroke="#d7d7d7" x1="0" x2="98.0" y1="579.2" y2="579.2" /><text alignment-baseline="text-after-edge" fill="#444444" font-family="Ubuntu Mono" font-size="8" text-anchor="start" x="0" y="598.4">18:00</text><line stroke="#d7d7d7" x1="0" x2="98.0" y1="600.4" y2="600.4" /><line stroke="#d7d7d7" x1="0" x2="98.0" y1="621.6" y2="621.6" /><text alignment-baseline="text-after-edge" fill="#444444" font-family="Ubuntu Mono" font-size="8" text-anchor="start" x="0" y="640.8000000000001">19:00</text><line stroke="#d7d7d7" x1="0" x2="98.0" y1="642.8000000000001" y2="642.8000000000001" /><line stroke="#d7d7d7" x1="0" x2="98.0" y1="664.0" y2="664.0" /><text alignment-baseline="text-after-edge" fill="#444444" font-family="Ubuntu Mono" font-size="8" text-anchor="start" x="0" y="683.2">20:00</text><line stroke="#d7d7d7" x1="0" x2="98.0" y1="685.2" y2="685.2" /><line stroke="#d7d7d7" x1="0" x2="98.0" y1="706.4" y2="706.4" /><text alignment-baseline="text-after-edge" fill="#444444" font-family="Ubuntu Mono" font-size="8" text-anchor="start" x="0" y="725.6">21:00</text><line stroke="#d7d7d7" x1="0" x2="98.0" y1="727.6" y2="727.6" /></g></g><g transform="translate(8,32.4)"><g><rect fill="#888888" height="20" stroke="#888888" width="286.0" x="0" y="8" /><text alignment-baseline="text-after-edge" fill="#ffffff" font-family="Trebuchet MS" font-size="10" text-anchor="start" x="5" y="23">Primary Efforts</text><text alignment-baseline="text-after-edge" fill="#ffffff" font-family="Trebuchet MS" font-size="10" text-anchor="start" x="147.0" y="23">Alignment</text></g><g><line stroke="#d7d7d7" x1="0" x2="286.0" y1="58" y2="58" /><line stroke="#d7d7d7" x1="0" x2="286.0" y1="88" y2="88" /><line stroke="#d7d7d7" x1="0" x2="286.0" y1="118" y2="118" /></g><rect fill="none" height="110" stroke="#008080" width="286.0" x="0" y="8" /></g><g transform="translate(8,150.4)"><rect fill="none" height="20" stroke="none" width="286.0" x="0" y="8" /><text alignment-baseline="text-after-edge" fill="#444444" font-family="Ubuntu Mono" font-size="10" text-anchor="start" x="5" y="23">[] Vision </text><text alignment-baseline="text-after-edge" fill="#444444" font-family="Ubuntu Mono" font-size="10" text-anchor="start" x="73.5" y="23">[] Goals</text><text alignment-baseline="text-after-edge" fill="#444444" font-family="Ubuntu Mono" font-size="10" text-anchor="start" x="147.0" y="23">[] Calendar</text><text alignment-baseline="text-after-edge" fill="#444444" font-family="Ubuntu Mono" font-size="10" text-anchor="start" x="220.5" y="23">[] Habit</text></g><g transform="translate(8,178.4)"><g><rect fill="#888888" height="20" stroke="#888888" width="286.0" x="0" y="8" /><text alignment-baseline="text-after-edge" fill="#ffffff" font-family="Trebuchet MS" font-size="10" text-anchor="start" x="5" y="23">Today I will pay most attention to:</text></g><g><line stroke="#d7d7d7" x1="0" x2="286.0" y1="54.80000000000001" y2="54.80000000000001" /></g><rect fill="none" height="46.80000000000001" stroke="#008080" width="286.0" x="0" y="8" /></g><g transform="translate(8,233.20000000000002)"><g><rect fill="#888888" height="20" stroke="#888888" width="286.0" x="0" y="8" /><text alignment-baseline="text-after-edge" fill="#ffffff" font-family="Trebuchet MS" font-size="10" text-anchor="start" x="5" y="23">To Do</text></g><g><line stroke="#d7d7d7" x1="0" x2="286.0" y1="58" y2="58" /><line stroke="#d7d7d7" x1="0" x2="286.0" y1="88" y2="88" /><line stroke="#d7d7d7" x1="0" x2="286.0" y1="118" y2="118" /><line stroke="#d7d7d7" x1="0" x2="286.0" y1="148" y2="148" /><text alignment-baseline="text-after-edge" fill="#444444" font-family="Ubuntu Mono" font-size="8" text-anchor="start" x="5" y="53">[]</text><text alignment-baseline="text-after-edge" fill="#444444" font-family="Ubuntu Mono" font-size="8" text-anchor="start" x="5" y="83">[]</text><text alignment-baseline="text-after-edge" fill="#444444" font-family="Ubuntu Mono" font-size="8" text-anchor="start" x="5" y="113">[]</text><text alignment-baseline="text-after-edge" fill="#444444" font-family="Ubuntu Mono" font-size="8" text-anchor="start" x="5" y="143">[]</text></g><rect fill="none" height="140" stroke="#008080" width="286.0" x="0" y="8" /></g><g transform="translate(8,381.20000000000005)"><g><rect fill="#888888" height="20" stroke="#888888" width="286.0" x="0" y="8" /><text alignment-baseline="text-after-edge" fill="#ffffff" font-family="Trebuchet MS" font-size="10" text-anchor="start" x="5" y="23">Gratitude</text></g><g><line stroke="#d7d7d7" x1="0" x2="286.0" y1="54.80000000000001" y2="54.80000000000001" /></g><rect fill="none" height="46.80000000000001" stroke="#008080" width="286.0" x="0" y="8" /></g><g transform="translate(8,436.00000000000006)"><g><rect fill="none" height="20" stroke="none" width="286.0" x="0" y="8" /><text alignment-baseline="text-after-edge" fill="#444444" font-family="Ubuntu Mono" font-size="10" text-anchor="start" x="5" y="23">Where can I invite more ease into my life?</text></g><g><line stroke="#d7d7d7" x1="0" x2="286.0" y1="58" y2="58" /><line stroke="#d7d7d7" x1="0" x2="286.0" y1="88" y2="88" /><line stroke="#d7d7d7" x1="0" x2="286.0" y1="118" y2="118" /></g><rect fill="none" height="110" stroke="#008080" width="286.0" x="0" y="8" /></g><g transform="translate(8,554.0)"><g><rect fill="none" height="20" stroke="none" width="286.0" x="0" y="8" /><text alignment-baseline="text-after-edge" fill="#444444" font-family="Ubuntu Mono" font-size="10" text-anchor="start" x="5" y="23">One achievement I take pride in:</text></g><g><line stroke="#d7d7d7" x1="0" x2="286.0" y1="58" y2="58" /><line stroke="#d7d7d7" x1="0" x2="286.0" y1="88" y2="88" /></g><rect fill="none" height="80" stroke="#008080" width="286.0" x="0" y="8" /></g><g transform="translate(8,642.0)"><g><rect fill="none" height="20" stroke="none" width="286.0" x="0" y="8" /><text alignment-baseline="text-after-edge" fill="#444444" font-family="Ubuntu Mono" font-size="10" text-anchor="start" x="5" y="23">In the last 24 hours...</text></g><g><line stroke="#d7d7d7" x1="0" x2="286.0" y1="58" y2="58" /><line stroke="#d7d7d7" x1="0" x2="286.0" y1="88" y2="88" /><line stroke="#d7d7d7" x1="0" x2="286.0" y1="118" y2="118" /></g><rect fill="none" height="110" stroke="#008080" width="286.0" x="0" y="8" /></g></g><g transform="translate(624.0, 24.0)"><rect fill="none" height="768.0" stroke="#008080" width="408.0" x="0" y="0" /><g transform="translate(8, 8)"><rect fill="none" height="38.8" stroke="#888888" stroke-width="1" width="392.0" x="0" y="0" /><text alignment-baseline="text-after-edge" fill="#444444" font-family="Trebuchet MS" font-size="12" text-anchor="start" transform="translate(5,19.4)">It’s not always that we need to do more, but rather that we need to</text><text alignment-baseline="text-after-edge" fill="#444444" font-family="Trebuchet MS" font-size="12" text-anchor="start" transform="translate(5,33.8)">focus on less. - Nathan W. Morris</text></g><g transform="translate(8, 46.8)"><g transform="translate(0,0)"><g><line stroke="#888888" stroke-dasharray="1,5" stroke-width="1" transform="translate(0,29.71666666666667)" x1="0" x2="392.0" y1="0" y2="0" /><line stroke="#888888" stroke-dasharray="1,5" stroke-width="1" transform="translate(0,59.43333333333334)" x1="0" x2="392.0" y1="0" y2="0" /><line stroke="#888888" stroke-dasharray="1,5" stroke-width="1" transform="translate(0,89.15)" x1="0" x2="392.0" y1="0" y2="0" /><line stroke="#888888" stroke-dasharray="1,5" stroke-width="1" transform="translate(0,118.86666666666667)" x1="0" x2="392.0" y1="0" y2="0" /><line stroke="#888888" stroke-dasharray="1,5" stroke-width="1" transform="translate(0,148.58333333333334)" x1="0" x2="392.0" y1="0" y2="0" /><line stroke="#888888" stroke-dasharray="1,5" stroke-width="1" transform="translate(0,178.3)" x1="0" x2="392.0" y1="0" y2="0" /><line stroke="#888888" stroke-dasharray="1,5" stroke-width="1" transform="translate(0,208.01666666666668)" x1="0" x2="392.0" y1="0" y2="0" /><line stroke="#888888" stroke-dasharray="1,5" stroke-width="1" transform="translate(0,237.73333333333335)" x1="0" x2="392.0" y1="0" y2="0" /><line stroke="#888888" stroke-dasharray="1,5" stroke-width="1" transform="translate(0,267.45000000000005)" x1="0" x2="392.0" y1="0" y2="0" /><line stroke="#888888" stroke-dasharray="1,5" stroke-width="1" transform="translate(0,297.16666666666674)" x1="0" x2="392.0" y1="0" y2="0" /><line stroke="#888888" stroke-dasharray="1,5" stroke-width="1" transform="translate(0,326.88333333333344)" x1="0" x2="392.0" y1="0" y2="0" /><line stroke="#888888" stroke-dasharray="1,5" stroke-width="1" transform="translate(0,356.60000000000014)" x1="0" x2="392.0" y1="0" y2="0" /><line stroke="#888888" stroke-dasharray="1,5" stroke-width="1" transform="translate(0,386.31666666666683)" x1="0" x2="392.0" y1="0" y2="0" /><line stroke="#888888" stroke-dasharray="1,5" stroke-width="1" transform="translate(0,416.03333333333353)" x1="0" x2="392.0" y1="0" y2="0" /><line stroke="#888888" stroke-dasharray="1,5" stroke-width="1" transform="translate(0,445.7500000000002)" x1="0" x2="392.0" y1="0" y2="0" /><line stroke="#888888" stroke-dasharray="1,5" stroke-width="1" transform="translate(0,475.4666666666669)" x1="0" x2="392.0" y1="0" y2="0" /><line stroke="#888888" stroke-dasharray="1,5" stroke-width="1" transform="translate(0,505.1833333333336)" x1="0" x2="392.0" y1="0" y2="0" /><line stroke="#888888" stroke-dasharray="1,5" stroke-width="1" transform="translate(0,534.9000000000003)" x1="0" x2="392.0" y1="0" y2="0" /><line stroke="#888888" stroke-dasharray="1,5" stroke-width="1" transform="translate(0,564.616666666667)" x1="0" x2="392.0" y1="0" y2="0" /><line stroke="#888888" stroke-dasharray="1,5" stroke-width="1" transform="translate(0,594.3333333333337)" x1="0" x2="392.0" y1="0" y2="0" /><line stroke="#888888" stroke-dasharray="1,5" stroke-width="1" transform="translate(0,624.0500000000004)" x1="0" x2="392.0" y1="0" y2="0" /><line stroke="#888888" stroke-dasharray="1,5" stroke-width="1" transform="translate(0,653.7666666666671)" x1="0" x2="392.0" y1="0" y2="0" /><line stroke="#888888" stroke-dasharray="1,5" stroke-width="1" transform="translate(0,683.4833333333338)" x1="0" x2="392.0" y1="0" y2="0" /><line stroke="#888888" stroke-dasharray="1,5" stroke-width="1" transform="translate(0,713.2000000000005)" x1="0" x2="392.0" y1="0" y2="0" /></g><g><line stroke="#888888" stroke-dasharray="1,0" stroke-width="1" transform="translate(0,19.81111111111111)" x1="0" x2="392.0" y1="0" y2="0" /><line stroke="#888888" stroke-dasharray="1,0" stroke-width="1" transform="translate(0,49.52777777777778)" x1="0" x2="392.0" y1="0" y2="0" /><line stroke="#888888" stroke-dasharray="1,0" stroke-width="1" transform="translate(0,79.24444444444444)" x1="0" x2="392.0" y1="0" y2="0" /><line stroke="#888888" stroke-dasharray="1,0" stroke-width="1" transform="translate(0,108.96111111111111)" x1="0" x2="392.0" y1="0" y2="0" /><line stroke="#888888" stroke-dasharray="1,0" stroke-width="1" transform="translate(0,138.67777777777778)" x1="0" x2="392.0" y1="0" y2="0" /><line stroke="#888888" stroke-dasharray="1,0" stroke-width="1" transform="translate(0,168.39444444444445)" x1="0" x2="392.0" y1="0" y2="0" /><line stroke="#888888" stroke-dasharray="1,0" stroke-width="1" transform="translate(0,198.11111111111111)" x1="0" x2="392.0" y1="0" y2="0" /><line stroke="#888888" stroke-dasharray="1,0" stroke-width="1" transform="translate(0,227.82777777777778)" x1="0" x2="392.0" y1="0" y2="0" /><line stroke="#888888" stroke-dasharray="1,0" stroke-width="1" transform="translate(0,257.5444444444445)" x1="0" x2="392.0" y1="0" y2="0" /><line stroke="#888888" stroke-dasharray="1,0" stroke-width="1" transform="translate(0,287.2611111111112)" x1="0" x2="392.0" y1="0" y2="0" /><line stroke="#888888" stroke-dasharray="1,0" stroke-width="1" transform="translate(0,316.9777777777779)" x1="0" x2="392.0" y1="0" y2="0" /><line stroke="#888888" stroke-dasharray="1,0" stroke-width="1" transform="translate(0,346.69444444444457)" x1="0" x2="392.0" y1="0" y2="0" /><line stroke="#888888" stroke-dasharray="1,0" stroke-width="1" transform="translate(0,376.41111111111127)" x1="0" x2="392.0" y1="0" y2="0" /><line stroke="#888888" stroke-dasharray="1,0" stroke-width="1" transform="translate(0,406.12777777777796)" x1="0" x2="392.0" y1="0" y2="0" /><line stroke="#888888" stroke-dasharray="1,0" stroke-width="1" transform="translate(0,435.84444444444466)" x1="0" x2="392.0" y1="0" y2="0" /><line stroke="#888888" stroke-dasharray="1,0" stroke-width="1" transform="translate(0,465.56111111111136)" x1="0" x2="392.0" y1="0" y2="0" /><line stroke="#888888" stroke-dasharray="1,0" stroke-width="1" transform="translate(0,495.27777777777806)" x1="0" x2="392.0" y1="0" y2="0" /><line stroke="#888888" stroke-dasharray="1,0" stroke-width="1" transform="translate(0,524.9944444444448)" x1="0" x2="392.0" y1="0" y2="0" /><line stroke="#888888" stroke-dasharray="1,0" stroke-width="1" transform="translate(0,554.7111111111114)" x1="0" x2="392.0" y1="0" y2="0" /><line stroke="#888888" stroke-dasharray="1,0" stroke-width="1" transform="translate(0,584.4277777777781)" x1="0" x2="392.0" y1="0" y2="0" /><line stroke="#888888" stroke-dasharray="1,0" stroke-width="1" transform="translate(0,614.1444444444448)" x1="0" x2="392.0" y1="0" y2="0" /><line stroke="#888888" stroke-dasharray="1,0" stroke-width="1" transform="translate(0,643.8611111111115)" x1="0" x2="392.0" y1="0" y2="0" /><line stroke="#888888" stroke-dasharray="1,0" stroke-width="1" transform="translate(0,673.5777777777782)" x1="0" x2="392.0" y1="0" y2="0" /><line stroke="#888888" stroke-dasharray="1,0" stroke-width="1" transform="translate(0,703.2944444444449)" x1="0" x2="392.0" y1="0" y2="0" /></g></g></g></g></svg>