<?xml version="1.0" encoding="utf-8" ?>
<svg baseProfile="tiny" height="8.5in" version="1.2" width="11in" xmlns="http://www.w3.org/2000/svg" xmlns:ev="http://www.w3.org/2001/xml-events" xmlns:xlink="http://www.w3.org/1999/xlink"><defs /><g transform="translate(96, 24.0)"><rect fill="none" height="768.0" stroke="#008080" width="408.0" x="0" y="0" /><g transform="translate(8, 8)"><rect fill="none" height="38" stroke="#888888" width="392.0" x="0" y="0" /><text alignment-baseline="text-after-edge" fill="#444444" font-family="Trebuchet MS" font-size="28" text-anchor="start" x="5" y="33">Goal #</text></g><g transform="translate(8,46)"><rect fill="none" height="19" stroke="none" width="392.0" x="0" y="8" /><text alignment-baseline="text-after-edge" fill="#444444" font-family="Ubuntu Mono" font-size="9" text-anchor="start" x="5" y="22">[] Specific  [] Measureable  [] Achievable  [] Relevant  [] Challenging</text></g><g transform="translate(8,73)"><g><rect fill="#888888" height="20" stroke="#888888" width="392.0" x="0" y="8" /><text alignment-baseline="text-after-edge" fill="#ffffff" font-family="Trebuchet MS" font-size="10" text-anchor="start" x="5" y="23">Critical Steps</text></g><g><line stroke="#d7d7d7" x1="0" x2="392.0" y1="48" y2="48" /><line stroke="#d7d7d7" x1="0" x2="392.0" y1="68" y2="68" /><line stroke="#d7d7d7" x1="0" x2="392.0" y1="88" y2="88" /><line stroke="#d7d7d7" x1="0" x2="392.0" y1="108" y2="108" /><line stroke="#d7d7d7" x1="0" x2="392.0" y1="128" y2="128" /><line stroke="#d7d7d7" x1="0" x2="392.0" y1="148" y2="148" /><line stroke="#d7d7d7" x1="0" x2="392.0" y1="168" y2="168" /><text alignment-baseline="text-after-edge" fill="#444444" font-family="Ubuntu Mono" font-size="8" text-anchor="start" x="5" y="43">[]</text><text alignment-baseline="text-after-edge" fill="#444444" font-family="Ubuntu Mono" font-size="8" text-anchor="start" x="5" y="63">[]</text><text alignment-baseline="text-after-edge" fill="#444444" font-family="Ubuntu Mono" font-size="8" text-anchor="start" x="5" y="83">[]</text><text alignment-baseline="text-after-edge" fill="#444444" font-family="Ubuntu Mono" font-size="8" text-anchor="start" x="5" y="103">[]</text><text alignment-baseline="text-after-edge" fill="#444444" font-family="Ubuntu Mono" font-size="8" text-anchor="start" x="5" y="123">[]</text><text alignment-baseline="text-after-edge" fill="#444444" font-family="Ubuntu Mono" font-size="8" text-anchor="start" x="5" y="143">[]</text><text alignment-baseline="text-after-edge" fill="#444444" font-family="Ubuntu Mono" font-size="8" text-anchor="start" x="5" y="163">[]</text></g><rect fill="none" height="160" stroke="#008080" width="392.0" x="0" y="8" /></g><g transform="translate(8,241)"><g><rect fill="#888888" height="20" stroke="#888888" width="392.0" x="0" y="8" /><text alignment-baseline="text-after-edge" fill="#ffffff" font-family="Trebuchet MS" font-size="10" text-anchor="start" x="5" y="23">Evaluation Metrics</text></g><g><line stroke="#d7d7d7" x1="0" x2="392.0" y1="48" y2="48" /><line stroke="#d7d7d7" x1="0" x2="392.0" y1="68" y2="68" /></g></g><g transform="translate(8,309)"><g><rect fill="none" height="20" stroke="none" width="392.0" x="0" y="8" /><text alignment-baseline="text-after-edge" fill="#444444" font-family="Trebuchet MS" font-size="10" text-anchor="start" x="5" y="23">Costs &amp; Challenges</text></g><g><line stroke="#d7d7d7" x1="0" x2="392.0" y1="48" y2="48" /><line stroke="#d7d7d7" x1="0" x2="392.0" y1="68" y2="68" /><line stroke="#d7d7d7" x1="0" x2="392.0" y1="88" y2="88" /><line stroke="#d7d7d7" x1="0" x2="392.0" y1="108" y2="108" /><line stroke="#d7d7d7" x1="0" x2="392.0" y1="128" y2="128" /><text alignment-baseline="text-after-edge" fill="#444444" font-family="Ubuntu Mono" font-size="8" text-anchor="start" x="5" y="43" /><text alignment-baseline="text-after-edge" fill="#444444" font-family="Ubuntu Mono" font-size="8" text-anchor="start" x="5" y="63" /><text alignment-baseline="text-after-edge" fill="#444444" font-family="Ubuntu Mono" font-size="8" text-anchor="start" x="5" y="83" /><text alignment-baseline="text-after-edge" fill="#444444" font-family="Ubuntu Mono" font-size="8" text-anchor="start" x="5" y="103" /><text alignment-baseline="text-after-edge" fill="#444444" font-family="Ubuntu Mono" font-size="8" text-anchor="start" x="5" y="123" /></g><rect fill="none" height="120" stroke="#008080" width="392.0" x="0" y="8" /></g><g transform="translate(8,437)"><g><rect fill="#888888" height="20" stroke="#888888" width="392.0" x="0" y="8" /><text alignment-baseline="text-after-edge" fill="#ffffff" font-family="Trebuchet MS" font-size="10" text-anchor="start" x="5" y="23">Monthly Benchmarks</text></g><g><line stroke="#d7d7d7" x1="0" x2="392.0" y1="48" y2="48" /><line stroke="#d7d7d7" x1="0" x2="392.0" y1="68" y2="68" /><line stroke="#d7d7d7" x1="0" x2="392.0" y1="88" y2="88" /><text alignment-baseline="text-after-edge" fill="#444444" font-family="Ubuntu Mono" font-size="8" text-anchor="start" x="5" y="43">Month 1:</text><text alignment-baseline="text-after-edge" fill="#444444" font-family="Ubuntu Mono" font-size="8" text-anchor="start" x="5" y="63">Month 2:</text><text alignment-baseline="text-after-edge" fill="#444444" font-family="Ubuntu Mono" font-size="8" text-anchor="start" x="5" y="83">Month 3:</text></g><rect fill="none" height="80" stroke="#008080" width="392.0" x="0" y="8" /></g><g transform="translate(8,525)"><g><rect fill="#888888" height="20" stroke="#888888" width="392.0" x="0" y="8" /><text alignment-baseline="text-after-edge" fill="#ffffff" font-family="Trebuchet MS" font-size="10" text-anchor="start" x="5" y="23">Impacts of Success</text></g><g><line stroke="#d7d7d7" x1="0" x2="392.0" y1="48" y2="48" /><line stroke="#d7d7d7" x1="0" x2="392.0" y1="68" y2="68" /><line stroke="#d7d7d7" x1="0" x2="392.0" y1="88" y2="88" /><text alignment-baseline="text-after-edge" fill="#444444" font-family="Ubuntu Mono" font-size="8" text-anchor="start" x="0" y="43" /><text alignment-baseline="text-after-edge" fill="#444444" font-family="Ubuntu Mono" font-size="8" text-anchor="start" x="0" y="63" /><text alignment-baseline="text-after-edge" fill="#444444" font-family="Ubuntu Mono" font-size="8" text-anchor="start" x="0" y="83" /></g></g><g transform="translate(8,613)"><g><rect fill="none" height="20" stroke="none" width="392.0" x="0" y="8" /><text alignment-baseline="text-after-edge" fill="#444444" font-family="Ubuntu Mono" font-size="10" text-anchor="start" x="5" y="23">Execution Plan</text></g><g><line stroke="#d7d7d7" x1="0" x2="392.0" y1="73.5" y2="73.5" /></g><rect fill="none" height="65.5" stroke="#008080" width="392.0" x="0" y="8" /></g><g transform="translate(8,686.5)"><g><rect fill="none" height="20" stroke="none" width="392.0" x="0" y="8" /><text alignment-baseline="text-after-edge" fill="#444444" font-family="Ubuntu Mono" font-size="10" text-anchor="start" x="5" y="23">Celebration Plan</text></g><g><line stroke="#d7d7d7" x1="0" x2="392.0" y1="73.5" y2="73.5" /></g><rect fill="none" height="65.5" stroke="#008080" width="392.0" x="0" y="8" /></g></g><g transform="translate(624.0, 24.0)"><rect fill="none" height="768.0" stroke="#008080" width="408.0" x="0" y="0" /><g transform="translate(8, 8)"><rect fill="none" height="38" stroke="#888888" width="392.0" x="0" y="0" /><text alignment-baseline="text-after-edge" fill="#444444" font-family="Trebuchet MS" font-size="28" text-anchor="start" x="5" y="33">Goal #</text></g><g transform="translate(8,46)"><rect fill="none" height="19" stroke="none" width="392.0" x="0" y="8" /><text alignment-baseline="text-after-edge" fill="#444444" font-family="Ubuntu Mono" font-size="9" text-anchor="start" x="5" y="22">[] Specific  [] Measureable  [] Achievable  [] Relevant  [] Challenging</text></g><g transform="translate(8,73)"><g><rect fill="#888888" height="20" stroke="#888888" width="392.0" x="0" y="8" /><text alignment-baseline="text-after-edge" fill="#ffffff" font-family="Trebuchet MS" font-size="10" text-anchor="start" x="5" y="23">Critical Steps</text></g><g><line stroke="#d7d7d7" x1="0" x2="392.0" y1="48" y2="48" /><line stroke="#d7d7d7" x1="0" x2="392.0" y1="68" y2="68" /><line stroke="#d7d7d7" x1="0" x2="392.0" y1="88" y2="88" /><line stroke="#d7d7d7" x1="0" x2="392.0" y1="108" y2="108" /><line stroke="#d7d7d7" x1="0" x2="392.0" y1="128" y2="128" /><line stroke="#d7d7d7" x1="0" x2="392.0" y1="148" y2="148" /><line stroke="#d7d7d7" x1="0" x2="392.0" y1="168" y2="168" /><text alignment-baseline="text-after-edge" fill="#444444" font-family="Ubuntu Mono" font-size="8" text-anchor="start" x="5" y="43">[]</text><text alignment-baseline="text-after-edge" fill="#444444" font-family="Ubuntu Mono" font-size="8" text-anchor="start" x="5" y="63">[]</text><text alignment-baseline="text-after-edge" fill="#444444" font-family="Ubuntu Mono" font-size="8" text-anchor="start" x="5" y="83">[]</text><text alignment-baseline="text-after-edge" fill="#444444" font-family="Ubuntu Mono" font-size="8" text-anchor="start" x="5" y="103">[]</text><text alignment-baseline="text-after-edge" fill="#444444" font-family="Ubuntu Mono" font-size="8" text-anchor="start" x="5" y="123">[]</text><text alignment-baseline="text-after-edge" fill="#444444" font-family="Ubuntu Mono" font-size="8" text-anchor="start" x="5" y="143">[]</text><text alignment-baseline="text-after-edge" fill="#444444" font-family="Ubuntu Mono" font-size="8" text-anchor="start" x="5" y="163">[]</text></g><rect fill="none" height="160" stroke="#008080" width="392.0" x="0" y="8" /></g><g transform="translate(8,241)"><g><rect fill="#888888" height="20" stroke="#888888" width="392.0" x="0" y="8" /><text alignment-baseline="text-after-edge" fill="#ffffff" font-family="Trebuchet MS" font-size="10" text-anchor="start" x="5" y="23">Evaluation Metrics</text></g><g><line stroke="#d7d7d7" x1="0" x2="392.0" y1="48" y2="48" /><line stroke="#d7d7d7" x1="0" x2="392.0" y1="68" y2="68" /></g></g><g transform="translate(8,309)"><g><rect fill="none" height="20" stroke="none" width="392.0" x="0" y="8" /><text alignment-baseline="text-after-edge" fill="#444444" font-family="Trebuchet MS" font-size="10" text-anchor="start" x="5" y="23">Costs &amp; Challenges</text></g><g><line stroke="#d7d7d7" x1="0" x2="392.0" y1="48" y2="48" /><line stroke="#d7d7d7" x1="0" x2="392.0" y1="68" y2="68" /><line stroke="#d7d7d7" x1="0" x2="392.0" y1="88" y2="88" /><line stroke="#d7d7d7" x1="0" x2="392.0" y1="108" y2="108" /><line stroke="#d7d7d7" x1="0" x2="392.0" y1="128" y2="128" /><text alignment-baseline="text-after-edge" fill="#444444" font-family="Ubuntu Mono" font-size="8" text-anchor="start" x="5" y="43" /><text alignment-baseline="text-after-edge" fill="#444444" font-family="Ubuntu Mono" font-size="8" text-anchor="start" x="5" y="63" /><text alignment-baseline="text-after-edge" fill="#444444" font-family="Ubuntu Mono" font-size="8" text-anchor="start" x="5" y="83" /><text alignment-baseline="text-after-edge" fill="#444444" font-family="Ubuntu Mono" font-size="8" text-anchor="start" x="5" y="103" /><text alignment-baseline="text-after-edge" fill="#444444" font-family="Ubuntu Mono" font-size="8" text-anchor="start" x="5" y="123" /></g><rect fill="none" height="120" stroke="#008080" width="392.0" x="0" y="8" /></g><g transform="translate(8,437)"><g><rect fill="#888888" height="20" stroke="#888888" width="392.0" x="0" y="8" /><text alignment-baseline="text-after-edge" fill="#ffffff" font-family="Trebuchet MS" font-size="10" text-anchor="start" x="5" y="23">Monthly Benchmarks</text></g><g><line stroke="#d7d7d7" x1="0" x2="392.0" y1="48" y2="48" /><line stroke="#d7d7d7" x1="0" x2="392.0" y1="68" y2="68" /><line stroke="#d7d7d7" x1="0" x2="392.0" y1="88" y2="88" /><text alignment-baseline="text-after-edge" fill="#444444" font-family="Ubuntu Mono" font-size="8" text-anchor="start" x="5" y="43">Month 1:</text><text alignment-baseline="text-after-edge" fill="#444444" font-family="Ubuntu Mono" font-size="8" text-anchor="start" x="5" y="63">Month 2:</text><text alignment-baseline="text-after-edge" fill="#444444" font-family="Ubuntu Mono" font-size="8" text-anchor="start" x="5" y="83">Month 3:</text></g><rect fill="none" height="80" stroke="#008080" width="392.0" x="0" y="8" /></g><g transform="translate(8,525)"><g><rect fill="#888888" height="20" stroke="#888888" width="392.0" x="0" y="8" /><text alignment-baseline="text-after-edge" fill="#ffffff" font-family="Trebuchet MS" font-size="10" text-anchor="start" x="5" y="23">Impacts of Success</text></g><g><line stroke="#d7d7d7" x1="0" x2="392.0" y1="48" y2="48" /><line stroke="#d7d7d7" x1="0" x2="392.0" y1="68" y2="68" /><line stroke="#d7d7d7" x1="0" x2="392.0" y1="88" y2="88" /><text alignment-baseline="text-after-edge" fill="#444444" font-family="Ubuntu Mono" font-size="8" text-anchor="start" x="0" y="43" /><text alignment-baseline="text-after-edge" fill="#444444" font-family="Ubuntu Mono" font-size="8" text-anchor="start" x="0" y="63" /><text alignment-baseline="text-after-edge" fill="#444444" font-family="Ubuntu Mono" font-size="8" text-anchor="start" x="0" y="83" /></g></g><g transform="translate(8,613)"><g><rect fill="none" height="20" stroke="none" width="392.0" x="0" y="8" /><text alignment-baseline="text-after-edge" fill="#444444" font-family="Ubuntu Mono" font-size="10" text-anchor="start" x="5" y="23">Execution Plan</text></g><g><line stroke="#d7d7d7" x1="0" x2="392.0" y1="73.5" y2="73.5" /></g><rect fill="none" height="65.5" stroke="#008080" width="392.0" x="0" y="8" /></g><g transform="translate(8,686.5)"><g><rect fill="none" height="20" stroke="none" width="392.0" x="0" y="8" /><text alignment-baseline="text-after-edge" fill="#444444" font-family="Ubuntu Mono" font-size="10" text-anchor="start" x="5" y="23">Celebration Plan</text></g><g><line stroke="#d7d7d7" x1="0" x2="392.0" y1="73.5" y2="73.5" /></g><rect fill="none" height="65.5" stroke="#008080" width="392.0" x="0" y="8" /></g></g></svg>