<?xml version="1.0" encoding="utf-8" ?>
<svg baseProfile="tiny" height="8.5in" version="1.2" width="11in" xmlns="http://www.w3.org/2000/svg" xmlns:ev="http://www.w3.org/2001/xml-events" xmlns:xlink="http://www.w3.org/1999/xlink"><defs /><g transform="translate(96, 24.0)"><rect fill="none" height="768.0" stroke="#008080" width="408.0" x="0" y="0" /><g transform="translate(8, 8)"><rect fill="none" height="48.4" stroke="#888888" stroke-width="1" width="392.0" x="0" y="0" /><text alignment-baseline="text-after-edge" fill="#444444" font-family="Trebuchet MS" font-size="32" text-anchor="start" transform="translate(5,43.4)">Goal #</text></g><g transform="translate(8, 56.4)"><g transform="translate(0,8)"><rect fill="none" height="19" stroke="none" width="392.0" x="0" y="0" /><text alignment-baseline="text-after-edge" fill="#444444" font-family="Ubuntu Mono" font-size="9" text-anchor="start" x="5" y="14">[] Specific  [] Measureable  [] Achievable  [] Relevant  [] Challenging</text></g><g transform="translate(0,35)"><g><rect fill="#888888" height="20" stroke="#888888" width="392.0" x="0" y="0" /><text alignment-baseline="text-after-edge" fill="#ffffff" font-family="Trebuchet MS" font-size="10" text-anchor="start" x="5" y="15">Critical Steps</text></g><g><line stroke="#d7d7d7" x1="0" x2="392.0" y1="50" y2="50" /><line stroke="#d7d7d7" x1="0" x2="392.0" y1="80" y2="80" /><line stroke="#d7d7d7" x1="0" x2="392.0" y1="110" y2="110" /><line stroke="#d7d7d7" x1="0" x2="392.0" y1="140" y2="140" /><text alignment-baseline="text-after-edge" fill="#444444" font-family="Ubuntu Mono" font-size="8" text-anchor="start" x="5" y="45">[]</text><text alignment-baseline="text-after-edge" fill="#444444" font-family="Ubuntu Mono" font-size="8" text-anchor="start" x="5" y="75">[]</text><text alignment-baseline="text-after-edge" fill="#444444" font-family="Ubuntu Mono" font-size="8" text-anchor="start" x="5" y="105">[]</text><text alignment-baseline="text-after-edge" fill="#444444" font-family="Ubuntu Mono" font-size="8" text-anchor="start" x="5" y="135">[]</text></g><rect fill="none" height="140" stroke="#008080" width="392.0" x="0" y="0" /></g><g transform="translate(0,183)"><g><rect fill="#888888" height="20" stroke="#888888" width="392.0" x="0" y="0" /><text alignment-baseline="text-after-edge" fill="#ffffff" font-family="Trebuchet MS" font-size="10" text-anchor="start" x="5" y="15">Evaluation Metrics</text></g><g><line stroke="#d7d7d7" x1="0" x2="392.0" y1="50" y2="50" /><line stroke="#d7d7d7" x1="0" x2="392.0" y1="80" y2="80" /></g></g><g transform="translate(0,271)"><g><rect fill="none" height="20" stroke="none" width="392.0" x="0" y="0" /><text alignment-baseline="text-after-edge" fill="#444444" font-family="Trebuchet MS" font-size="10" text-anchor="start" x="5" y="15">Costs &amp; Challenges</text></g><g><line stroke="#d7d7d7" x1="0" x2="392.0" y1="50" y2="50" /><line stroke="#d7d7d7" x1="0" x2="392.0" y1="80" y2="80" /><text alignment-baseline="text-after-edge" fill="#444444" font-family="Ubuntu Mono" font-size="8" text-anchor="start" x="5" y="45" /><text alignment-baseline="text-after-edge" fill="#444444" font-family="Ubuntu Mono" font-size="8" text-anchor="start" x="5" y="75" /></g><rect fill="none" height="80" stroke="#008080" width="392.0" x="0" y="0" /></g><g transform="translate(0,359)"><g><rect fill="#888888" height="20" stroke="#888888" width="392.0" x="0" y="0" /><text alignment-baseline="text-after-edge" fill="#ffffff" font-family="Trebuchet MS" font-size="10" text-anchor="start" x="5" y="15">Monthly Benchmarks</text></g><g><line stroke="#d7d7d7" x1="0" x2="392.0" y1="50" y2="50" /><line stroke="#d7d7d7" x1="0" x2="392.0" y1="80" y2="80" /><line stroke="#d7d7d7" x1="0" x2="392.0" y1="110" y2="110" /><text alignment-baseline="text-after-edge" fill="#444444" font-family="Ubuntu Mono" font-size="8" text-anchor="start" x="5" y="45">Month 1:</text><text alignment-baseline="text-after-edge" fill="#444444" font-family="Ubuntu Mono" font-size="8" text-anchor="start" x="5" y="75">Month 2:</text><text alignment-baseline="text-after-edge" fill="#444444" font-family="Ubuntu Mono" font-size="8" text-anchor="start" x="5" y="105">Month 3:</text></g><rect fill="none" height="110" stroke="#008080" width="392.0" x="0" y="0" /></g><g transform="translate(0,477)"><g><rect fill="#888888" height="20" stroke="#888888" width="392.0" x="0" y="0" /><text alignment-baseline="text-after-edge" fill="#ffffff" font-family="Trebuchet MS" font-size="10" text-anchor="start" x="5" y="15">Impacts of Success</text></g><g><line stroke="#d7d7d7" x1="0" x2="392.0" y1="50" y2="50" /><line stroke="#d7d7d7" x1="0" x2="392.0" y1="80" y2="80" /><text alignment-baseline="text-after-edge" fill="#444444" font-family="Ubuntu Mono" font-size="8" text-anchor="start" x="0" y="45" /><text alignment-baseline="text-after-edge" fill="#444444" font-family="Ubuntu Mono" font-size="8" text-anchor="start" x="0" y="75" /></g></g><g transform="translate(0,565)"><g><rect fill="none" height="20" stroke="none" width="392.0" x="0" y="0" /><text alignment-baseline="text-after-edge" fill="#444444" font-family="Ubuntu Mono" font-size="10" text-anchor="start" x="5" y="15">Execution Plan</text></g><g><line stroke="#d7d7d7" x1="0" x2="392.0" y1="73.30000000000001" y2="73.30000000000001" /></g><rect fill="none" height="73.30000000000001" stroke="#008080" width="392.0" x="0" y="0" /></g><g transform="translate(0,646.3)"><g><rect fill="none" height="20" stroke="none" width="392.0" x="0" y="0" /><text alignment-baseline="text-after-edge" fill="#444444" font-family="Ubuntu Mono" font-size="10" text-anchor="start" x="5" y="15">Celebration Plan</text></g><g><line stroke="#d7d7d7" x1="0" x2="392.0" y1="73.30000000000001" y2="73.30000000000001" /></g><rect fill="none" height="73.30000000000001" stroke="#008080" width="392.0" x="0" y="0" /></g></g></g><g transform="translate(624.0, 24.0)"><rect fill="none" height="768.0" stroke="#008080" width="408.0" x="0" y="0" /><g transform="translate(8, 8)"><rect fill="none" height="48.4" stroke="#888888" stroke-width="1" width="392.0" x="0" y="0" /><text alignment-baseline="text-after-edge" fill="#444444" font-family="Trebuchet MS" font-size="32" text-anchor="start" transform="translate(5,43.4)">Goal #</text></g><g transform="translate(8, 56.4)"><g transform="translate(0,8)"><rect fill="none" height="19" stroke="none" width="392.0" x="0" y="0" /><text alignment-baseline="text-after-edge" fill="#444444" font-family="Ubuntu Mono" font-size="9" text-anchor="start" x="5" y="14">[] Specific  [] Measureable  [] Achievable  [] Relevant  [] Challenging</text></g><g transform="translate(0,35)"><g><rect fill="#888888" height="20" stroke="#888888" width="392.0" x="0" y="0" /><text alignment-baseline="text-after-edge" fill="#ffffff" font-family="Trebuchet MS" font-size="10" text-anchor="start" x="5" y="15">Critical Steps</text></g><g><line stroke="#d7d7d7" x1="0" x2="392.0" y1="50" y2="50" /><line stroke="#d7d7d7" x1="0" x2="392.0" y1="80" y2="80" /><line stroke="#d7d7d7" x1="0" x2="392.0" y1="110" y2="110" /><line stroke="#d7d7d7" x1="0" x2="392.0" y1="140" y2="140" /><text alignment-baseline="text-after-edge" fill="#444444" font-family="Ubuntu Mono" font-size="8" text-anchor="start" x="5" y="45">[]</text><text alignment-baseline="text-after-edge" fill="#444444" font-family="Ubuntu Mono" font-size="8" text-anchor="start" x="5" y="75">[]</text><text alignment-baseline="text-after-edge" fill="#444444" font-family="Ubuntu Mono" font-size="8" text-anchor="start" x="5" y="105">[]</text><text alignment-baseline="text-after-edge" fill="#444444" font-family="Ubuntu Mono" font-size="8" text-anchor="start" x="5" y="135">[]</text></g><rect fill="none" height="140" stroke="#008080" width="392.0" x="0" y="0" /></g><g transform="translate(0,183)"><g><rect fill="#888888" height="20" stroke="#888888" width="392.0" x="0" y="0" /><text alignment-baseline="text-after-edge" fill="#ffffff" font-family="Trebuchet MS" font-size="10" text-anchor="start" x="5" y="15">Evaluation Metrics</text></g><g><line stroke="#d7d7d7" x1="0" x2="392.0" y1="50" y2="50" /><line stroke="#d7d7d7" x1="0" x2="392.0" y1="80" y2="80" /></g></g><g transform="translate(0,271)"><g><rect fill="none" height="20" stroke="none" width="392.0" x="0" y="0" /><text alignment-baseline="text-after-edge" fill="#444444" font-family="Trebuchet MS" font-size="10" text-anchor="start" x="5" y="15">Costs &amp; Challenges</text></g><g><line stroke="#d7d7d7" x1="0" x2="392.0" y1="50" y2="50" /><line stroke="#d7d7d7" x1="0" x2="392.0" y1="80" y2="80" /><text alignment-baseline="text-after-edge" fill="#444444" font-family="Ubuntu Mono" font-size="8" text-anchor="start" x="5" y="45" /><text alignment-baseline="text-after-edge" fill="#444444" font-family="Ubuntu Mono" font-size="8" text-anchor="start" x="5" y="75" /></g><rect fill="none" height="80" stroke="#008080" width="392.0" x="0" y="0" /></g><g transform="translate(0,359)"><g><rect fill="#888888" height="20" stroke="#888888" width="392.0" x="0" y="0" /><text alignment-baseline="text-after-edge" fill="#ffffff" font-family="Trebuchet MS" font-size="10" text-anchor="start" x="5" y="15">Monthly Benchmarks</text></g><g><line stroke="#d7d7d7" x1="0" x2="392.0" y1="50" y2="50" /><line stroke="#d7d7d7" x1="0" x2="392.0" y1="80" y2="80" /><line stroke="#d7d7d7" x1="0" x2="392.0" y1="110" y2="110" /><text alignment-baseline="text-after-edge" fill="#444444" font-family="Ubuntu Mono" font-size="8" text-anchor="start" x="5" y="45">Month 1:</text><text alignment-baseline="text-after-edge" fill="#444444" font-family="Ubuntu Mono" font-size="8" text-anchor="start" x="5" y="75">Month 2:</text><text alignment-baseline="text-after-edge" fill="#444444" font-family="Ubuntu Mono" font-size="8" text-anchor="start" x="5" y="105">Month 3:</text></g><rect fill="none" height="110" stroke="#008080" width="392.0" x="0" y="0" /></g><g transform="translate(0,477)"><g><rect fill="#888888" height="20" stroke="#888888" width="392.0" x="0" y="0" /><text alignment-baseline="text-after-edge" fill="#ffffff" font-family="Trebuchet MS" font-size="10" text-anchor="start" x="5" y="15">Impacts of Success</text></g><g><line stroke="#d7d7d7" x1="0" x2="392.0" y1="50" y2="50" /><line stroke="#d7d7d7" x1="0" x2="392.0" y1="80" y2="80" /><text alignment-baseline="text-after-edge" fill="#444444" font-family="Ubuntu Mono" font-size="8" text-anchor="start" x="0" y="45" /><text alignment-baseline="text-after-edge" fill="#444444" font-family="Ubuntu Mono" font-size="8" text-anchor="start" x="0" y="75" /></g></g><g transform="translate(0,565)"><g><rect fill="none" height="20" stroke="none" width="392.0" x="0" y="0" /><text alignment-baseline="text-after-edge" fill="#444444" font-family="Ubuntu Mono" font-size="10" text-anchor="start" x="5" y="15">Execution Plan</text></g><g><line stroke="#d7d7d7" x1="0" x2="392.0" y1="73.30000000000001" y2="73.30000000000001" /></g><rect fill="none" height="73.30000000000001" stroke="#008080" width="392.0" x="0" y="0" /></g><g transform="translate(0,646.3)"><g><rect fill="none" height="20" stroke="none" width="392.0" x="0" y="0" /><text alignment-baseline="text-after-edge" fill="#444444" font-family="Ubuntu Mono" font-size="10" text-anchor="start" x="5" y="15">Celebration Plan</text></g><g><line stroke="#d7d7d7" x1="0" x2="392.0" y1="73.30000000000001" y2="73.30000000000001" /></g><rect fill="none" height="73.30000000000001" stroke="#008080" width="392.0" x="0" y="0" /></g></g></g></svg>