<?xml version="1.0" encoding="utf-8" ?>
<svg baseProfile="tiny" height="8.5in" version="1.2" width="11in" xmlns="http://www.w3.org/2000/svg" xmlns:ev="http://www.w3.org/2001/xml-events" xmlns:xlink="http://www.w3.org/1999/xlink"><defs /><g transform="translate(96, 24.0)"><rect fill="none" height="768.0" stroke="#008080" width="408.0" x="0" y="0" /><g transform="translate(8, 8)"><rect fill="none" height="24.4" stroke="#888888" stroke-width="1" width="392.0" x="0" y="0" /><text alignment-baseline="text-after-edge" fill="#444444" font-family="Trebuchet MS" font-size="12" text-anchor="start" transform="translate(5,19.4)">Last week I built momentum:    disagree  -2  -1   0  +1  +2  agree</text></g><g transform="translate(8, 32.4)"><g transform="translate(0,8)"><g><g transform="translate(0,0)"><text alignment-baseline="text-after-edge" fill="#444444" font-family="Ubuntu Mono" font-size="10" text-anchor="start" transform="translate(5,17.0)">Notable achievements from last week include:</text></g><g transform="translate(0,22.0)"><g><line stroke="#888888" stroke-dasharray="1,5" stroke-width="1" transform="translate(0,30.0)" x1="0" x2="392.0" y1="0" y2="0" /><line stroke="#888888" stroke-dasharray="1,5" stroke-width="1" transform="translate(0,60.0)" x1="0" x2="392.0" y1="0" y2="0" /></g><g><line stroke="#888888" stroke-dasharray="1,0" stroke-width="1" transform="translate(0,20.0)" x1="0" x2="392.0" y1="0" y2="0" /><line stroke="#888888" stroke-dasharray="1,0" stroke-width="1" transform="translate(0,50.0)" x1="0" x2="392.0" y1="0" y2="0" /></g></g></g></g><g transform="translate(0,98.0)"><rect fill="none" height="112.0" stroke="#888888" stroke-width="1" width="392.0" x="0" y="0" /><g><g transform="translate(0,0)"><rect fill="#888888" height="22.0" stroke="#888888" stroke-width="1" width="392.0" x="0" y="0" /><text alignment-baseline="text-after-edge" fill="#ffffff" font-family="Trebuchet MS" font-size="10" text-anchor="start" transform="translate(5,17.0)">Lessons Learned From Last Week</text></g><g transform="translate(0,22.0)"><g><line stroke="#888888" stroke-dasharray="1,5" stroke-width="1" transform="translate(0,30.0)" x1="0" x2="392.0" y1="0" y2="0" /><line stroke="#888888" stroke-dasharray="1,5" stroke-width="1" transform="translate(0,60.0)" x1="0" x2="392.0" y1="0" y2="0" /><line stroke="#888888" stroke-dasharray="1,5" stroke-width="1" transform="translate(0,90.0)" x1="0" x2="392.0" y1="0" y2="0" /></g><g><line stroke="#888888" stroke-dasharray="1,0" stroke-width="1" transform="translate(0,20.0)" x1="0" x2="392.0" y1="0" y2="0" /><line stroke="#888888" stroke-dasharray="1,0" stroke-width="1" transform="translate(0,50.0)" x1="0" x2="392.0" y1="0" y2="0" /><line stroke="#888888" stroke-dasharray="1,0" stroke-width="1" transform="translate(0,80.0)" x1="0" x2="392.0" y1="0" y2="0" /></g></g></g></g><g transform="translate(0,218.0)"><g><g transform="translate(0,0)"><rect fill="#888888" height="22.0" stroke="#888888" stroke-width="1" width="392.0" x="0" y="0" /><text alignment-baseline="text-after-edge" fill="#ffffff" font-family="Trebuchet MS" font-size="10" text-anchor="start" transform="translate(5,17.0)">Unfinished Business</text></g><g transform="translate(0,22.0)"><g><line stroke="#888888" stroke-dasharray="1,5" stroke-width="1" transform="translate(0,30.0)" x1="0" x2="392.0" y1="0" y2="0" /><line stroke="#888888" stroke-dasharray="1,5" stroke-width="1" transform="translate(0,60.0)" x1="0" x2="392.0" y1="0" y2="0" /></g><g><line stroke="#888888" stroke-dasharray="1,0" stroke-width="1" transform="translate(0,20.0)" x1="0" x2="392.0" y1="0" y2="0" /><line stroke="#888888" stroke-dasharray="1,0" stroke-width="1" transform="translate(0,50.0)" x1="0" x2="392.0" y1="0" y2="0" /></g></g></g></g><g transform="translate(0,308.0)"><g transform="translate(0,0)"><rect fill="#d7d7d7" height="22.0" stroke="#d7d7d7" stroke-width="1" width="392.0" x="0" y="0" /><text alignment-baseline="text-after-edge" fill="#444444" font-family="Trebuchet MS" font-size="10" text-anchor="start" transform="translate(5,17.0)">Visualize Your Week</text></g><g transform="translate(0,22.0)"><rect fill="none" height="150.0" stroke="#888888" stroke-width="1" width="392.0" x="0" y="0" /><g><g transform="translate(0,0)"><text alignment-baseline="text-after-edge" fill="#444444" font-family="Ubuntu Mono" font-size="10" text-anchor="start" transform="translate(5,17.0)">Sketch a visual of your expectations for the week.</text></g><g transform="translate(0,22.0)"><g><line stroke="#888888" stroke-dasharray="1,5" stroke-width="1" transform="translate(0,128.0)" x1="0" x2="392.0" y1="0" y2="0" /></g><g><line stroke="#888888" stroke-dasharray="1,0" stroke-width="1" transform="translate(0,85.33333333333334)" x1="0" x2="392.0" y1="0" y2="0" /></g></g></g></g></g><g transform="translate(0,488.0)"><rect fill="none" height="89.60000000000002" stroke="#888888" stroke-width="1" width="392.0" x="0" y="0" /><g><g transform="translate(0,0)"><rect fill="#888888" height="22.0" stroke="#888888" stroke-width="1" width="392.0" x="0" y="0" /><text alignment-baseline="text-after-edge" fill="#ffffff" font-family="Trebuchet MS" font-size="10" text-anchor="start" transform="translate(5,17.0)">I appreciate...</text></g><g transform="translate(0,22.0)"><g><line stroke="#888888" stroke-dasharray="1,5" stroke-width="1" transform="translate(0,67.60000000000002)" x1="0" x2="392.0" y1="0" y2="0" /></g><g><line stroke="#888888" stroke-dasharray="1,0" stroke-width="1" transform="translate(0,45.06666666666668)" x1="0" x2="392.0" y1="0" y2="0" /></g></g></g></g><g transform="translate(0,585.6)"><g><g transform="translate(0,0)"><text alignment-baseline="text-after-edge" fill="#444444" font-family="Ubuntu Mono" font-size="10" text-anchor="start" transform="translate(5,17.0)">What do I need to prioritize for growth?</text></g><g transform="translate(0,22.0)"><g><line stroke="#888888" stroke-dasharray="1,5" stroke-width="1" transform="translate(0,30.0)" x1="0" x2="392.0" y1="0" y2="0" /><line stroke="#888888" stroke-dasharray="1,5" stroke-width="1" transform="translate(0,60.0)" x1="0" x2="392.0" y1="0" y2="0" /></g><g><line stroke="#888888" stroke-dasharray="1,0" stroke-width="1" transform="translate(0,20.0)" x1="0" x2="392.0" y1="0" y2="0" /><line stroke="#888888" stroke-dasharray="1,0" stroke-width="1" transform="translate(0,50.0)" x1="0" x2="392.0" y1="0" y2="0" /></g></g></g></g><g transform="translate(0,675.6)"><rect fill="none" height="52.0" stroke="#888888" stroke-width="1" width="392.0" x="0" y="0" /><g><g transform="translate(0,0)"><rect fill="none" height="22.0" stroke="#888888" stroke-width="1" width="392.0" x="0" y="0" /><text alignment-baseline="text-after-edge" fill="#444444" font-family="Ubuntu Mono" font-size="10" text-anchor="start" transform="translate(5,17.0)">In the coming week, I’m eager to experience:</text></g><g transform="translate(0,22.0)"><g><line stroke="#888888" stroke-dasharray="1,5" stroke-width="1" transform="translate(0,30.0)" x1="0" x2="392.0" y1="0" y2="0" /></g><g><line stroke="#888888" stroke-dasharray="1,0" stroke-width="1" transform="translate(0,20.0)" x1="0" x2="392.0" y1="0" y2="0" /></g></g></g></g></g></g><g transform="translate(624.0, 24.0)"><rect fill="none" height="768.0" stroke="#008080" width="408.0" x="0" y="0" /><g transform="translate(8, 8)"><rect fill="none" height="24.4" stroke="#888888" stroke-width="1" width="392.0" x="0" y="0" /><text alignment-baseline="text-after-edge" fill="#444444" font-family="Trebuchet MS" font-size="12" text-anchor="start" transform="translate(5,19.4)">Goals for Week:                   /      /  20          →            /      /  20    </text></g><g transform="translate(8, 32.4)"><g transform="translate(0,8)"><g><rect fill="none" height="20" stroke="#888888" width="392.0" x="0" y="0" /><text alignment-baseline="text-after-edge" fill="#444444" font-family="Ubuntu Mono" font-size="10" text-anchor="start" x="5" y="15">Habit</text><text alignment-baseline="text-after-edge" fill="#444444" font-family="Ubuntu Mono" font-size="10" text-anchor="start" x="137.0" y="15">Target</text><text alignment-baseline="text-after-edge" fill="#444444" font-family="Ubuntu Mono" font-size="10" text-anchor="start" x="177.0" y="15">Mon</text><text alignment-baseline="text-after-edge" fill="#444444" font-family="Ubuntu Mono" font-size="10" text-anchor="start" x="202.0" y="15">Tue</text><text alignment-baseline="text-after-edge" fill="#444444" font-family="Ubuntu Mono" font-size="10" text-anchor="start" x="227.0" y="15">Wed</text><text alignment-baseline="text-after-edge" fill="#444444" font-family="Ubuntu Mono" font-size="10" text-anchor="start" x="252.0" y="15">Thu</text><text alignment-baseline="text-after-edge" fill="#444444" font-family="Ubuntu Mono" font-size="10" text-anchor="start" x="277.0" y="15">Fri</text><text alignment-baseline="text-after-edge" fill="#444444" font-family="Ubuntu Mono" font-size="10" text-anchor="start" x="302.0" y="15">Sat</text><text alignment-baseline="text-after-edge" fill="#444444" font-family="Ubuntu Mono" font-size="10" text-anchor="start" x="327.0" y="15">Sun</text><text alignment-baseline="text-after-edge" fill="#444444" font-family="Ubuntu Mono" font-size="10" text-anchor="start" x="352.0" y="15">Tally</text></g><g><line stroke="#d7d7d7" x1="0" x2="134.5" y1="50" y2="50" /><line stroke="#d7d7d7" x1="139.5" x2="174.5" y1="50" y2="50" /><line stroke="#d7d7d7" x1="179.5" x2="199.5" y1="50" y2="50" /><line stroke="#d7d7d7" x1="204.5" x2="224.5" y1="50" y2="50" /><line stroke="#d7d7d7" x1="229.5" x2="249.5" y1="50" y2="50" /><line stroke="#d7d7d7" x1="254.5" x2="274.5" y1="50" y2="50" /><line stroke="#d7d7d7" x1="279.5" x2="299.5" y1="50" y2="50" /><line stroke="#d7d7d7" x1="304.5" x2="324.5" y1="50" y2="50" /><line stroke="#d7d7d7" x1="329.5" x2="349.5" y1="50" y2="50" /><line stroke="#d7d7d7" x1="354.5" x2="392.0" y1="50" y2="50" /><line stroke="#d7d7d7" x1="0" x2="134.5" y1="80" y2="80" /><line stroke="#d7d7d7" x1="139.5" x2="174.5" y1="80" y2="80" /><line stroke="#d7d7d7" x1="179.5" x2="199.5" y1="80" y2="80" /><line stroke="#d7d7d7" x1="204.5" x2="224.5" y1="80" y2="80" /><line stroke="#d7d7d7" x1="229.5" x2="249.5" y1="80" y2="80" /><line stroke="#d7d7d7" x1="254.5" x2="274.5" y1="80" y2="80" /><line stroke="#d7d7d7" x1="279.5" x2="299.5" y1="80" y2="80" /><line stroke="#d7d7d7" x1="304.5" x2="324.5" y1="80" y2="80" /><line stroke="#d7d7d7" x1="329.5" x2="349.5" y1="80" y2="80" /><line stroke="#d7d7d7" x1="354.5" x2="392.0" y1="80" y2="80" /><line stroke="#d7d7d7" x1="0" x2="134.5" y1="110" y2="110" /><line stroke="#d7d7d7" x1="139.5" x2="174.5" y1="110" y2="110" /><line stroke="#d7d7d7" x1="179.5" x2="199.5" y1="110" y2="110" /><line stroke="#d7d7d7" x1="204.5" x2="224.5" y1="110" y2="110" /><line stroke="#d7d7d7" x1="229.5" x2="249.5" y1="110" y2="110" /><line stroke="#d7d7d7" x1="254.5" x2="274.5" y1="110" y2="110" /><line stroke="#d7d7d7" x1="279.5" x2="299.5" y1="110" y2="110" /><line stroke="#d7d7d7" x1="304.5" x2="324.5" y1="110" y2="110" /><line stroke="#d7d7d7" x1="329.5" x2="349.5" y1="110" y2="110" /><line stroke="#d7d7d7" x1="354.5" x2="392.0" y1="110" y2="110" /><line stroke="#d7d7d7" x1="0" x2="134.5" y1="140" y2="140" /><line stroke="#d7d7d7" x1="139.5" x2="174.5" y1="140" y2="140" /><line stroke="#d7d7d7" x1="179.5" x2="199.5" y1="140" y2="140" /><line stroke="#d7d7d7" x1="204.5" x2="224.5" y1="140" y2="140" /><line stroke="#d7d7d7" x1="229.5" x2="249.5" y1="140" y2="140" /><line stroke="#d7d7d7" x1="254.5" x2="274.5" y1="140" y2="140" /><line stroke="#d7d7d7" x1="279.5" x2="299.5" y1="140" y2="140" /><line stroke="#d7d7d7" x1="304.5" x2="324.5" y1="140" y2="140" /><line stroke="#d7d7d7" x1="329.5" x2="349.5" y1="140" y2="140" /><line stroke="#d7d7d7" x1="354.5" x2="392.0" y1="140" y2="140" /><line stroke="#d7d7d7" x1="0" x2="134.5" y1="170" y2="170" /><line stroke="#d7d7d7" x1="139.5" x2="174.5" y1="170" y2="170" /><line stroke="#d7d7d7" x1="179.5" x2="199.5" y1="170" y2="170" /><line stroke="#d7d7d7" x1="204.5" x2="224.5" y1="170" y2="170" /><line stroke="#d7d7d7" x1="229.5" x2="249.5" y1="170" y2="170" /><line stroke="#d7d7d7" x1="254.5" x2="274.5" y1="170" y2="170" /><line stroke="#d7d7d7" x1="279.5" x2="299.5" y1="170" y2="170" /><line stroke="#d7d7d7" x1="304.5" x2="324.5" y1="170" y2="170" /><line stroke="#d7d7d7" x1="329.5" x2="349.5" y1="170" y2="170" /><line stroke="#d7d7d7" x1="354.5" x2="392.0" y1="170" y2="170" /><line stroke="#d7d7d7" x1="0" x2="134.5" y1="200" y2="200" /><line stroke="#d7d7d7" x1="139.5" x2="174.5" y1="200" y2="200" /><line stroke="#d7d7d7" x1="179.5" x2="199.5" y1="200" y2="200" /><line stroke="#d7d7d7" x1="204.5" x2="224.5" y1="200" y2="200" /><line stroke="#d7d7d7" x1="229.5" x2="249.5" y1="200" y2="200" /><line stroke="#d7d7d7" x1="254.5" x2="274.5" y1="200" y2="200" /><line stroke="#d7d7d7" x1="279.5" x2="299.5" y1="200" y2="200" /><line stroke="#d7d7d7" x1="304.5" x2="324.5" y1="200" y2="200" /><line stroke="#d7d7d7" x1="329.5" x2="349.5" y1="200" y2="200" /><line stroke="#d7d7d7" x1="354.5" x2="392.0" y1="200" y2="200" /></g><rect fill="none" height="200" stroke="#008080" width="392.0" x="0" y="0" /></g><g transform="translate(0,216)"><g transform="translate(0, 0)"><g><rect fill="#888888" height="20" stroke="#888888" width="188.0" x="0" y="0" /><text alignment-baseline="text-after-edge" fill="#ffffff" font-family="Trebuchet MS" font-size="10" text-anchor="start" x="5" y="15">Goal 1</text></g><g><line stroke="#d7d7d7" x1="0" x2="188.0" y1="50" y2="50" /><line stroke="#d7d7d7" x1="0" x2="188.0" y1="80" y2="80" /><line stroke="#d7d7d7" x1="0" x2="188.0" y1="110" y2="110" /></g></g><g transform="translate(196.0, 0)"><g><rect fill="#888888" height="20" stroke="#888888" width="188.0" x="8" y="0" /><text alignment-baseline="text-after-edge" fill="#ffffff" font-family="Trebuchet MS" font-size="10" text-anchor="start" x="13" y="15">Goal 2</text></g><g><line stroke="#d7d7d7" x1="8" x2="196.0" y1="50" y2="50" /><line stroke="#d7d7d7" x1="8" x2="196.0" y1="80" y2="80" /><line stroke="#d7d7d7" x1="8" x2="196.0" y1="110" y2="110" /></g></g></g><g transform="translate(0,334)"><g transform="translate(0, 0)"><g><rect fill="#888888" height="20" stroke="#888888" width="188.0" x="0" y="0" /><text alignment-baseline="text-after-edge" fill="#ffffff" font-family="Trebuchet MS" font-size="10" text-anchor="start" x="5" y="15">Goal 3</text></g><g><line stroke="#d7d7d7" x1="0" x2="188.0" y1="50" y2="50" /><line stroke="#d7d7d7" x1="0" x2="188.0" y1="80" y2="80" /><line stroke="#d7d7d7" x1="0" x2="188.0" y1="110" y2="110" /></g></g><g transform="translate(196.0, 0)"><g><rect fill="#888888" height="20" stroke="#888888" width="188.0" x="8" y="0" /><text alignment-baseline="text-after-edge" fill="#ffffff" font-family="Trebuchet MS" font-size="10" text-anchor="start" x="13" y="15">Goal 4</text></g><g><line stroke="#d7d7d7" x1="8" x2="196.0" y1="50" y2="50" /><line stroke="#d7d7d7" x1="8" x2="196.0" y1="80" y2="80" /><line stroke="#d7d7d7" x1="8" x2="196.0" y1="110" y2="110" /></g></g></g><g transform="translate(0,452)"><rect fill="none" height="20" stroke="none" width="384.0" x="0" y="0" /><text alignment-baseline="text-after-edge" fill="#444444" font-family="Ubuntu Mono" font-size="10" text-anchor="start" x="5" y="15">[] Specific</text><text alignment-baseline="text-after-edge" fill="#444444" font-family="Ubuntu Mono" font-size="10" text-anchor="start" x="130.66666666666666" y="15">[] Measurable</text><text alignment-baseline="text-after-edge" fill="#444444" font-family="Ubuntu Mono" font-size="10" text-anchor="start" x="261.3333333333333" y="15">[] Achieveable</text></g><g transform="translate(0,480)"><rect fill="#d7d7d7" height="20" stroke="#888888" width="392.0" x="0" y="0" /><text alignment-baseline="text-after-edge" fill="#444444" font-family="Trebuchet MS" font-size="10" text-anchor="start" x="5" y="15">How can I find the most fulfillment in these areas?</text></g><g transform="translate(0,508)"><g><rect fill="#888888" height="20" stroke="#888888" width="392.0" x="0" y="0" /><text alignment-baseline="text-after-edge" fill="#ffffff" font-family="Trebuchet MS" font-size="10" text-anchor="start" x="5" y="15">Health</text><text alignment-baseline="text-after-edge" fill="#ffffff" font-family="Trebuchet MS" font-size="10" text-anchor="start" x="196.0" y="15">Connections</text></g><g><line stroke="#d7d7d7" x1="0" x2="392.0" y1="105.80000000000001" y2="105.80000000000001" /></g><rect fill="none" height="105.80000000000001" stroke="#008080" width="392.0" x="0" y="0" /></g><g transform="translate(0,621.8)"><g><rect fill="#888888" height="20" stroke="#888888" width="392.0" x="0" y="0" /><text alignment-baseline="text-after-edge" fill="#ffffff" font-family="Trebuchet MS" font-size="10" text-anchor="start" x="5" y="15">Enjoyment</text><text alignment-baseline="text-after-edge" fill="#ffffff" font-family="Trebuchet MS" font-size="10" text-anchor="start" x="196.0" y="15">Job</text></g><g><line stroke="#d7d7d7" x1="0" x2="392.0" y1="105.80000000000001" y2="105.80000000000001" /></g><rect fill="none" height="105.80000000000001" stroke="#008080" width="392.0" x="0" y="0" /></g></g></g></svg>