<?xml version="1.0" encoding="utf-8" ?>
<svg baseProfile="tiny" height="8.5in" version="1.2" width="11in" xmlns="http://www.w3.org/2000/svg" xmlns:ev="http://www.w3.org/2001/xml-events" xmlns:xlink="http://www.w3.org/1999/xlink"><defs /><g transform="translate(96, 24.0)"><rect fill="none" height="768.0" stroke="#008080" width="408.0" x="0" y="0" /><g transform="translate(8, 8)"><rect fill="none" height="24.4" stroke="#888888" stroke-width="1" width="392.0" x="0" y="0" /><text alignment-baseline="text-after-edge" fill="#444444" font-family="Trebuchet MS" font-size="12" text-anchor="start" transform="translate(5,19.4)">Last week I built momentum:    disagree  -2  -1   0  +1  +2  agree</text></g><g transform="translate(8, 32.4)"><g transform="translate(0,8)"><g><g transform="translate(0,0)"><text alignment-baseline="text-after-edge" fill="#444444" font-family="Ubuntu Mono" font-size="10" text-anchor="start" transform="translate(5,17.0)">Notable achievements from last week include:</text></g><g transform="translate(0,22.0)"><g><line stroke="#888888" stroke-dasharray="1,5" stroke-width="1" transform="translate(0,30.0)" x1="0" x2="392.0" y1="0" y2="0" /><line stroke="#888888" stroke-dasharray="1,5" stroke-width="1" transform="translate(0,60.0)" x1="0" x2="392.0" y1="0" y2="0" /></g><g><line stroke="#888888" stroke-dasharray="1,0" stroke-width="1" transform="translate(0,20.0)" x1="0" x2="392.0" y1="0" y2="0" /><line stroke="#888888" stroke-dasharray="1,0" stroke-width="1" transform="translate(0,50.0)" x1="0" x2="392.0" y1="0" y2="0" /></g></g></g></g><g transform="translate(0,98.0)"><rect fill="none" height="112.0" stroke="#888888" stroke-width="1" width="392.0" x="0" y="0" /><g><g transform="translate(0,0)"><rect fill="#888888" height="22.0" stroke="#888888" stroke-width="1" width="392.0" x="0" y="0" /><text alignment-baseline="text-after-edge" fill="#ffffff" font-family="Trebuchet MS" font-size="10" text-anchor="start" transform="translate(5,17.0)">Lessons Learned From Last Week</text></g><g transform="translate(0,22.0)"><g><line stroke="#888888" stroke-dasharray="1,5" stroke-width="1" transform="translate(0,30.0)" x1="0" x2="392.0" y1="0" y2="0" /><line stroke="#888888" stroke-dasharray="1,5" stroke-width="1" transform="translate(0,60.0)" x1="0" x2="392.0" y1="0" y2="0" /><line stroke="#888888" stroke-dasharray="1,5" stroke-width="1" transform="translate(0,90.0)" x1="0" x2="392.0" y1="0" y2="0" /></g><g><line stroke="#888888" stroke-dasharray="1,0" stroke-width="1" transform="translate(0,20.0)" x1="0" x2="392.0" y1="0" y2="0" /><line stroke="#888888" stroke-dasharray="1,0" stroke-width="1" transform="translate(0,50.0)" x1="0" x2="392.0" y1="0" y2="0" /><line stroke="#888888" stroke-dasharray="1,0" stroke-width="1" transform="translate(0,80.0)" x1="0" x2="392.0" y1="0" y2="0" /></g></g></g></g><g transform="translate(0,218.0)"><g><g transform="translate(0,0)"><rect fill="#888888" height="22.0" stroke="#888888" stroke-width="1" width="392.0" x="0" y="0" /><text alignment-baseline="text-after-edge" fill="#ffffff" font-family="Trebuchet MS" font-size="10" text-anchor="start" transform="translate(5,17.0)">Unfinished Business</text></g><g transform="translate(0,22.0)"><g><line stroke="#888888" stroke-dasharray="1,5" stroke-width="1" transform="translate(0,30.0)" x1="0" x2="392.0" y1="0" y2="0" /><line stroke="#888888" stroke-dasharray="1,5" stroke-width="1" transform="translate(0,60.0)" x1="0" x2="392.0" y1="0" y2="0" /></g><g><line stroke="#888888" stroke-dasharray="1,0" stroke-width="1" transform="translate(0,20.0)" x1="0" x2="392.0" y1="0" y2="0" /><line stroke="#888888" stroke-dasharray="1,0" stroke-width="1" transform="translate(0,50.0)" x1="0" x2="392.0" y1="0" y2="0" /></g></g></g></g><g transform="translate(0,308.0)"><g transform="translate(0,0)"><rect fill="#d7d7d7" height="22.0" stroke="#d7d7d7" stroke-width="1" width="392.0" x="0" y="0" /><text alignment-baseline="text-after-edge" fill="#444444" font-family="Trebuchet MS" font-size="10" text-anchor="start" transform="translate(5,17.0)">Visualize Your Week</text></g><g transform="translate(0,22.0)"><rect fill="none" height="100.0" stroke="#888888" stroke-width="1" width="392.0" x="0" y="0" /><g><g transform="translate(0,0)"><text alignment-baseline="text-after-edge" fill="#444444" font-family="Ubuntu Mono" font-size="10" text-anchor="start" transform="translate(5,17.0)">Sketch a visual of your expectations for the week.</text></g><g transform="translate(0,22.0)"><line stroke="#888888" stroke-dasharray="1,0" stroke-width="1" transform="translate(0,78.0)" x1="0" x2="392.0" y1="0" y2="0" /></g></g></g></g><g transform="translate(0,438.0)"><rect fill="none" height="139.60000000000002" stroke="#888888" stroke-width="1" width="392.0" x="0" y="0" /><g><g transform="translate(0,0)"><rect fill="#888888" height="22.0" stroke="#888888" stroke-width="1" width="392.0" x="0" y="0" /><text alignment-baseline="text-after-edge" fill="#ffffff" font-family="Trebuchet MS" font-size="10" text-anchor="start" transform="translate(5,17.0)">I appreciate...</text></g><g transform="translate(0,22.0)"><line stroke="#888888" stroke-dasharray="1,0" stroke-width="1" transform="translate(0,117.60000000000002)" x1="0" x2="392.0" y1="0" y2="0" /></g></g></g><g transform="translate(0,585.6)"><g><g transform="translate(0,0)"><text alignment-baseline="text-after-edge" fill="#444444" font-family="Ubuntu Mono" font-size="10" text-anchor="start" transform="translate(5,17.0)">What do I need to prioritize for growth?</text></g><g transform="translate(0,22.0)"><g><line stroke="#888888" stroke-dasharray="1,5" stroke-width="1" transform="translate(0,30.0)" x1="0" x2="392.0" y1="0" y2="0" /><line stroke="#888888" stroke-dasharray="1,5" stroke-width="1" transform="translate(0,60.0)" x1="0" x2="392.0" y1="0" y2="0" /></g><g><line stroke="#888888" stroke-dasharray="1,0" stroke-width="1" transform="translate(0,20.0)" x1="0" x2="392.0" y1="0" y2="0" /><line stroke="#888888" stroke-dasharray="1,0" stroke-width="1" transform="translate(0,50.0)" x1="0" x2="392.0" y1="0" y2="0" /></g></g></g></g><g transform="translate(0,675.6)"><rect fill="none" height="52.0" stroke="#888888" stroke-width="1" width="392.0" x="0" y="0" /><g><g transform="translate(0,0)"><rect fill="none" height="22.0" stroke="#888888" stroke-width="1" width="392.0" x="0" y="0" /><text alignment-baseline="text-after-edge" fill="#444444" font-family="Ubuntu Mono" font-size="10" text-anchor="start" transform="translate(5,17.0)">In the coming week, I’m eager to experience:</text></g><g transform="translate(0,22.0)"><line stroke="#888888" stroke-dasharray="1,0" stroke-width="1" transform="translate(0,30.0)" x1="0" x2="392.0" y1="0" y2="0" /></g></g></g></g></g><g transform="translate(624.0, 24.0)"><rect fill="none" height="768.0" stroke="#008080" width="408.0" x="0" y="0" /><g transform="translate(8, 8)"><rect fill="none" height="24.4" stroke="#888888" stroke-width="1" width="392.0" x="0" y="0" /><text alignment-baseline="text-after-edge" fill="#444444" font-family="Trebuchet MS" font-size="12" text-anchor="start" transform="translate(5,19.4)">Goals for Week #                   /      /  20          →            /      /  20    </text></g><g transform="translate(8, 32.4)"><g transform="translate(0,8)"><rect fill="none" height="202.0" stroke="#888888" stroke-width="1" width="392.0" x="0" y="0" /><g><g transform="translate(0,0)"><g><g transform="translate(0,0)"><rect fill="#888888" height="22.0" stroke="#888888" stroke-width="1" width="137.0" x="0" y="0" /><text alignment-baseline="text-after-edge" fill="#ffffff" font-family="Trebuchet MS" font-size="10" text-anchor="start" transform="translate(5,17.0)">Habit</text></g><g transform="translate(0,22.0)"><line stroke="#888888" stroke-dasharray="1,0" stroke-width="1" transform="translate(5,30.0)" x1="0" x2="127.0" y1="0" y2="0" /><line stroke="#888888" stroke-dasharray="1,0" stroke-width="1" transform="translate(5,60.0)" x1="0" x2="127.0" y1="0" y2="0" /><line stroke="#888888" stroke-dasharray="1,0" stroke-width="1" transform="translate(5,90.0)" x1="0" x2="127.0" y1="0" y2="0" /><line stroke="#888888" stroke-dasharray="1,0" stroke-width="1" transform="translate(5,120.0)" x1="0" x2="127.0" y1="0" y2="0" /><line stroke="#888888" stroke-dasharray="1,0" stroke-width="1" transform="translate(5,150.0)" x1="0" x2="127.0" y1="0" y2="0" /><line stroke="#888888" stroke-dasharray="1,0" stroke-width="1" transform="translate(5,180.0)" x1="0" x2="127.0" y1="0" y2="0" /></g></g></g><g transform="translate(137.0,0)"><g><g transform="translate(0,0)"><rect fill="#888888" height="22.0" stroke="#888888" stroke-width="1" width="40" x="0" y="0" /><text alignment-baseline="text-after-edge" fill="#ffffff" font-family="Trebuchet MS" font-size="10" text-anchor="start" transform="translate(5,17.0)">Target</text></g><g transform="translate(0,22.0)"><line stroke="#888888" stroke-dasharray="1,0" stroke-width="1" transform="translate(5,30.0)" x1="0" x2="30" y1="0" y2="0" /><line stroke="#888888" stroke-dasharray="1,0" stroke-width="1" transform="translate(5,60.0)" x1="0" x2="30" y1="0" y2="0" /><line stroke="#888888" stroke-dasharray="1,0" stroke-width="1" transform="translate(5,90.0)" x1="0" x2="30" y1="0" y2="0" /><line stroke="#888888" stroke-dasharray="1,0" stroke-width="1" transform="translate(5,120.0)" x1="0" x2="30" y1="0" y2="0" /><line stroke="#888888" stroke-dasharray="1,0" stroke-width="1" transform="translate(5,150.0)" x1="0" x2="30" y1="0" y2="0" /><line stroke="#888888" stroke-dasharray="1,0" stroke-width="1" transform="translate(5,180.0)" x1="0" x2="30" y1="0" y2="0" /></g></g></g><g transform="translate(177.0,0)"><g><g transform="translate(0,0)"><rect fill="#888888" height="22.0" stroke="#888888" stroke-width="1" width="25" x="0" y="0" /><text alignment-baseline="text-after-edge" fill="#ffffff" font-family="Trebuchet MS" font-size="10" text-anchor="start" transform="translate(5,17.0)">Mon</text></g><g transform="translate(0,22.0)"><line stroke="#888888" stroke-dasharray="1,0" stroke-width="1" transform="translate(5,30.0)" x1="0" x2="15" y1="0" y2="0" /><line stroke="#888888" stroke-dasharray="1,0" stroke-width="1" transform="translate(5,60.0)" x1="0" x2="15" y1="0" y2="0" /><line stroke="#888888" stroke-dasharray="1,0" stroke-width="1" transform="translate(5,90.0)" x1="0" x2="15" y1="0" y2="0" /><line stroke="#888888" stroke-dasharray="1,0" stroke-width="1" transform="translate(5,120.0)" x1="0" x2="15" y1="0" y2="0" /><line stroke="#888888" stroke-dasharray="1,0" stroke-width="1" transform="translate(5,150.0)" x1="0" x2="15" y1="0" y2="0" /><line stroke="#888888" stroke-dasharray="1,0" stroke-width="1" transform="translate(5,180.0)" x1="0" x2="15" y1="0" y2="0" /></g></g></g><g transform="translate(202.0,0)"><g><g transform="translate(0,0)"><rect fill="#888888" height="22.0" stroke="#888888" stroke-width="1" width="25" x="0" y="0" /><text alignment-baseline="text-after-edge" fill="#ffffff" font-family="Trebuchet MS" font-size="10" text-anchor="start" transform="translate(5,17.0)">Tue</text></g><g transform="translate(0,22.0)"><line stroke="#888888" stroke-dasharray="1,0" stroke-width="1" transform="translate(5,30.0)" x1="0" x2="15" y1="0" y2="0" /><line stroke="#888888" stroke-dasharray="1,0" stroke-width="1" transform="translate(5,60.0)" x1="0" x2="15" y1="0" y2="0" /><line stroke="#888888" stroke-dasharray="1,0" stroke-width="1" transform="translate(5,90.0)" x1="0" x2="15" y1="0" y2="0" /><line stroke="#888888" stroke-dasharray="1,0" stroke-width="1" transform="translate(5,120.0)" x1="0" x2="15" y1="0" y2="0" /><line stroke="#888888" stroke-dasharray="1,0" stroke-width="1" transform="translate(5,150.0)" x1="0" x2="15" y1="0" y2="0" /><line stroke="#888888" stroke-dasharray="1,0" stroke-width="1" transform="translate(5,180.0)" x1="0" x2="15" y1="0" y2="0" /></g></g></g><g transform="translate(227.0,0)"><g><g transform="translate(0,0)"><rect fill="#888888" height="22.0" stroke="#888888" stroke-width="1" width="25" x="0" y="0" /><text alignment-baseline="text-after-edge" fill="#ffffff" font-family="Trebuchet MS" font-size="10" text-anchor="start" transform="translate(5,17.0)">Wed</text></g><g transform="translate(0,22.0)"><line stroke="#888888" stroke-dasharray="1,0" stroke-width="1" transform="translate(5,30.0)" x1="0" x2="15" y1="0" y2="0" /><line stroke="#888888" stroke-dasharray="1,0" stroke-width="1" transform="translate(5,60.0)" x1="0" x2="15" y1="0" y2="0" /><line stroke="#888888" stroke-dasharray="1,0" stroke-width="1" transform="translate(5,90.0)" x1="0" x2="15" y1="0" y2="0" /><line stroke="#888888" stroke-dasharray="1,0" stroke-width="1" transform="translate(5,120.0)" x1="0" x2="15" y1="0" y2="0" /><line stroke="#888888" stroke-dasharray="1,0" stroke-width="1" transform="translate(5,150.0)" x1="0" x2="15" y1="0" y2="0" /><line stroke="#888888" stroke-dasharray="1,0" stroke-width="1" transform="translate(5,180.0)" x1="0" x2="15" y1="0" y2="0" /></g></g></g><g transform="translate(252.0,0)"><g><g transform="translate(0,0)"><rect fill="#888888" height="22.0" stroke="#888888" stroke-width="1" width="25" x="0" y="0" /><text alignment-baseline="text-after-edge" fill="#ffffff" font-family="Trebuchet MS" font-size="10" text-anchor="start" transform="translate(5,17.0)">Thu</text></g><g transform="translate(0,22.0)"><line stroke="#888888" stroke-dasharray="1,0" stroke-width="1" transform="translate(5,30.0)" x1="0" x2="15" y1="0" y2="0" /><line stroke="#888888" stroke-dasharray="1,0" stroke-width="1" transform="translate(5,60.0)" x1="0" x2="15" y1="0" y2="0" /><line stroke="#888888" stroke-dasharray="1,0" stroke-width="1" transform="translate(5,90.0)" x1="0" x2="15" y1="0" y2="0" /><line stroke="#888888" stroke-dasharray="1,0" stroke-width="1" transform="translate(5,120.0)" x1="0" x2="15" y1="0" y2="0" /><line stroke="#888888" stroke-dasharray="1,0" stroke-width="1" transform="translate(5,150.0)" x1="0" x2="15" y1="0" y2="0" /><line stroke="#888888" stroke-dasharray="1,0" stroke-width="1" transform="translate(5,180.0)" x1="0" x2="15" y1="0" y2="0" /></g></g></g><g transform="translate(277.0,0)"><g><g transform="translate(0,0)"><rect fill="#888888" height="22.0" stroke="#888888" stroke-width="1" width="25" x="0" y="0" /><text alignment-baseline="text-after-edge" fill="#ffffff" font-family="Trebuchet MS" font-size="10" text-anchor="start" transform="translate(5,17.0)">Fri</text></g><g transform="translate(0,22.0)"><line stroke="#888888" stroke-dasharray="1,0" stroke-width="1" transform="translate(5,30.0)" x1="0" x2="15" y1="0" y2="0" /><line stroke="#888888" stroke-dasharray="1,0" stroke-width="1" transform="translate(5,60.0)" x1="0" x2="15" y1="0" y2="0" /><line stroke="#888888" stroke-dasharray="1,0" stroke-width="1" transform="translate(5,90.0)" x1="0" x2="15" y1="0" y2="0" /><line stroke="#888888" stroke-dasharray="1,0" stroke-width="1" transform="translate(5,120.0)" x1="0" x2="15" y1="0" y2="0" /><line stroke="#888888" stroke-dasharray="1,0" stroke-width="1" transform="translate(5,150.0)" x1="0" x2="15" y1="0" y2="0" /><line stroke="#888888" stroke-dasharray="1,0" stroke-width="1" transform="translate(5,180.0)" x1="0" x2="15" y1="0" y2="0" /></g></g></g><g transform="translate(302.0,0)"><g><g transform="translate(0,0)"><rect fill="#888888" height="22.0" stroke="#888888" stroke-width="1" width="25" x="0" y="0" /><text alignment-baseline="text-after-edge" fill="#ffffff" font-family="Trebuchet MS" font-size="10" text-anchor="start" transform="translate(5,17.0)">Sat</text></g><g transform="translate(0,22.0)"><line stroke="#888888" stroke-dasharray="1,0" stroke-width="1" transform="translate(5,30.0)" x1="0" x2="15" y1="0" y2="0" /><line stroke="#888888" stroke-dasharray="1,0" stroke-width="1" transform="translate(5,60.0)" x1="0" x2="15" y1="0" y2="0" /><line stroke="#888888" stroke-dasharray="1,0" stroke-width="1" transform="translate(5,90.0)" x1="0" x2="15" y1="0" y2="0" /><line stroke="#888888" stroke-dasharray="1,0" stroke-width="1" transform="translate(5,120.0)" x1="0" x2="15" y1="0" y2="0" /><line stroke="#888888" stroke-dasharray="1,0" stroke-width="1" transform="translate(5,150.0)" x1="0" x2="15" y1="0" y2="0" /><line stroke="#888888" stroke-dasharray="1,0" stroke-width="1" transform="translate(5,180.0)" x1="0" x2="15" y1="0" y2="0" /></g></g></g><g transform="translate(327.0,0)"><g><g transform="translate(0,0)"><rect fill="#888888" height="22.0" stroke="#888888" stroke-width="1" width="25" x="0" y="0" /><text alignment-baseline="text-after-edge" fill="#ffffff" font-family="Trebuchet MS" font-size="10" text-anchor="start" transform="translate(5,17.0)">Sun</text></g><g transform="translate(0,22.0)"><line stroke="#888888" stroke-dasharray="1,0" stroke-width="1" transform="translate(5,30.0)" x1="0" x2="15" y1="0" y2="0" /><line stroke="#888888" stroke-dasharray="1,0" stroke-width="1" transform="translate(5,60.0)" x1="0" x2="15" y1="0" y2="0" /><line stroke="#888888" stroke-dasharray="1,0" stroke-width="1" transform="translate(5,90.0)" x1="0" x2="15" y1="0" y2="0" /><line stroke="#888888" stroke-dasharray="1,0" stroke-width="1" transform="translate(5,120.0)" x1="0" x2="15" y1="0" y2="0" /><line stroke="#888888" stroke-dasharray="1,0" stroke-width="1" transform="translate(5,150.0)" x1="0" x2="15" y1="0" y2="0" /><line stroke="#888888" stroke-dasharray="1,0" stroke-width="1" transform="translate(5,180.0)" x1="0" x2="15" y1="0" y2="0" /></g></g></g><g transform="translate(352.0,0)"><g><g transform="translate(0,0)"><rect fill="#888888" height="22.0" stroke="#888888" stroke-width="1" width="40" x="0" y="0" /><text alignment-baseline="text-after-edge" fill="#ffffff" font-family="Trebuchet MS" font-size="10" text-anchor="start" transform="translate(5,17.0)">Tally</text></g><g transform="translate(0,22.0)"><line stroke="#888888" stroke-dasharray="1,0" stroke-width="1" transform="translate(5,30.0)" x1="0" x2="30" y1="0" y2="0" /><line stroke="#888888" stroke-dasharray="1,0" stroke-width="1" transform="translate(5,60.0)" x1="0" x2="30" y1="0" y2="0" /><line stroke="#888888" stroke-dasharray="1,0" stroke-width="1" transform="translate(5,90.0)" x1="0" x2="30" y1="0" y2="0" /><line stroke="#888888" stroke-dasharray="1,0" stroke-width="1" transform="translate(5,120.0)" x1="0" x2="30" y1="0" y2="0" /><line stroke="#888888" stroke-dasharray="1,0" stroke-width="1" transform="translate(5,150.0)" x1="0" x2="30" y1="0" y2="0" /><line stroke="#888888" stroke-dasharray="1,0" stroke-width="1" transform="translate(5,180.0)" x1="0" x2="30" y1="0" y2="0" /></g></g></g></g></g><g transform="translate(0,218.0)"><g><g transform="translate(0,0)"><g><g transform="translate(0,0)"><text alignment-baseline="text-after-edge" fill="#444444" font-family="Trebuchet MS" font-size="10" text-anchor="start" transform="translate(5,17.0)">Goal 1</text></g><g transform="translate(0,22.0)"><g><line stroke="#888888" stroke-dasharray="1,5" stroke-width="1" transform="translate(5,30.0)" x1="0" x2="186.0" y1="0" y2="0" /><line stroke="#888888" stroke-dasharray="1,5" stroke-width="1" transform="translate(5,60.0)" x1="0" x2="186.0" y1="0" y2="0" /><line stroke="#888888" stroke-dasharray="1,5" stroke-width="1" transform="translate(5,90.0)" x1="0" x2="186.0" y1="0" y2="0" /></g><g><line stroke="#888888" stroke-dasharray="1,0" stroke-width="1" transform="translate(5,20.0)" x1="0" x2="186.0" y1="0" y2="0" /><line stroke="#888888" stroke-dasharray="1,0" stroke-width="1" transform="translate(5,50.0)" x1="0" x2="186.0" y1="0" y2="0" /><line stroke="#888888" stroke-dasharray="1,0" stroke-width="1" transform="translate(5,80.0)" x1="0" x2="186.0" y1="0" y2="0" /></g></g></g></g><g transform="translate(196.0,0)"><g><g transform="translate(0,0)"><text alignment-baseline="text-after-edge" fill="#444444" font-family="Trebuchet MS" font-size="10" text-anchor="start" transform="translate(5,17.0)">Goal 2</text></g><g transform="translate(0,22.0)"><g><line stroke="#888888" stroke-dasharray="1,5" stroke-width="1" transform="translate(5,30.0)" x1="0" x2="186.0" y1="0" y2="0" /><line stroke="#888888" stroke-dasharray="1,5" stroke-width="1" transform="translate(5,60.0)" x1="0" x2="186.0" y1="0" y2="0" /><line stroke="#888888" stroke-dasharray="1,5" stroke-width="1" transform="translate(5,90.0)" x1="0" x2="186.0" y1="0" y2="0" /></g><g><line stroke="#888888" stroke-dasharray="1,0" stroke-width="1" transform="translate(5,20.0)" x1="0" x2="186.0" y1="0" y2="0" /><line stroke="#888888" stroke-dasharray="1,0" stroke-width="1" transform="translate(5,50.0)" x1="0" x2="186.0" y1="0" y2="0" /><line stroke="#888888" stroke-dasharray="1,0" stroke-width="1" transform="translate(5,80.0)" x1="0" x2="186.0" y1="0" y2="0" /></g></g></g></g></g></g><g transform="translate(0,338.0)"><g><g transform="translate(0,0)"><g><g transform="translate(0,0)"><text alignment-baseline="text-after-edge" fill="#444444" font-family="Trebuchet MS" font-size="10" text-anchor="start" transform="translate(5,17.0)">Goal 3</text></g><g transform="translate(0,22.0)"><g><line stroke="#888888" stroke-dasharray="1,5" stroke-width="1" transform="translate(5,30.0)" x1="0" x2="186.0" y1="0" y2="0" /><line stroke="#888888" stroke-dasharray="1,5" stroke-width="1" transform="translate(5,60.0)" x1="0" x2="186.0" y1="0" y2="0" /><line stroke="#888888" stroke-dasharray="1,5" stroke-width="1" transform="translate(5,90.0)" x1="0" x2="186.0" y1="0" y2="0" /></g><g><line stroke="#888888" stroke-dasharray="1,0" stroke-width="1" transform="translate(5,20.0)" x1="0" x2="186.0" y1="0" y2="0" /><line stroke="#888888" stroke-dasharray="1,0" stroke-width="1" transform="translate(5,50.0)" x1="0" x2="186.0" y1="0" y2="0" /><line stroke="#888888" stroke-dasharray="1,0" stroke-width="1" transform="translate(5,80.0)" x1="0" x2="186.0" y1="0" y2="0" /></g></g></g></g><g transform="translate(196.0,0)"><g><g transform="translate(0,0)"><text alignment-baseline="text-after-edge" fill="#444444" font-family="Trebuchet MS" font-size="10" text-anchor="start" transform="translate(5,17.0)">Goal 4</text></g><g transform="translate(0,22.0)"><g><line stroke="#888888" stroke-dasharray="1,5" stroke-width="1" transform="translate(5,30.0)" x1="0" x2="186.0" y1="0" y2="0" /><line stroke="#888888" stroke-dasharray="1,5" stroke-width="1" transform="translate(5,60.0)" x1="0" x2="186.0" y1="0" y2="0" /><line stroke="#888888" stroke-dasharray="1,5" stroke-width="1" transform="translate(5,90.0)" x1="0" x2="186.0" y1="0" y2="0" /></g><g><line stroke="#888888" stroke-dasharray="1,0" stroke-width="1" transform="translate(5,20.0)" x1="0" x2="186.0" y1="0" y2="0" /><line stroke="#888888" stroke-dasharray="1,0" stroke-width="1" transform="translate(5,50.0)" x1="0" x2="186.0" y1="0" y2="0" /><line stroke="#888888" stroke-dasharray="1,0" stroke-width="1" transform="translate(5,80.0)" x1="0" x2="186.0" y1="0" y2="0" /></g></g></g></g></g></g><g transform="translate(0,458.0)"><g transform="translate(0,0)"><rect fill="none" height="22.0" stroke="#888888" stroke-width="1" width="392.0" x="0" y="0" /><text alignment-baseline="text-after-edge" fill="#444444" font-family="Trebuchet MS" font-size="10" text-anchor="start" transform="translate(5,17.0)">How can I find the most fulfillment in these areas?</text></g><g transform="translate(0,22.0)"><rect fill="none" height="130.8" stroke="#888888" stroke-width="1" width="392.0" x="0" y="0" /><g><g transform="translate(0,0)"><g><g transform="translate(0,0)"><rect fill="#d7d7d7" height="22.0" stroke="#d7d7d7" stroke-width="1" width="196.0" x="0" y="0" /><text alignment-baseline="text-after-edge" fill="#444444" font-family="Trebuchet MS" font-size="10" text-anchor="start" transform="translate(5,17.0)">Health</text></g><g transform="translate(0,22.0)"><line stroke="#888888" stroke-dasharray="1,0" stroke-width="1" transform="translate(0,108.80000000000001)" x1="0" x2="196.0" y1="0" y2="0" /></g></g></g><g transform="translate(196.0,0)"><g><g transform="translate(0,0)"><rect fill="#d7d7d7" height="22.0" stroke="#d7d7d7" stroke-width="1" width="196.0" x="0" y="0" /><text alignment-baseline="text-after-edge" fill="#444444" font-family="Trebuchet MS" font-size="10" text-anchor="start" transform="translate(5,17.0)">Connections</text></g><g transform="translate(0,22.0)"><line stroke="#888888" stroke-dasharray="1,0" stroke-width="1" transform="translate(0,108.80000000000001)" x1="0" x2="196.0" y1="0" y2="0" /></g></g></g></g></g><g transform="translate(0,152.8)"><rect fill="none" height="130.8" stroke="#888888" stroke-width="1" width="392.0" x="0" y="0" /><g><g transform="translate(0,0)"><g><g transform="translate(0,0)"><rect fill="#d7d7d7" height="22.0" stroke="#d7d7d7" stroke-width="1" width="196.0" x="0" y="0" /><text alignment-baseline="text-after-edge" fill="#444444" font-family="Trebuchet MS" font-size="10" text-anchor="start" transform="translate(5,17.0)">Enjoyment</text></g><g transform="translate(0,22.0)"><line stroke="#888888" stroke-dasharray="1,0" stroke-width="1" transform="translate(0,108.80000000000001)" x1="0" x2="196.0" y1="0" y2="0" /></g></g></g><g transform="translate(196.0,0)"><g><g transform="translate(0,0)"><rect fill="#d7d7d7" height="22.0" stroke="#d7d7d7" stroke-width="1" width="196.0" x="0" y="0" /><text alignment-baseline="text-after-edge" fill="#444444" font-family="Trebuchet MS" font-size="10" text-anchor="start" transform="translate(5,17.0)">Job</text></g><g transform="translate(0,22.0)"><line stroke="#888888" stroke-dasharray="1,0" stroke-width="1" transform="translate(0,108.80000000000001)" x1="0" x2="196.0" y1="0" y2="0" /></g></g></g></g></g></g></g></g></svg>