<?xml version="1.0" encoding="utf-8" ?>
<svg baseProfile="tiny" height="8.5in" version="1.2" width="11in" xmlns="http://www.w3.org/2000/svg" xmlns:ev="http://www.w3.org/2001/xml-events" xmlns:xlink="http://www.w3.org/1999/xlink"><defs /><g transform="translate(96, 24.0)"><rect fill="none" height="768.0" stroke="#008080" width="408.0" x="0" y="0" /><g transform="translate(8, 8)"><rect fill="#d7d7d7" height="22" stroke="#888888" width="392.0" x="0" y="0" /><text alignment-baseline="text-after-edge" fill="#444444" font-family="Trebuchet MS" font-size="12" text-anchor="start" x="5" y="17">Last Week's Primary Effort Completion:                    %</text></g><g transform="translate(8,30)"><g><rect fill="none" height="20" stroke="none" width="392.0" x="0" y="8" /><text alignment-baseline="text-after-edge" fill="#444444" font-family="Ubuntu Mono" font-size="10" text-anchor="start" x="5" y="23">Notable achievements from last week include:</text></g><g><line stroke="#d7d7d7" x1="0" x2="392.0" y1="48" y2="48" /><line stroke="#d7d7d7" x1="0" x2="392.0" y1="68" y2="68" /><line stroke="#d7d7d7" x1="0" x2="392.0" y1="88" y2="88" /><line stroke="#d7d7d7" x1="0" x2="392.0" y1="108" y2="108" /></g><rect fill="none" height="100" stroke="#008080" width="392.0" x="0" y="8" /></g><g transform="translate(8,138)"><g><rect fill="#888888" height="20" stroke="#888888" width="392.0" x="0" y="8" /><text alignment-baseline="text-after-edge" fill="#ffffff" font-family="Trebuchet MS" font-size="10" text-anchor="start" x="5" y="23">Lessons Learned From Last Week</text></g><g><line stroke="#d7d7d7" x1="0" x2="392.0" y1="48" y2="48" /><line stroke="#d7d7d7" x1="0" x2="392.0" y1="68" y2="68" /><line stroke="#d7d7d7" x1="0" x2="392.0" y1="88" y2="88" /><text alignment-baseline="text-after-edge" fill="#444444" font-family="Ubuntu Mono" font-size="8" text-anchor="start" x="0" y="43">[]</text><text alignment-baseline="text-after-edge" fill="#444444" font-family="Ubuntu Mono" font-size="8" text-anchor="start" x="0" y="63">[]</text><text alignment-baseline="text-after-edge" fill="#444444" font-family="Ubuntu Mono" font-size="8" text-anchor="start" x="0" y="83">[]</text></g></g><g transform="translate(8,226)"><g><rect fill="#888888" height="20" stroke="#888888" width="392.0" x="0" y="8" /><text alignment-baseline="text-after-edge" fill="#ffffff" font-family="Trebuchet MS" font-size="10" text-anchor="start" x="5" y="23">Unfinished Business</text></g><g><line stroke="#d7d7d7" x1="0" x2="392.0" y1="48" y2="48" /><line stroke="#d7d7d7" x1="0" x2="392.0" y1="68" y2="68" /><line stroke="#d7d7d7" x1="0" x2="392.0" y1="88" y2="88" /><line stroke="#d7d7d7" x1="0" x2="392.0" y1="108" y2="108" /></g></g><g transform="translate(8,334)"><rect fill="#d7d7d7" height="20" stroke="#888888" width="392.0" x="0" y="8" /><text alignment-baseline="text-after-edge" fill="#444444" font-family="Ubuntu Mono" font-size="10" text-anchor="start" x="5" y="23">Visualize Your Week</text></g><g transform="translate(8,362)"><g><rect fill="none" height="20" stroke="none" width="392.0" x="0" y="0" /><text alignment-baseline="text-after-edge" fill="#444444" font-family="Ubuntu Mono" font-size="10" text-anchor="start" x="5" y="15">Sketch a visual of your expectations for the week.</text></g><g><line stroke="#d7d7d7" x1="0" x2="392.0" y1="154.0" y2="154.0" /></g><rect fill="none" height="154.0" stroke="#008080" width="392.0" x="0" y="0" /></g><g transform="translate(8,516.0)"><g><rect fill="none" height="20" stroke="none" width="392.0" x="0" y="8" /><text alignment-baseline="text-after-edge" fill="#444444" font-family="Ubuntu Mono" font-size="10" text-anchor="start" x="5" y="23">What do I need to prioritize for growth?</text></g><g><line stroke="#d7d7d7" x1="0" x2="392.0" y1="48" y2="48" /><line stroke="#d7d7d7" x1="0" x2="392.0" y1="68" y2="68" /><line stroke="#d7d7d7" x1="0" x2="392.0" y1="88" y2="88" /></g></g><g transform="translate(8,604.0)"><g><rect fill="#888888" height="20" stroke="#888888" width="392.0" x="0" y="8" /><text alignment-baseline="text-after-edge" fill="#ffffff" font-family="Trebuchet MS" font-size="10" text-anchor="start" x="5" y="23">I appreciate...</text></g><g><line stroke="#d7d7d7" x1="0" x2="392.0" y1="48" y2="48" /><line stroke="#d7d7d7" x1="0" x2="392.0" y1="68" y2="68" /></g><rect fill="none" height="60" stroke="#008080" width="392.0" x="0" y="8" /></g><g transform="translate(8,672.0)"><g><rect fill="none" height="20" stroke="none" width="392.0" x="0" y="8" /><text alignment-baseline="text-after-edge" fill="#444444" font-family="Ubuntu Mono" font-size="10" text-anchor="start" x="5" y="23">In the coming week, I’m eager to experience:</text></g><g><line stroke="#d7d7d7" x1="0" x2="392.0" y1="48" y2="48" /><line stroke="#d7d7d7" x1="0" x2="392.0" y1="68" y2="68" /><line stroke="#d7d7d7" x1="0" x2="392.0" y1="88" y2="88" /></g></g></g><g transform="translate(624.0, 24.0)"><rect fill="none" height="768.0" stroke="#008080" width="408.0" x="0" y="0" /><g transform="translate(8, 8)"><rect fill="#d7d7d7" height="22" stroke="#888888" width="392.0" x="0" y="0" /><text alignment-baseline="text-after-edge" fill="#444444" font-family="Trebuchet MS" font-size="12" text-anchor="start" x="5" y="17">Goals for Week:                   /      /  20          →            /      /  20    </text></g><g transform="translate(8,30)"><g><rect fill="none" height="20" stroke="#888888" width="392.0" x="0" y="8" /><text alignment-baseline="text-after-edge" fill="#444444" font-family="Ubuntu Mono" font-size="10" text-anchor="start" x="5" y="23">Habit</text><text alignment-baseline="text-after-edge" fill="#444444" font-family="Ubuntu Mono" font-size="10" text-anchor="start" x="137.0" y="23">Target</text><text alignment-baseline="text-after-edge" fill="#444444" font-family="Ubuntu Mono" font-size="10" text-anchor="start" x="177.0" y="23">Mon</text><text alignment-baseline="text-after-edge" fill="#444444" font-family="Ubuntu Mono" font-size="10" text-anchor="start" x="202.0" y="23">Tue</text><text alignment-baseline="text-after-edge" fill="#444444" font-family="Ubuntu Mono" font-size="10" text-anchor="start" x="227.0" y="23">Wed</text><text alignment-baseline="text-after-edge" fill="#444444" font-family="Ubuntu Mono" font-size="10" text-anchor="start" x="252.0" y="23">Thu</text><text alignment-baseline="text-after-edge" fill="#444444" font-family="Ubuntu Mono" font-size="10" text-anchor="start" x="277.0" y="23">Fri</text><text alignment-baseline="text-after-edge" fill="#444444" font-family="Ubuntu Mono" font-size="10" text-anchor="start" x="302.0" y="23">Sat</text><text alignment-baseline="text-after-edge" fill="#444444" font-family="Ubuntu Mono" font-size="10" text-anchor="start" x="327.0" y="23">Sun</text><text alignment-baseline="text-after-edge" fill="#444444" font-family="Ubuntu Mono" font-size="10" text-anchor="start" x="352.0" y="23">Tally</text></g><g><line stroke="#d7d7d7" x1="0" x2="134.5" y1="48" y2="48" /><line stroke="#d7d7d7" x1="139.5" x2="174.5" y1="48" y2="48" /><line stroke="#d7d7d7" x1="179.5" x2="199.5" y1="48" y2="48" /><line stroke="#d7d7d7" x1="204.5" x2="224.5" y1="48" y2="48" /><line stroke="#d7d7d7" x1="229.5" x2="249.5" y1="48" y2="48" /><line stroke="#d7d7d7" x1="254.5" x2="274.5" y1="48" y2="48" /><line stroke="#d7d7d7" x1="279.5" x2="299.5" y1="48" y2="48" /><line stroke="#d7d7d7" x1="304.5" x2="324.5" y1="48" y2="48" /><line stroke="#d7d7d7" x1="329.5" x2="349.5" y1="48" y2="48" /><line stroke="#d7d7d7" x1="354.5" x2="392.0" y1="48" y2="48" /><line stroke="#d7d7d7" x1="0" x2="134.5" y1="68" y2="68" /><line stroke="#d7d7d7" x1="139.5" x2="174.5" y1="68" y2="68" /><line stroke="#d7d7d7" x1="179.5" x2="199.5" y1="68" y2="68" /><line stroke="#d7d7d7" x1="204.5" x2="224.5" y1="68" y2="68" /><line stroke="#d7d7d7" x1="229.5" x2="249.5" y1="68" y2="68" /><line stroke="#d7d7d7" x1="254.5" x2="274.5" y1="68" y2="68" /><line stroke="#d7d7d7" x1="279.5" x2="299.5" y1="68" y2="68" /><line stroke="#d7d7d7" x1="304.5" x2="324.5" y1="68" y2="68" /><line stroke="#d7d7d7" x1="329.5" x2="349.5" y1="68" y2="68" /><line stroke="#d7d7d7" x1="354.5" x2="392.0" y1="68" y2="68" /><line stroke="#d7d7d7" x1="0" x2="134.5" y1="88" y2="88" /><line stroke="#d7d7d7" x1="139.5" x2="174.5" y1="88" y2="88" /><line stroke="#d7d7d7" x1="179.5" x2="199.5" y1="88" y2="88" /><line stroke="#d7d7d7" x1="204.5" x2="224.5" y1="88" y2="88" /><line stroke="#d7d7d7" x1="229.5" x2="249.5" y1="88" y2="88" /><line stroke="#d7d7d7" x1="254.5" x2="274.5" y1="88" y2="88" /><line stroke="#d7d7d7" x1="279.5" x2="299.5" y1="88" y2="88" /><line stroke="#d7d7d7" x1="304.5" x2="324.5" y1="88" y2="88" /><line stroke="#d7d7d7" x1="329.5" x2="349.5" y1="88" y2="88" /><line stroke="#d7d7d7" x1="354.5" x2="392.0" y1="88" y2="88" /><line stroke="#d7d7d7" x1="0" x2="134.5" y1="108" y2="108" /><line stroke="#d7d7d7" x1="139.5" x2="174.5" y1="108" y2="108" /><line stroke="#d7d7d7" x1="179.5" x2="199.5" y1="108" y2="108" /><line stroke="#d7d7d7" x1="204.5" x2="224.5" y1="108" y2="108" /><line stroke="#d7d7d7" x1="229.5" x2="249.5" y1="108" y2="108" /><line stroke="#d7d7d7" x1="254.5" x2="274.5" y1="108" y2="108" /><line stroke="#d7d7d7" x1="279.5" x2="299.5" y1="108" y2="108" /><line stroke="#d7d7d7" x1="304.5" x2="324.5" y1="108" y2="108" /><line stroke="#d7d7d7" x1="329.5" x2="349.5" y1="108" y2="108" /><line stroke="#d7d7d7" x1="354.5" x2="392.0" y1="108" y2="108" /><line stroke="#d7d7d7" x1="0" x2="134.5" y1="128" y2="128" /><line stroke="#d7d7d7" x1="139.5" x2="174.5" y1="128" y2="128" /><line stroke="#d7d7d7" x1="179.5" x2="199.5" y1="128" y2="128" /><line stroke="#d7d7d7" x1="204.5" x2="224.5" y1="128" y2="128" /><line stroke="#d7d7d7" x1="229.5" x2="249.5" y1="128" y2="128" /><line stroke="#d7d7d7" x1="254.5" x2="274.5" y1="128" y2="128" /><line stroke="#d7d7d7" x1="279.5" x2="299.5" y1="128" y2="128" /><line stroke="#d7d7d7" x1="304.5" x2="324.5" y1="128" y2="128" /><line stroke="#d7d7d7" x1="329.5" x2="349.5" y1="128" y2="128" /><line stroke="#d7d7d7" x1="354.5" x2="392.0" y1="128" y2="128" /><line stroke="#d7d7d7" x1="0" x2="134.5" y1="148" y2="148" /><line stroke="#d7d7d7" x1="139.5" x2="174.5" y1="148" y2="148" /><line stroke="#d7d7d7" x1="179.5" x2="199.5" y1="148" y2="148" /><line stroke="#d7d7d7" x1="204.5" x2="224.5" y1="148" y2="148" /><line stroke="#d7d7d7" x1="229.5" x2="249.5" y1="148" y2="148" /><line stroke="#d7d7d7" x1="254.5" x2="274.5" y1="148" y2="148" /><line stroke="#d7d7d7" x1="279.5" x2="299.5" y1="148" y2="148" /><line stroke="#d7d7d7" x1="304.5" x2="324.5" y1="148" y2="148" /><line stroke="#d7d7d7" x1="329.5" x2="349.5" y1="148" y2="148" /><line stroke="#d7d7d7" x1="354.5" x2="392.0" y1="148" y2="148" /></g><rect fill="none" height="140" stroke="#008080" width="392.0" x="0" y="8" /></g><g transform="translate(8,178)"><g transform="translate(0, 0)"><g><rect fill="#888888" height="20" stroke="#888888" width="188.0" x="0" y="8" /><text alignment-baseline="text-after-edge" fill="#ffffff" font-family="Trebuchet MS" font-size="10" text-anchor="start" x="5" y="23">Goal 1</text></g><g><line stroke="#d7d7d7" x1="0" x2="188.0" y1="48" y2="48" /><line stroke="#d7d7d7" x1="0" x2="188.0" y1="68" y2="68" /><line stroke="#d7d7d7" x1="0" x2="188.0" y1="88" y2="88" /><line stroke="#d7d7d7" x1="0" x2="188.0" y1="108" y2="108" /></g></g><g transform="translate(196.0, 0)"><g><rect fill="#888888" height="20" stroke="#888888" width="188.0" x="8" y="8" /><text alignment-baseline="text-after-edge" fill="#ffffff" font-family="Trebuchet MS" font-size="10" text-anchor="start" x="13" y="23">Goal 2</text></g><g><line stroke="#d7d7d7" x1="8" x2="196.0" y1="48" y2="48" /><line stroke="#d7d7d7" x1="8" x2="196.0" y1="68" y2="68" /><line stroke="#d7d7d7" x1="8" x2="196.0" y1="88" y2="88" /><line stroke="#d7d7d7" x1="8" x2="196.0" y1="108" y2="108" /></g></g></g><g transform="translate(8,294)"><g transform="translate(0, 0)"><g><rect fill="#888888" height="20" stroke="#888888" width="188.0" x="0" y="8" /><text alignment-baseline="text-after-edge" fill="#ffffff" font-family="Trebuchet MS" font-size="10" text-anchor="start" x="5" y="23">Goal 3</text></g><g><line stroke="#d7d7d7" x1="0" x2="188.0" y1="48" y2="48" /><line stroke="#d7d7d7" x1="0" x2="188.0" y1="68" y2="68" /><line stroke="#d7d7d7" x1="0" x2="188.0" y1="88" y2="88" /><line stroke="#d7d7d7" x1="0" x2="188.0" y1="108" y2="108" /></g></g><g transform="translate(196.0, 0)"><g><rect fill="#888888" height="20" stroke="#888888" width="188.0" x="8" y="8" /><text alignment-baseline="text-after-edge" fill="#ffffff" font-family="Trebuchet MS" font-size="10" text-anchor="start" x="13" y="23">Goal 4</text></g><g><line stroke="#d7d7d7" x1="8" x2="196.0" y1="48" y2="48" /><line stroke="#d7d7d7" x1="8" x2="196.0" y1="68" y2="68" /><line stroke="#d7d7d7" x1="8" x2="196.0" y1="88" y2="88" /><line stroke="#d7d7d7" x1="8" x2="196.0" y1="108" y2="108" /></g></g></g><g transform="translate(8,402)"><rect fill="none" height="20" stroke="none" width="384.0" x="0" y="8" /><text alignment-baseline="text-after-edge" fill="#444444" font-family="Ubuntu Mono" font-size="10" text-anchor="start" x="5" y="23">[] Specific</text><text alignment-baseline="text-after-edge" fill="#444444" font-family="Ubuntu Mono" font-size="10" text-anchor="start" x="130.66666666666666" y="23">[] Measurable</text><text alignment-baseline="text-after-edge" fill="#444444" font-family="Ubuntu Mono" font-size="10" text-anchor="start" x="261.3333333333333" y="23">[] Achieveable</text></g><g transform="translate(8,430)"><rect fill="#d7d7d7" height="20" stroke="#888888" width="392.0" x="0" y="8" /><text alignment-baseline="text-after-edge" fill="#444444" font-family="Trebuchet MS" font-size="10" text-anchor="start" x="5" y="23">How can I find the most fulfillment in these areas?</text></g><g transform="translate(8,458)"><g><rect fill="#888888" height="20" stroke="#888888" width="392.0" x="0" y="8" /><text alignment-baseline="text-after-edge" fill="#ffffff" font-family="Trebuchet MS" font-size="10" text-anchor="start" x="5" y="23">Health</text><text alignment-baseline="text-after-edge" fill="#ffffff" font-family="Trebuchet MS" font-size="10" text-anchor="start" x="196.0" y="23">Connections</text></g><g><line stroke="#d7d7d7" x1="0" x2="392.0" y1="151.0" y2="151.0" /></g><rect fill="none" height="143.0" stroke="#008080" width="392.0" x="0" y="8" /></g><g transform="translate(8,609.0)"><g><rect fill="#888888" height="20" stroke="#888888" width="392.0" x="0" y="8" /><text alignment-baseline="text-after-edge" fill="#ffffff" font-family="Trebuchet MS" font-size="10" text-anchor="start" x="5" y="23">Enjoyment</text><text alignment-baseline="text-after-edge" fill="#ffffff" font-family="Trebuchet MS" font-size="10" text-anchor="start" x="196.0" y="23">Job</text></g><g><line stroke="#d7d7d7" x1="0" x2="392.0" y1="151.0" y2="151.0" /></g><rect fill="none" height="143.0" stroke="#008080" width="392.0" x="0" y="8" /></g></g></svg>