<?xml version="1.0" encoding="utf-8" ?>
<svg baseProfile="tiny" height="8.5in" version="1.2" width="11in" xmlns="http://www.w3.org/2000/svg" xmlns:ev="http://www.w3.org/2001/xml-events" xmlns:xlink="http://www.w3.org/1999/xlink"><defs /><g transform="translate(24.0, 24.0)"><rect fill="none" height="768.0" stroke="#008080" width="408.0" x="0" y="0" /><g transform="translate(10, 10)"><rect fill="none" height="22" stroke="#008080" stroke-width="1" width="388.0" x="0" y="0" /><text alignment-baseline="text-after-edge" fill="#444444" font-family="Trebuchet MS" font-size="12" text-anchor="start" transform="translate(5,17)">A Commitment to Growth</text></g><g transform="translate(10, 32)"><g transform="translate(0,0)"><rect fill="none" height="94.0" stroke="#008080" stroke-width="1" width="388.0" x="0" y="0" /><text alignment-baseline="text-after-edge" fill="#444444" font-family="Ubuntu Mono" font-size="10" text-anchor="start" transform="translate(5,17.0)">I, (your name), vow to be true to my word and to live with</text><text alignment-baseline="text-after-edge" fill="#444444" font-family="Ubuntu Mono" font-size="10" text-anchor="start" transform="translate(5,29.0)">intention. I will no longer treat my time as something to be taken</text><text alignment-baseline="text-after-edge" fill="#444444" font-family="Ubuntu Mono" font-size="10" text-anchor="start" transform="translate(5,41.0)">for granted. From this moment on, I commit to striving for my</text><text alignment-baseline="text-after-edge" fill="#444444" font-family="Ubuntu Mono" font-size="10" text-anchor="start" transform="translate(5,53.0)">fullest potential—for myself, for those I care about, and for the</text><text alignment-baseline="text-after-edge" fill="#444444" font-family="Ubuntu Mono" font-size="10" text-anchor="start" transform="translate(5,65.0)">greater good. I promise to dedicate time to this journal each day</text><text alignment-baseline="text-after-edge" fill="#444444" font-family="Ubuntu Mono" font-size="10" text-anchor="start" transform="translate(5,77.0)">until it is complete, and through this practice, to bring my</text><text alignment-baseline="text-after-edge" fill="#444444" font-family="Ubuntu Mono" font-size="10" text-anchor="start" transform="translate(5,89.0)">dreams, my purpose, and my highest self into being.</text></g><g transform="translate(0,94.0)"><g><line stroke="#888888" stroke-dasharray="1,5" stroke-width="1" transform="translate(0,31.1)" x1="0" x2="388.0" y1="0" y2="0" /><line stroke="#888888" stroke-dasharray="1,5" stroke-width="1" transform="translate(0,62.2)" x1="0" x2="388.0" y1="0" y2="0" /><line stroke="#888888" stroke-dasharray="1,5" stroke-width="1" transform="translate(0,93.30000000000001)" x1="0" x2="388.0" y1="0" y2="0" /><line stroke="#888888" stroke-dasharray="1,5" stroke-width="1" transform="translate(0,124.4)" x1="0" x2="388.0" y1="0" y2="0" /><line stroke="#888888" stroke-dasharray="1,5" stroke-width="1" transform="translate(0,155.5)" x1="0" x2="388.0" y1="0" y2="0" /><line stroke="#888888" stroke-dasharray="1,5" stroke-width="1" transform="translate(0,186.6)" x1="0" x2="388.0" y1="0" y2="0" /><line stroke="#888888" stroke-dasharray="1,5" stroke-width="1" transform="translate(0,217.7)" x1="0" x2="388.0" y1="0" y2="0" /><line stroke="#888888" stroke-dasharray="1,5" stroke-width="1" transform="translate(0,248.79999999999998)" x1="0" x2="388.0" y1="0" y2="0" /><line stroke="#888888" stroke-dasharray="1,5" stroke-width="1" transform="translate(0,279.9)" x1="0" x2="388.0" y1="0" y2="0" /><line stroke="#888888" stroke-dasharray="1,5" stroke-width="1" transform="translate(0,311.0)" x1="0" x2="388.0" y1="0" y2="0" /><line stroke="#888888" stroke-dasharray="1,5" stroke-width="1" transform="translate(0,342.1)" x1="0" x2="388.0" y1="0" y2="0" /><line stroke="#888888" stroke-dasharray="1,5" stroke-width="1" transform="translate(0,373.20000000000005)" x1="0" x2="388.0" y1="0" y2="0" /><line stroke="#888888" stroke-dasharray="1,5" stroke-width="1" transform="translate(0,404.30000000000007)" x1="0" x2="388.0" y1="0" y2="0" /><line stroke="#888888" stroke-dasharray="1,5" stroke-width="1" transform="translate(0,435.4000000000001)" x1="0" x2="388.0" y1="0" y2="0" /><line stroke="#888888" stroke-dasharray="1,5" stroke-width="1" transform="translate(0,466.5000000000001)" x1="0" x2="388.0" y1="0" y2="0" /><line stroke="#888888" stroke-dasharray="1,5" stroke-width="1" transform="translate(0,497.60000000000014)" x1="0" x2="388.0" y1="0" y2="0" /><line stroke="#888888" stroke-dasharray="1,5" stroke-width="1" transform="translate(0,528.7000000000002)" x1="0" x2="388.0" y1="0" y2="0" /><line stroke="#888888" stroke-dasharray="1,5" stroke-width="1" transform="translate(0,559.8000000000002)" x1="0" x2="388.0" y1="0" y2="0" /><line stroke="#888888" stroke-dasharray="1,5" stroke-width="1" transform="translate(0,590.9000000000002)" x1="0" x2="388.0" y1="0" y2="0" /><line stroke="#888888" stroke-dasharray="1,5" stroke-width="1" transform="translate(0,622.0000000000002)" x1="0" x2="388.0" y1="0" y2="0" /></g><g><line stroke="#888888" stroke-dasharray="1,0" stroke-width="1" transform="translate(0,20.733333333333334)" x1="0" x2="388.0" y1="0" y2="0" /><line stroke="#888888" stroke-dasharray="1,0" stroke-width="1" transform="translate(0,51.833333333333336)" x1="0" x2="388.0" y1="0" y2="0" /><line stroke="#888888" stroke-dasharray="1,0" stroke-width="1" transform="translate(0,82.93333333333334)" x1="0" x2="388.0" y1="0" y2="0" /><line stroke="#888888" stroke-dasharray="1,0" stroke-width="1" transform="translate(0,114.03333333333333)" x1="0" x2="388.0" y1="0" y2="0" /><line stroke="#888888" stroke-dasharray="1,0" stroke-width="1" transform="translate(0,145.13333333333333)" x1="0" x2="388.0" y1="0" y2="0" /><line stroke="#888888" stroke-dasharray="1,0" stroke-width="1" transform="translate(0,176.23333333333332)" x1="0" x2="388.0" y1="0" y2="0" /><line stroke="#888888" stroke-dasharray="1,0" stroke-width="1" transform="translate(0,207.33333333333331)" x1="0" x2="388.0" y1="0" y2="0" /><line stroke="#888888" stroke-dasharray="1,0" stroke-width="1" transform="translate(0,238.4333333333333)" x1="0" x2="388.0" y1="0" y2="0" /><line stroke="#888888" stroke-dasharray="1,0" stroke-width="1" transform="translate(0,269.5333333333333)" x1="0" x2="388.0" y1="0" y2="0" /><line stroke="#888888" stroke-dasharray="1,0" stroke-width="1" transform="translate(0,300.6333333333333)" x1="0" x2="388.0" y1="0" y2="0" /><line stroke="#888888" stroke-dasharray="1,0" stroke-width="1" transform="translate(0,331.73333333333335)" x1="0" x2="388.0" y1="0" y2="0" /><line stroke="#888888" stroke-dasharray="1,0" stroke-width="1" transform="translate(0,362.83333333333337)" x1="0" x2="388.0" y1="0" y2="0" /><line stroke="#888888" stroke-dasharray="1,0" stroke-width="1" transform="translate(0,393.9333333333334)" x1="0" x2="388.0" y1="0" y2="0" /><line stroke="#888888" stroke-dasharray="1,0" stroke-width="1" transform="translate(0,425.0333333333334)" x1="0" x2="388.0" y1="0" y2="0" /><line stroke="#888888" stroke-dasharray="1,0" stroke-width="1" transform="translate(0,456.13333333333344)" x1="0" x2="388.0" y1="0" y2="0" /><line stroke="#888888" stroke-dasharray="1,0" stroke-width="1" transform="translate(0,487.23333333333346)" x1="0" x2="388.0" y1="0" y2="0" /><line stroke="#888888" stroke-dasharray="1,0" stroke-width="1" transform="translate(0,518.3333333333335)" x1="0" x2="388.0" y1="0" y2="0" /><line stroke="#888888" stroke-dasharray="1,0" stroke-width="1" transform="translate(0,549.4333333333335)" x1="0" x2="388.0" y1="0" y2="0" /><line stroke="#888888" stroke-dasharray="1,0" stroke-width="1" transform="translate(0,580.5333333333335)" x1="0" x2="388.0" y1="0" y2="0" /><line stroke="#888888" stroke-dasharray="1,0" stroke-width="1" transform="translate(0,611.6333333333336)" x1="0" x2="388.0" y1="0" y2="0" /></g></g></g></g><g transform="translate(624.0, 24.0)"><rect fill="none" height="768.0" stroke="#008080" width="408.0" x="0" y="0" /><g transform="translate(10, 10)"><rect fill="none" height="42" stroke="#008080" stroke-width="1" width="388.0" x="0" y="0" /><text alignment-baseline="text-after-edge" fill="#444444" font-family="Trebuchet MS" font-size="32" text-anchor="start" transform="translate(5,37)">Goal #</text></g><g transform="translate(10, 52)"><g transform="translate(0,10)"><g><g transform="translate(0,0)"><rect fill="#888888" height="20" stroke="#888888" stroke-width="1" width="388.0" x="0" y="0" /><text alignment-baseline="text-after-edge" fill="#ffffff" font-family="Trebuchet MS" font-size="10" text-anchor="start" transform="translate(5,15)">How does this goal support your values?</text></g><g transform="translate(0,20)"><g><line stroke="#888888" stroke-dasharray="1,5" stroke-width="1" transform="translate(0,30.0)" x1="0" x2="388.0" y1="0" y2="0" /><line stroke="#888888" stroke-dasharray="1,5" stroke-width="1" transform="translate(0,60.0)" x1="0" x2="388.0" y1="0" y2="0" /><line stroke="#888888" stroke-dasharray="1,5" stroke-width="1" transform="translate(0,90.0)" x1="0" x2="388.0" y1="0" y2="0" /></g><g><line stroke="#888888" stroke-dasharray="1,0" stroke-width="1" transform="translate(0,20.0)" x1="0" x2="388.0" y1="0" y2="0" /><line stroke="#888888" stroke-dasharray="1,0" stroke-width="1" transform="translate(0,50.0)" x1="0" x2="388.0" y1="0" y2="0" /><line stroke="#888888" stroke-dasharray="1,0" stroke-width="1" transform="translate(0,80.0)" x1="0" x2="388.0" y1="0" y2="0" /></g></g></g></g><g transform="translate(0,128.33333333333334)"><g><g transform="translate(0,0)"><g><g transform="translate(0,0)"><text alignment-baseline="text-after-edge" fill="#444444" font-family="Trebuchet MS" font-size="10" text-anchor="start" transform="translate(5,15)">Advancement</text></g><g transform="translate(0,20)"><g><line stroke="#888888" stroke-dasharray="1,5" stroke-width="1" transform="translate(0,30.0)" x1="0" x2="275" y1="0" y2="0" /><line stroke="#888888" stroke-dasharray="1,5" stroke-width="1" transform="translate(0,60.0)" x1="0" x2="275" y1="0" y2="0" /><line stroke="#888888" stroke-dasharray="1,5" stroke-width="1" transform="translate(0,90.0)" x1="0" x2="275" y1="0" y2="0" /><line stroke="#888888" stroke-dasharray="1,5" stroke-width="1" transform="translate(0,120.0)" x1="0" x2="275" y1="0" y2="0" /><line stroke="#888888" stroke-dasharray="1,5" stroke-width="1" transform="translate(0,150.0)" x1="0" x2="275" y1="0" y2="0" /><line stroke="#888888" stroke-dasharray="1,5" stroke-width="1" transform="translate(0,180.0)" x1="0" x2="275" y1="0" y2="0" /><line stroke="#888888" stroke-dasharray="1,5" stroke-width="1" transform="translate(0,210.0)" x1="0" x2="275" y1="0" y2="0" /></g><g><line stroke="#888888" stroke-dasharray="1,0" stroke-width="1" transform="translate(0,20.0)" x1="0" x2="275" y1="0" y2="0" /><line stroke="#888888" stroke-dasharray="1,0" stroke-width="1" transform="translate(0,50.0)" x1="0" x2="275" y1="0" y2="0" /><line stroke="#888888" stroke-dasharray="1,0" stroke-width="1" transform="translate(0,80.0)" x1="0" x2="275" y1="0" y2="0" /><line stroke="#888888" stroke-dasharray="1,0" stroke-width="1" transform="translate(0,110.0)" x1="0" x2="275" y1="0" y2="0" /><line stroke="#888888" stroke-dasharray="1,0" stroke-width="1" transform="translate(0,140.0)" x1="0" x2="275" y1="0" y2="0" /><line stroke="#888888" stroke-dasharray="1,0" stroke-width="1" transform="translate(0,170.0)" x1="0" x2="275" y1="0" y2="0" /><line stroke="#888888" stroke-dasharray="1,0" stroke-width="1" transform="translate(0,200.0)" x1="0" x2="275" y1="0" y2="0" /></g></g></g></g><g transform="translate(275,0)"><g><g transform="translate(0,0)"><text alignment-baseline="text-after-edge" fill="#444444" font-family="Trebuchet MS" font-size="10" text-anchor="start" transform="translate(5,15)">Date</text></g><g transform="translate(0,20)"><g><line stroke="#888888" stroke-dasharray="1,5" stroke-width="1" transform="translate(0,30.0)" x1="0" x2="113.0" y1="0" y2="0" /><line stroke="#888888" stroke-dasharray="1,5" stroke-width="1" transform="translate(0,60.0)" x1="0" x2="113.0" y1="0" y2="0" /><line stroke="#888888" stroke-dasharray="1,5" stroke-width="1" transform="translate(0,90.0)" x1="0" x2="113.0" y1="0" y2="0" /><line stroke="#888888" stroke-dasharray="1,5" stroke-width="1" transform="translate(0,120.0)" x1="0" x2="113.0" y1="0" y2="0" /><line stroke="#888888" stroke-dasharray="1,5" stroke-width="1" transform="translate(0,150.0)" x1="0" x2="113.0" y1="0" y2="0" /><line stroke="#888888" stroke-dasharray="1,5" stroke-width="1" transform="translate(0,180.0)" x1="0" x2="113.0" y1="0" y2="0" /><line stroke="#888888" stroke-dasharray="1,5" stroke-width="1" transform="translate(0,210.0)" x1="0" x2="113.0" y1="0" y2="0" /></g><g><line stroke="#888888" stroke-dasharray="1,0" stroke-width="1" transform="translate(0,20.0)" x1="0" x2="113.0" y1="0" y2="0" /><line stroke="#888888" stroke-dasharray="1,0" stroke-width="1" transform="translate(0,50.0)" x1="0" x2="113.0" y1="0" y2="0" /><line stroke="#888888" stroke-dasharray="1,0" stroke-width="1" transform="translate(0,80.0)" x1="0" x2="113.0" y1="0" y2="0" /><line stroke="#888888" stroke-dasharray="1,0" stroke-width="1" transform="translate(0,110.0)" x1="0" x2="113.0" y1="0" y2="0" /><line stroke="#888888" stroke-dasharray="1,0" stroke-width="1" transform="translate(0,140.0)" x1="0" x2="113.0" y1="0" y2="0" /><line stroke="#888888" stroke-dasharray="1,0" stroke-width="1" transform="translate(0,170.0)" x1="0" x2="113.0" y1="0" y2="0" /><line stroke="#888888" stroke-dasharray="1,0" stroke-width="1" transform="translate(0,200.0)" x1="0" x2="113.0" y1="0" y2="0" /></g></g></g></g></g><rect fill="none" height="230" stroke="#008080" stroke-width="1" width="388.0" x="0" y="0" /></g><g transform="translate(0,366.6666666666667)"><g><g transform="translate(0,0)"><rect fill="#888888" height="20" stroke="#888888" stroke-width="1" width="388.0" x="0" y="0" /><text alignment-baseline="text-after-edge" fill="#ffffff" font-family="Trebuchet MS" font-size="10" text-anchor="start" transform="translate(5,15)">Tangible Results</text></g><g transform="translate(0,20)"><g><line stroke="#888888" stroke-dasharray="1,5" stroke-width="1" transform="translate(0,30.0)" x1="0" x2="388.0" y1="0" y2="0" /></g><g><line stroke="#888888" stroke-dasharray="1,0" stroke-width="1" transform="translate(0,20.0)" x1="0" x2="388.0" y1="0" y2="0" /></g></g></g></g><g transform="translate(0,425.0)"><g><g transform="translate(0,0)"><text alignment-baseline="text-after-edge" fill="#444444" font-family="Ubuntu Mono" font-size="10" text-anchor="start" transform="translate(5,15)">Obstacles</text></g><g transform="translate(0,20)"><g><line stroke="#888888" stroke-dasharray="1,5" stroke-width="1" transform="translate(0,30.0)" x1="0" x2="388.0" y1="0" y2="0" /><line stroke="#888888" stroke-dasharray="1,5" stroke-width="1" transform="translate(0,60.0)" x1="0" x2="388.0" y1="0" y2="0" /></g><g><line stroke="#888888" stroke-dasharray="1,0" stroke-width="1" transform="translate(0,20.0)" x1="0" x2="388.0" y1="0" y2="0" /><line stroke="#888888" stroke-dasharray="1,0" stroke-width="1" transform="translate(0,50.0)" x1="0" x2="388.0" y1="0" y2="0" /></g></g></g><rect fill="none" height="80" stroke="#008080" stroke-width="1" width="388.0" x="0" y="0" /></g><g transform="translate(0,513.3333333333334)"><g><g transform="translate(0,0)"><rect fill="#888888" height="20" stroke="#888888" stroke-width="1" width="388.0" x="0" y="0" /><text alignment-baseline="text-after-edge" fill="#ffffff" font-family="Trebuchet MS" font-size="10" text-anchor="start" transform="translate(5,15)">Impacts of Success</text></g><g transform="translate(0,20)"><g><line stroke="#888888" stroke-dasharray="1,5" stroke-width="1" transform="translate(0,30.0)" x1="0" x2="388.0" y1="0" y2="0" /><line stroke="#888888" stroke-dasharray="1,5" stroke-width="1" transform="translate(0,60.0)" x1="0" x2="388.0" y1="0" y2="0" /></g><g><line stroke="#888888" stroke-dasharray="1,0" stroke-width="1" transform="translate(0,20.0)" x1="0" x2="388.0" y1="0" y2="0" /><line stroke="#888888" stroke-dasharray="1,0" stroke-width="1" transform="translate(0,50.0)" x1="0" x2="388.0" y1="0" y2="0" /></g></g></g></g><g transform="translate(0,601.6666666666667)"><g><g transform="translate(0,0)"><text alignment-baseline="text-after-edge" fill="#444444" font-family="Ubuntu Mono" font-size="10" text-anchor="start" transform="translate(5,15)">Commitment Cadence</text></g><g transform="translate(0,20)"><line stroke="#888888" stroke-dasharray="1,0" stroke-width="1" transform="translate(0,28.0)" x1="0" x2="388.0" y1="0" y2="0" /></g></g><rect fill="none" height="48.0" stroke="#008080" stroke-width="1" width="388.0" x="0" y="0" /></g><g transform="translate(0,658.0000000000001)"><g><g transform="translate(0,0)"><text alignment-baseline="text-after-edge" fill="#444444" font-family="Ubuntu Mono" font-size="10" text-anchor="start" transform="translate(5,15)">Celebration Plan</text></g><g transform="translate(0,20)"><line stroke="#888888" stroke-dasharray="1,0" stroke-width="1" transform="translate(0,28.0)" x1="0" x2="388.0" y1="0" y2="0" /></g></g><rect fill="none" height="48.0" stroke="#008080" stroke-width="1" width="388.0" x="0" y="0" /></g></g></g></svg>