<?xml version="1.0" encoding="utf-8" ?>
<svg baseProfile="tiny" height="8.5in" version="1.2" width="11in" xmlns="http://www.w3.org/2000/svg" xmlns:ev="http://www.w3.org/2001/xml-events" xmlns:xlink="http://www.w3.org/1999/xlink"><defs /><g transform="translate(24.0, 24.0)"><rect fill="none" height="768.0" stroke="#008080" width="408.0" x="0" y="0" /><g transform="translate(10, 10)"><rect fill="none" height="22" stroke="#008080" stroke-width="1" width="388.0" x="0" y="0" /><text alignment-baseline="text-after-edge" fill="#444444" font-family="Trebuchet MS" font-size="12" text-anchor="start" transform="translate(5,17)">Month #              /              /  20          -&gt;              /              /  20          </text></g><g transform="translate(10, 32)"><g transform="translate(0,10)"><g><g transform="translate(0,0)"><rect fill="#d7d7d7" height="20" stroke="#d7d7d7" stroke-width="1" width="388.0" x="0" y="0" /><text alignment-baseline="text-after-edge" fill="#444444" font-family="Ubuntu Mono" font-size="10" text-anchor="start" transform="translate(5,15)">Week #                                                /</text></g><g transform="translate(0,20)"><line stroke="#888888" stroke-dasharray="1,0" stroke-width="1" transform="translate(0,155.0)" x1="0" x2="388.0" y1="0" y2="0" /></g></g><rect fill="none" height="175" stroke="#008080" stroke-width="1" width="388.0" x="0" y="0" /></g><g transform="translate(0,190.33333333333334)"><g><g transform="translate(0,0)"><rect fill="#d7d7d7" height="20" stroke="#d7d7d7" stroke-width="1" width="388.0" x="0" y="0" /><text alignment-baseline="text-after-edge" fill="#444444" font-family="Ubuntu Mono" font-size="10" text-anchor="start" transform="translate(5,15)">Week #                                                /</text></g><g transform="translate(0,20)"><line stroke="#888888" stroke-dasharray="1,0" stroke-width="1" transform="translate(0,155.0)" x1="0" x2="388.0" y1="0" y2="0" /></g></g><rect fill="none" height="175" stroke="#008080" stroke-width="1" width="388.0" x="0" y="0" /></g><g transform="translate(0,370.6666666666667)"><g><g transform="translate(0,0)"><rect fill="#d7d7d7" height="20" stroke="#d7d7d7" stroke-width="1" width="388.0" x="0" y="0" /><text alignment-baseline="text-after-edge" fill="#444444" font-family="Ubuntu Mono" font-size="10" text-anchor="start" transform="translate(5,15)">Week #                                                /</text></g><g transform="translate(0,20)"><line stroke="#888888" stroke-dasharray="1,0" stroke-width="1" transform="translate(0,155.0)" x1="0" x2="388.0" y1="0" y2="0" /></g></g><rect fill="none" height="175" stroke="#008080" stroke-width="1" width="388.0" x="0" y="0" /></g><g transform="translate(0,551.0000000000001)"><g><g transform="translate(0,0)"><rect fill="#d7d7d7" height="20" stroke="#d7d7d7" stroke-width="1" width="388.0" x="0" y="0" /><text alignment-baseline="text-after-edge" fill="#444444" font-family="Ubuntu Mono" font-size="10" text-anchor="start" transform="translate(5,15)">Week #                                                /</text></g><g transform="translate(0,20)"><line stroke="#888888" stroke-dasharray="1,0" stroke-width="1" transform="translate(0,155.0)" x1="0" x2="388.0" y1="0" y2="0" /></g></g><rect fill="none" height="175" stroke="#008080" stroke-width="1" width="388.0" x="0" y="0" /></g></g></g><g transform="translate(624.0, 24.0)"><rect fill="none" height="768.0" stroke="#008080" width="408.0" x="0" y="0" /><g transform="translate(10, 10)"><rect fill="none" height="22" stroke="#008080" stroke-width="1" width="388.0" x="0" y="0" /><text alignment-baseline="text-after-edge" fill="#444444" font-family="Trebuchet MS" font-size="12" text-anchor="start" transform="translate(5,17)">Month #              /              /  20          -&gt;              /              /  20          </text></g><g transform="translate(10, 32)"><g transform="translate(0,10)"><g><g transform="translate(0,0)"><rect fill="#d7d7d7" height="20" stroke="#d7d7d7" stroke-width="1" width="388.0" x="0" y="0" /><text alignment-baseline="text-after-edge" fill="#444444" font-family="Ubuntu Mono" font-size="10" text-anchor="start" transform="translate(5,15)">Week #                                                /</text></g><g transform="translate(0,20)"><line stroke="#888888" stroke-dasharray="1,0" stroke-width="1" transform="translate(0,155.0)" x1="0" x2="388.0" y1="0" y2="0" /></g></g><rect fill="none" height="175" stroke="#008080" stroke-width="1" width="388.0" x="0" y="0" /></g><g transform="translate(0,190.33333333333334)"><g><g transform="translate(0,0)"><rect fill="#d7d7d7" height="20" stroke="#d7d7d7" stroke-width="1" width="388.0" x="0" y="0" /><text alignment-baseline="text-after-edge" fill="#444444" font-family="Ubuntu Mono" font-size="10" text-anchor="start" transform="translate(5,15)">Week #                                                /</text></g><g transform="translate(0,20)"><line stroke="#888888" stroke-dasharray="1,0" stroke-width="1" transform="translate(0,155.0)" x1="0" x2="388.0" y1="0" y2="0" /></g></g><rect fill="none" height="175" stroke="#008080" stroke-width="1" width="388.0" x="0" y="0" /></g><g transform="translate(0,370.6666666666667)"><g><g transform="translate(0,0)"><rect fill="#d7d7d7" height="20" stroke="#d7d7d7" stroke-width="1" width="388.0" x="0" y="0" /><text alignment-baseline="text-after-edge" fill="#444444" font-family="Ubuntu Mono" font-size="10" text-anchor="start" transform="translate(5,15)">Week #                                                /</text></g><g transform="translate(0,20)"><line stroke="#888888" stroke-dasharray="1,0" stroke-width="1" transform="translate(0,155.0)" x1="0" x2="388.0" y1="0" y2="0" /></g></g><rect fill="none" height="175" stroke="#008080" stroke-width="1" width="388.0" x="0" y="0" /></g><g transform="translate(0,551.0000000000001)"><g><g transform="translate(0,0)"><rect fill="#d7d7d7" height="20" stroke="#d7d7d7" stroke-width="1" width="388.0" x="0" y="0" /><text alignment-baseline="text-after-edge" fill="#444444" font-family="Ubuntu Mono" font-size="10" text-anchor="start" transform="translate(5,15)">Week #                                                /</text></g><g transform="translate(0,20)"><line stroke="#888888" stroke-dasharray="1,0" stroke-width="1" transform="translate(0,155.0)" x1="0" x2="388.0" y1="0" y2="0" /></g></g><rect fill="none" height="175" stroke="#008080" stroke-width="1" width="388.0" x="0" y="0" /></g></g></g></svg>