<?xml version="1.0" encoding="utf-8" ?>
<svg baseProfile="tiny" height="8.5in" version="1.2" width="11in" xmlns="http://www.w3.org/2000/svg" xmlns:ev="http://www.w3.org/2001/xml-events" xmlns:xlink="http://www.w3.org/1999/xlink"><defs /><g transform="translate(96, 24.0)"><rect fill="none" height="768.0" stroke="#008080" width="408.0" x="0" y="0" /><g transform="translate(10, 10)"><rect fill="none" height="22" stroke="#008080" stroke-width="1" width="388.0" x="0" y="0" /><text alignment-baseline="text-after-edge" fill="#444444" font-family="Trebuchet MS" font-size="12" text-anchor="start" transform="translate(5,17)">Imagine a Future...</text></g><g transform="translate(10, 32)"><g transform="translate(0,0)"><rect fill="none" height="118.0" stroke="#008080" stroke-width="1" width="388.0" x="0" y="0" /><text alignment-baseline="text-after-edge" fill="#444444" font-family="Ubuntu Mono" font-size="10" text-anchor="start" transform="translate(5,17.0)">Describe your ideal life 3–5 years from now—the boldest vision you</text><text alignment-baseline="text-after-edge" fill="#444444" font-family="Ubuntu Mono" font-size="10" text-anchor="start" transform="translate(5,29.0)">can imagine, even if it feels far off. Ask yourself: What do I</text><text alignment-baseline="text-after-edge" fill="#444444" font-family="Ubuntu Mono" font-size="10" text-anchor="start" transform="translate(5,41.0)">truly want from life? What skills will I master? Which habits</text><text alignment-baseline="text-after-edge" fill="#444444" font-family="Ubuntu Mono" font-size="10" text-anchor="start" transform="translate(5,53.0)">should I drop or build? What will my health and social life look</text><text alignment-baseline="text-after-edge" fill="#444444" font-family="Ubuntu Mono" font-size="10" text-anchor="start" transform="translate(5,65.0)">like? How will I spend leisure time? What kind of family life do I</text><text alignment-baseline="text-after-edge" fill="#444444" font-family="Ubuntu Mono" font-size="10" text-anchor="start" transform="translate(5,77.0)">want? Where will I be in my career and financially? What traits do</text><text alignment-baseline="text-after-edge" fill="#444444" font-family="Ubuntu Mono" font-size="10" text-anchor="start" transform="translate(5,89.0)">I admire and want to grow into? What would I do if I had no fear?</text><text alignment-baseline="text-after-edge" fill="#444444" font-family="Ubuntu Mono" font-size="10" text-anchor="start" transform="translate(5,101.0)">What kind of person will I grow into? Start by freewriting before</text><text alignment-baseline="text-after-edge" fill="#444444" font-family="Ubuntu Mono" font-size="10" text-anchor="start" transform="translate(5,113.0)">refining your answer below.</text></g><g transform="translate(0,118.0)"><g><line stroke="#888888" stroke-dasharray="1,5" stroke-width="1" transform="translate(0,30.4)" x1="0" x2="388.0" y1="0" y2="0" /><line stroke="#888888" stroke-dasharray="1,5" stroke-width="1" transform="translate(0,60.8)" x1="0" x2="388.0" y1="0" y2="0" /><line stroke="#888888" stroke-dasharray="1,5" stroke-width="1" transform="translate(0,91.19999999999999)" x1="0" x2="388.0" y1="0" y2="0" /><line stroke="#888888" stroke-dasharray="1,5" stroke-width="1" transform="translate(0,121.6)" x1="0" x2="388.0" y1="0" y2="0" /><line stroke="#888888" stroke-dasharray="1,5" stroke-width="1" transform="translate(0,152.0)" x1="0" x2="388.0" y1="0" y2="0" /><line stroke="#888888" stroke-dasharray="1,5" stroke-width="1" transform="translate(0,182.4)" x1="0" x2="388.0" y1="0" y2="0" /><line stroke="#888888" stroke-dasharray="1,5" stroke-width="1" transform="translate(0,212.8)" x1="0" x2="388.0" y1="0" y2="0" /><line stroke="#888888" stroke-dasharray="1,5" stroke-width="1" transform="translate(0,243.20000000000002)" x1="0" x2="388.0" y1="0" y2="0" /><line stroke="#888888" stroke-dasharray="1,5" stroke-width="1" transform="translate(0,273.6)" x1="0" x2="388.0" y1="0" y2="0" /><line stroke="#888888" stroke-dasharray="1,5" stroke-width="1" transform="translate(0,304.0)" x1="0" x2="388.0" y1="0" y2="0" /><line stroke="#888888" stroke-dasharray="1,5" stroke-width="1" transform="translate(0,334.4)" x1="0" x2="388.0" y1="0" y2="0" /><line stroke="#888888" stroke-dasharray="1,5" stroke-width="1" transform="translate(0,364.79999999999995)" x1="0" x2="388.0" y1="0" y2="0" /><line stroke="#888888" stroke-dasharray="1,5" stroke-width="1" transform="translate(0,395.19999999999993)" x1="0" x2="388.0" y1="0" y2="0" /><line stroke="#888888" stroke-dasharray="1,5" stroke-width="1" transform="translate(0,425.5999999999999)" x1="0" x2="388.0" y1="0" y2="0" /><line stroke="#888888" stroke-dasharray="1,5" stroke-width="1" transform="translate(0,455.9999999999999)" x1="0" x2="388.0" y1="0" y2="0" /><line stroke="#888888" stroke-dasharray="1,5" stroke-width="1" transform="translate(0,486.39999999999986)" x1="0" x2="388.0" y1="0" y2="0" /><line stroke="#888888" stroke-dasharray="1,5" stroke-width="1" transform="translate(0,516.7999999999998)" x1="0" x2="388.0" y1="0" y2="0" /><line stroke="#888888" stroke-dasharray="1,5" stroke-width="1" transform="translate(0,547.1999999999998)" x1="0" x2="388.0" y1="0" y2="0" /><line stroke="#888888" stroke-dasharray="1,5" stroke-width="1" transform="translate(0,577.5999999999998)" x1="0" x2="388.0" y1="0" y2="0" /><line stroke="#888888" stroke-dasharray="1,5" stroke-width="1" transform="translate(0,607.9999999999998)" x1="0" x2="388.0" y1="0" y2="0" /></g><g><line stroke="#888888" stroke-dasharray="1,0" stroke-width="1" transform="translate(0,20.266666666666666)" x1="0" x2="388.0" y1="0" y2="0" /><line stroke="#888888" stroke-dasharray="1,0" stroke-width="1" transform="translate(0,50.666666666666664)" x1="0" x2="388.0" y1="0" y2="0" /><line stroke="#888888" stroke-dasharray="1,0" stroke-width="1" transform="translate(0,81.06666666666666)" x1="0" x2="388.0" y1="0" y2="0" /><line stroke="#888888" stroke-dasharray="1,0" stroke-width="1" transform="translate(0,111.46666666666667)" x1="0" x2="388.0" y1="0" y2="0" /><line stroke="#888888" stroke-dasharray="1,0" stroke-width="1" transform="translate(0,141.86666666666667)" x1="0" x2="388.0" y1="0" y2="0" /><line stroke="#888888" stroke-dasharray="1,0" stroke-width="1" transform="translate(0,172.26666666666668)" x1="0" x2="388.0" y1="0" y2="0" /><line stroke="#888888" stroke-dasharray="1,0" stroke-width="1" transform="translate(0,202.66666666666669)" x1="0" x2="388.0" y1="0" y2="0" /><line stroke="#888888" stroke-dasharray="1,0" stroke-width="1" transform="translate(0,233.0666666666667)" x1="0" x2="388.0" y1="0" y2="0" /><line stroke="#888888" stroke-dasharray="1,0" stroke-width="1" transform="translate(0,263.4666666666667)" x1="0" x2="388.0" y1="0" y2="0" /><line stroke="#888888" stroke-dasharray="1,0" stroke-width="1" transform="translate(0,293.8666666666667)" x1="0" x2="388.0" y1="0" y2="0" /><line stroke="#888888" stroke-dasharray="1,0" stroke-width="1" transform="translate(0,324.26666666666665)" x1="0" x2="388.0" y1="0" y2="0" /><line stroke="#888888" stroke-dasharray="1,0" stroke-width="1" transform="translate(0,354.66666666666663)" x1="0" x2="388.0" y1="0" y2="0" /><line stroke="#888888" stroke-dasharray="1,0" stroke-width="1" transform="translate(0,385.0666666666666)" x1="0" x2="388.0" y1="0" y2="0" /><line stroke="#888888" stroke-dasharray="1,0" stroke-width="1" transform="translate(0,415.4666666666666)" x1="0" x2="388.0" y1="0" y2="0" /><line stroke="#888888" stroke-dasharray="1,0" stroke-width="1" transform="translate(0,445.86666666666656)" x1="0" x2="388.0" y1="0" y2="0" /><line stroke="#888888" stroke-dasharray="1,0" stroke-width="1" transform="translate(0,476.26666666666654)" x1="0" x2="388.0" y1="0" y2="0" /><line stroke="#888888" stroke-dasharray="1,0" stroke-width="1" transform="translate(0,506.6666666666665)" x1="0" x2="388.0" y1="0" y2="0" /><line stroke="#888888" stroke-dasharray="1,0" stroke-width="1" transform="translate(0,537.0666666666665)" x1="0" x2="388.0" y1="0" y2="0" /><line stroke="#888888" stroke-dasharray="1,0" stroke-width="1" transform="translate(0,567.4666666666665)" x1="0" x2="388.0" y1="0" y2="0" /><line stroke="#888888" stroke-dasharray="1,0" stroke-width="1" transform="translate(0,597.8666666666664)" x1="0" x2="388.0" y1="0" y2="0" /></g></g></g></g><g transform="translate(624.0, 24.0)"><rect fill="none" height="768.0" stroke="#008080" width="408.0" x="0" y="0" /><g transform="translate(10, 10)"><rect fill="none" height="22" stroke="#008080" stroke-width="1" width="388.0" x="0" y="0" /><text alignment-baseline="text-after-edge" fill="#444444" font-family="Trebuchet MS" font-size="12" text-anchor="start" transform="translate(5,17)">Imagine a Future...</text></g><g transform="translate(10, 32)"><g transform="translate(0,0)"><g><line stroke="#888888" stroke-dasharray="1,5" stroke-width="1" transform="translate(0,30.25)" x1="0" x2="388.0" y1="0" y2="0" /><line stroke="#888888" stroke-dasharray="1,5" stroke-width="1" transform="translate(0,60.5)" x1="0" x2="388.0" y1="0" y2="0" /><line stroke="#888888" stroke-dasharray="1,5" stroke-width="1" transform="translate(0,90.75)" x1="0" x2="388.0" y1="0" y2="0" /><line stroke="#888888" stroke-dasharray="1,5" stroke-width="1" transform="translate(0,121.0)" x1="0" x2="388.0" y1="0" y2="0" /><line stroke="#888888" stroke-dasharray="1,5" stroke-width="1" transform="translate(0,151.25)" x1="0" x2="388.0" y1="0" y2="0" /><line stroke="#888888" stroke-dasharray="1,5" stroke-width="1" transform="translate(0,181.5)" x1="0" x2="388.0" y1="0" y2="0" /><line stroke="#888888" stroke-dasharray="1,5" stroke-width="1" transform="translate(0,211.75)" x1="0" x2="388.0" y1="0" y2="0" /><line stroke="#888888" stroke-dasharray="1,5" stroke-width="1" transform="translate(0,242.0)" x1="0" x2="388.0" y1="0" y2="0" /><line stroke="#888888" stroke-dasharray="1,5" stroke-width="1" transform="translate(0,272.25)" x1="0" x2="388.0" y1="0" y2="0" /><line stroke="#888888" stroke-dasharray="1,5" stroke-width="1" transform="translate(0,302.5)" x1="0" x2="388.0" y1="0" y2="0" /><line stroke="#888888" stroke-dasharray="1,5" stroke-width="1" transform="translate(0,332.75)" x1="0" x2="388.0" y1="0" y2="0" /><line stroke="#888888" stroke-dasharray="1,5" stroke-width="1" transform="translate(0,363.0)" x1="0" x2="388.0" y1="0" y2="0" /><line stroke="#888888" stroke-dasharray="1,5" stroke-width="1" transform="translate(0,393.25)" x1="0" x2="388.0" y1="0" y2="0" /><line stroke="#888888" stroke-dasharray="1,5" stroke-width="1" transform="translate(0,423.5)" x1="0" x2="388.0" y1="0" y2="0" /><line stroke="#888888" stroke-dasharray="1,5" stroke-width="1" transform="translate(0,453.75)" x1="0" x2="388.0" y1="0" y2="0" /><line stroke="#888888" stroke-dasharray="1,5" stroke-width="1" transform="translate(0,484.0)" x1="0" x2="388.0" y1="0" y2="0" /><line stroke="#888888" stroke-dasharray="1,5" stroke-width="1" transform="translate(0,514.25)" x1="0" x2="388.0" y1="0" y2="0" /><line stroke="#888888" stroke-dasharray="1,5" stroke-width="1" transform="translate(0,544.5)" x1="0" x2="388.0" y1="0" y2="0" /><line stroke="#888888" stroke-dasharray="1,5" stroke-width="1" transform="translate(0,574.75)" x1="0" x2="388.0" y1="0" y2="0" /><line stroke="#888888" stroke-dasharray="1,5" stroke-width="1" transform="translate(0,605.0)" x1="0" x2="388.0" y1="0" y2="0" /><line stroke="#888888" stroke-dasharray="1,5" stroke-width="1" transform="translate(0,635.25)" x1="0" x2="388.0" y1="0" y2="0" /><line stroke="#888888" stroke-dasharray="1,5" stroke-width="1" transform="translate(0,665.5)" x1="0" x2="388.0" y1="0" y2="0" /><line stroke="#888888" stroke-dasharray="1,5" stroke-width="1" transform="translate(0,695.75)" x1="0" x2="388.0" y1="0" y2="0" /><line stroke="#888888" stroke-dasharray="1,5" stroke-width="1" transform="translate(0,726.0)" x1="0" x2="388.0" y1="0" y2="0" /></g><g><line stroke="#888888" stroke-dasharray="1,0" stroke-width="1" transform="translate(0,20.166666666666664)" x1="0" x2="388.0" y1="0" y2="0" /><line stroke="#888888" stroke-dasharray="1,0" stroke-width="1" transform="translate(0,50.416666666666664)" x1="0" x2="388.0" y1="0" y2="0" /><line stroke="#888888" stroke-dasharray="1,0" stroke-width="1" transform="translate(0,80.66666666666666)" x1="0" x2="388.0" y1="0" y2="0" /><line stroke="#888888" stroke-dasharray="1,0" stroke-width="1" transform="translate(0,110.91666666666666)" x1="0" x2="388.0" y1="0" y2="0" /><line stroke="#888888" stroke-dasharray="1,0" stroke-width="1" transform="translate(0,141.16666666666666)" x1="0" x2="388.0" y1="0" y2="0" /><line stroke="#888888" stroke-dasharray="1,0" stroke-width="1" transform="translate(0,171.41666666666666)" x1="0" x2="388.0" y1="0" y2="0" /><line stroke="#888888" stroke-dasharray="1,0" stroke-width="1" transform="translate(0,201.66666666666666)" x1="0" x2="388.0" y1="0" y2="0" /><line stroke="#888888" stroke-dasharray="1,0" stroke-width="1" transform="translate(0,231.91666666666666)" x1="0" x2="388.0" y1="0" y2="0" /><line stroke="#888888" stroke-dasharray="1,0" stroke-width="1" transform="translate(0,262.16666666666663)" x1="0" x2="388.0" y1="0" y2="0" /><line stroke="#888888" stroke-dasharray="1,0" stroke-width="1" transform="translate(0,292.41666666666663)" x1="0" x2="388.0" y1="0" y2="0" /><line stroke="#888888" stroke-dasharray="1,0" stroke-width="1" transform="translate(0,322.66666666666663)" x1="0" x2="388.0" y1="0" y2="0" /><line stroke="#888888" stroke-dasharray="1,0" stroke-width="1" transform="translate(0,352.91666666666663)" x1="0" x2="388.0" y1="0" y2="0" /><line stroke="#888888" stroke-dasharray="1,0" stroke-width="1" transform="translate(0,383.16666666666663)" x1="0" x2="388.0" y1="0" y2="0" /><line stroke="#888888" stroke-dasharray="1,0" stroke-width="1" transform="translate(0,413.41666666666663)" x1="0" x2="388.0" y1="0" y2="0" /><line stroke="#888888" stroke-dasharray="1,0" stroke-width="1" transform="translate(0,443.66666666666663)" x1="0" x2="388.0" y1="0" y2="0" /><line stroke="#888888" stroke-dasharray="1,0" stroke-width="1" transform="translate(0,473.91666666666663)" x1="0" x2="388.0" y1="0" y2="0" /><line stroke="#888888" stroke-dasharray="1,0" stroke-width="1" transform="translate(0,504.16666666666663)" x1="0" x2="388.0" y1="0" y2="0" /><line stroke="#888888" stroke-dasharray="1,0" stroke-width="1" transform="translate(0,534.4166666666666)" x1="0" x2="388.0" y1="0" y2="0" /><line stroke="#888888" stroke-dasharray="1,0" stroke-width="1" transform="translate(0,564.6666666666666)" x1="0" x2="388.0" y1="0" y2="0" /><line stroke="#888888" stroke-dasharray="1,0" stroke-width="1" transform="translate(0,594.9166666666666)" x1="0" x2="388.0" y1="0" y2="0" /><line stroke="#888888" stroke-dasharray="1,0" stroke-width="1" transform="translate(0,625.1666666666666)" x1="0" x2="388.0" y1="0" y2="0" /><line stroke="#888888" stroke-dasharray="1,0" stroke-width="1" transform="translate(0,655.4166666666666)" x1="0" x2="388.0" y1="0" y2="0" /><line stroke="#888888" stroke-dasharray="1,0" stroke-width="1" transform="translate(0,685.6666666666666)" x1="0" x2="388.0" y1="0" y2="0" /><line stroke="#888888" stroke-dasharray="1,0" stroke-width="1" transform="translate(0,715.9166666666666)" x1="0" x2="388.0" y1="0" y2="0" /></g></g></g></g></svg>