<?xml version="1.0" encoding="utf-8" ?>
<svg baseProfile="tiny" height="816.0" version="1.2" width="1056" xmlns="http://www.w3.org/2000/svg" xmlns:ev="http://www.w3.org/2001/xml-events" xmlns:xlink="http://www.w3.org/1999/xlink"><defs /><g transform="translate(96, 24.0)"><rect fill="none" height="768.0" stroke="#008080" width="408.0" x="0" y="0" /><g transform="translate(10, 10)"><rect fill="none" height="22" stroke="#008080" stroke-width="1" width="388.0" x="0" y="0" /><text alignment-baseline="text-after-edge" fill="#444444" font-family="Trebuchet MS" font-size="12" text-anchor="start" transform="translate(5,17)">Habit Tracking</text></g><g transform="translate(10, 32)"><g transform="translate(0,10)"><g><g transform="translate(0,0)"><g><g transform="translate(0,0)"><rect fill="#888888" height="20" stroke="#888888" stroke-width="1" width="133.0" x="0" y="0" /><text alignment-baseline="text-after-edge" fill="#ffffff" font-family="Trebuchet MS" font-size="10" text-anchor="start" transform="translate(5,15)">Habit</text></g><g transform="translate(0,20)"><line stroke="#888888" stroke-dasharray="1,0" stroke-width="1" transform="translate(5,25.25)" x1="0" x2="123.0" y1="0" y2="0" /><line stroke="#888888" stroke-dasharray="1,0" stroke-width="1" transform="translate(5,50.5)" x1="0" x2="123.0" y1="0" y2="0" /><line stroke="#888888" stroke-dasharray="1,0" stroke-width="1" transform="translate(5,75.75)" x1="0" x2="123.0" y1="0" y2="0" /><line stroke="#888888" stroke-dasharray="1,0" stroke-width="1" transform="translate(5,101.0)" x1="0" x2="123.0" y1="0" y2="0" /><line stroke="#888888" stroke-dasharray="1,0" stroke-width="1" transform="translate(5,126.25)" x1="0" x2="123.0" y1="0" y2="0" /><line stroke="#888888" stroke-dasharray="1,0" stroke-width="1" transform="translate(5,151.5)" x1="0" x2="123.0" y1="0" y2="0" /></g></g></g><g transform="translate(133.0,0)"><g><g transform="translate(0,0)"><rect fill="#888888" height="20" stroke="#888888" stroke-width="1" width="40" x="0" y="0" /><text alignment-baseline="text-after-edge" fill="#ffffff" font-family="Trebuchet MS" font-size="10" text-anchor="start" transform="translate(5,15)">Target</text></g><g transform="translate(0,20)"><line stroke="#888888" stroke-dasharray="1,0" stroke-width="1" transform="translate(5,25.25)" x1="0" x2="30" y1="0" y2="0" /><line stroke="#888888" stroke-dasharray="1,0" stroke-width="1" transform="translate(5,50.5)" x1="0" x2="30" y1="0" y2="0" /><line stroke="#888888" stroke-dasharray="1,0" stroke-width="1" transform="translate(5,75.75)" x1="0" x2="30" y1="0" y2="0" /><line stroke="#888888" stroke-dasharray="1,0" stroke-width="1" transform="translate(5,101.0)" x1="0" x2="30" y1="0" y2="0" /><line stroke="#888888" stroke-dasharray="1,0" stroke-width="1" transform="translate(5,126.25)" x1="0" x2="30" y1="0" y2="0" /><line stroke="#888888" stroke-dasharray="1,0" stroke-width="1" transform="translate(5,151.5)" x1="0" x2="30" y1="0" y2="0" /></g></g></g><g transform="translate(173.0,0)"><g><g transform="translate(0,0)"><rect fill="#888888" height="20" stroke="#888888" stroke-width="1" width="25" x="0" y="0" /><text alignment-baseline="text-after-edge" fill="#ffffff" font-family="Trebuchet MS" font-size="10" text-anchor="start" transform="translate(5,15)">Mon</text></g><g transform="translate(0,20)"><line stroke="#888888" stroke-dasharray="1,0" stroke-width="1" transform="translate(5,25.25)" x1="0" x2="15" y1="0" y2="0" /><line stroke="#888888" stroke-dasharray="1,0" stroke-width="1" transform="translate(5,50.5)" x1="0" x2="15" y1="0" y2="0" /><line stroke="#888888" stroke-dasharray="1,0" stroke-width="1" transform="translate(5,75.75)" x1="0" x2="15" y1="0" y2="0" /><line stroke="#888888" stroke-dasharray="1,0" stroke-width="1" transform="translate(5,101.0)" x1="0" x2="15" y1="0" y2="0" /><line stroke="#888888" stroke-dasharray="1,0" stroke-width="1" transform="translate(5,126.25)" x1="0" x2="15" y1="0" y2="0" /><line stroke="#888888" stroke-dasharray="1,0" stroke-width="1" transform="translate(5,151.5)" x1="0" x2="15" y1="0" y2="0" /></g></g></g><g transform="translate(198.0,0)"><g><g transform="translate(0,0)"><rect fill="#888888" height="20" stroke="#888888" stroke-width="1" width="25" x="0" y="0" /><text alignment-baseline="text-after-edge" fill="#ffffff" font-family="Trebuchet MS" font-size="10" text-anchor="start" transform="translate(5,15)">Tue</text></g><g transform="translate(0,20)"><line stroke="#888888" stroke-dasharray="1,0" stroke-width="1" transform="translate(5,25.25)" x1="0" x2="15" y1="0" y2="0" /><line stroke="#888888" stroke-dasharray="1,0" stroke-width="1" transform="translate(5,50.5)" x1="0" x2="15" y1="0" y2="0" /><line stroke="#888888" stroke-dasharray="1,0" stroke-width="1" transform="translate(5,75.75)" x1="0" x2="15" y1="0" y2="0" /><line stroke="#888888" stroke-dasharray="1,0" stroke-width="1" transform="translate(5,101.0)" x1="0" x2="15" y1="0" y2="0" /><line stroke="#888888" stroke-dasharray="1,0" stroke-width="1" transform="translate(5,126.25)" x1="0" x2="15" y1="0" y2="0" /><line stroke="#888888" stroke-dasharray="1,0" stroke-width="1" transform="translate(5,151.5)" x1="0" x2="15" y1="0" y2="0" /></g></g></g><g transform="translate(223.0,0)"><g><g transform="translate(0,0)"><rect fill="#888888" height="20" stroke="#888888" stroke-width="1" width="25" x="0" y="0" /><text alignment-baseline="text-after-edge" fill="#ffffff" font-family="Trebuchet MS" font-size="10" text-anchor="start" transform="translate(5,15)">Wed</text></g><g transform="translate(0,20)"><line stroke="#888888" stroke-dasharray="1,0" stroke-width="1" transform="translate(5,25.25)" x1="0" x2="15" y1="0" y2="0" /><line stroke="#888888" stroke-dasharray="1,0" stroke-width="1" transform="translate(5,50.5)" x1="0" x2="15" y1="0" y2="0" /><line stroke="#888888" stroke-dasharray="1,0" stroke-width="1" transform="translate(5,75.75)" x1="0" x2="15" y1="0" y2="0" /><line stroke="#888888" stroke-dasharray="1,0" stroke-width="1" transform="translate(5,101.0)" x1="0" x2="15" y1="0" y2="0" /><line stroke="#888888" stroke-dasharray="1,0" stroke-width="1" transform="translate(5,126.25)" x1="0" x2="15" y1="0" y2="0" /><line stroke="#888888" stroke-dasharray="1,0" stroke-width="1" transform="translate(5,151.5)" x1="0" x2="15" y1="0" y2="0" /></g></g></g><g transform="translate(248.0,0)"><g><g transform="translate(0,0)"><rect fill="#888888" height="20" stroke="#888888" stroke-width="1" width="25" x="0" y="0" /><text alignment-baseline="text-after-edge" fill="#ffffff" font-family="Trebuchet MS" font-size="10" text-anchor="start" transform="translate(5,15)">Thu</text></g><g transform="translate(0,20)"><line stroke="#888888" stroke-dasharray="1,0" stroke-width="1" transform="translate(5,25.25)" x1="0" x2="15" y1="0" y2="0" /><line stroke="#888888" stroke-dasharray="1,0" stroke-width="1" transform="translate(5,50.5)" x1="0" x2="15" y1="0" y2="0" /><line stroke="#888888" stroke-dasharray="1,0" stroke-width="1" transform="translate(5,75.75)" x1="0" x2="15" y1="0" y2="0" /><line stroke="#888888" stroke-dasharray="1,0" stroke-width="1" transform="translate(5,101.0)" x1="0" x2="15" y1="0" y2="0" /><line stroke="#888888" stroke-dasharray="1,0" stroke-width="1" transform="translate(5,126.25)" x1="0" x2="15" y1="0" y2="0" /><line stroke="#888888" stroke-dasharray="1,0" stroke-width="1" transform="translate(5,151.5)" x1="0" x2="15" y1="0" y2="0" /></g></g></g><g transform="translate(273.0,0)"><g><g transform="translate(0,0)"><rect fill="#888888" height="20" stroke="#888888" stroke-width="1" width="25" x="0" y="0" /><text alignment-baseline="text-after-edge" fill="#ffffff" font-family="Trebuchet MS" font-size="10" text-anchor="start" transform="translate(5,15)">Fri</text></g><g transform="translate(0,20)"><line stroke="#888888" stroke-dasharray="1,0" stroke-width="1" transform="translate(5,25.25)" x1="0" x2="15" y1="0" y2="0" /><line stroke="#888888" stroke-dasharray="1,0" stroke-width="1" transform="translate(5,50.5)" x1="0" x2="15" y1="0" y2="0" /><line stroke="#888888" stroke-dasharray="1,0" stroke-width="1" transform="translate(5,75.75)" x1="0" x2="15" y1="0" y2="0" /><line stroke="#888888" stroke-dasharray="1,0" stroke-width="1" transform="translate(5,101.0)" x1="0" x2="15" y1="0" y2="0" /><line stroke="#888888" stroke-dasharray="1,0" stroke-width="1" transform="translate(5,126.25)" x1="0" x2="15" y1="0" y2="0" /><line stroke="#888888" stroke-dasharray="1,0" stroke-width="1" transform="translate(5,151.5)" x1="0" x2="15" y1="0" y2="0" /></g></g></g><g transform="translate(298.0,0)"><g><g transform="translate(0,0)"><rect fill="#888888" height="20" stroke="#888888" stroke-width="1" width="25" x="0" y="0" /><text alignment-baseline="text-after-edge" fill="#ffffff" font-family="Trebuchet MS" font-size="10" text-anchor="start" transform="translate(5,15)">Sat</text></g><g transform="translate(0,20)"><line stroke="#888888" stroke-dasharray="1,0" stroke-width="1" transform="translate(5,25.25)" x1="0" x2="15" y1="0" y2="0" /><line stroke="#888888" stroke-dasharray="1,0" stroke-width="1" transform="translate(5,50.5)" x1="0" x2="15" y1="0" y2="0" /><line stroke="#888888" stroke-dasharray="1,0" stroke-width="1" transform="translate(5,75.75)" x1="0" x2="15" y1="0" y2="0" /><line stroke="#888888" stroke-dasharray="1,0" stroke-width="1" transform="translate(5,101.0)" x1="0" x2="15" y1="0" y2="0" /><line stroke="#888888" stroke-dasharray="1,0" stroke-width="1" transform="translate(5,126.25)" x1="0" x2="15" y1="0" y2="0" /><line stroke="#888888" stroke-dasharray="1,0" stroke-width="1" transform="translate(5,151.5)" x1="0" x2="15" y1="0" y2="0" /></g></g></g><g transform="translate(323.0,0)"><g><g transform="translate(0,0)"><rect fill="#888888" height="20" stroke="#888888" stroke-width="1" width="25" x="0" y="0" /><text alignment-baseline="text-after-edge" fill="#ffffff" font-family="Trebuchet MS" font-size="10" text-anchor="start" transform="translate(5,15)">Sun</text></g><g transform="translate(0,20)"><line stroke="#888888" stroke-dasharray="1,0" stroke-width="1" transform="translate(5,25.25)" x1="0" x2="15" y1="0" y2="0" /><line stroke="#888888" stroke-dasharray="1,0" stroke-width="1" transform="translate(5,50.5)" x1="0" x2="15" y1="0" y2="0" /><line stroke="#888888" stroke-dasharray="1,0" stroke-width="1" transform="translate(5,75.75)" x1="0" x2="15" y1="0" y2="0" /><line stroke="#888888" stroke-dasharray="1,0" stroke-width="1" transform="translate(5,101.0)" x1="0" x2="15" y1="0" y2="0" /><line stroke="#888888" stroke-dasharray="1,0" stroke-width="1" transform="translate(5,126.25)" x1="0" x2="15" y1="0" y2="0" /><line stroke="#888888" stroke-dasharray="1,0" stroke-width="1" transform="translate(5,151.5)" x1="0" x2="15" y1="0" y2="0" /></g></g></g><g transform="translate(348.0,0)"><g><g transform="translate(0,0)"><rect fill="#888888" height="20" stroke="#888888" stroke-width="1" width="40" x="0" y="0" /><text alignment-baseline="text-after-edge" fill="#ffffff" font-family="Trebuchet MS" font-size="10" text-anchor="start" transform="translate(5,15)">Tally</text></g><g transform="translate(0,20)"><line stroke="#888888" stroke-dasharray="1,0" stroke-width="1" transform="translate(5,25.25)" x1="0" x2="30" y1="0" y2="0" /><line stroke="#888888" stroke-dasharray="1,0" stroke-width="1" transform="translate(5,50.5)" x1="0" x2="30" y1="0" y2="0" /><line stroke="#888888" stroke-dasharray="1,0" stroke-width="1" transform="translate(5,75.75)" x1="0" x2="30" y1="0" y2="0" /><line stroke="#888888" stroke-dasharray="1,0" stroke-width="1" transform="translate(5,101.0)" x1="0" x2="30" y1="0" y2="0" /><line stroke="#888888" stroke-dasharray="1,0" stroke-width="1" transform="translate(5,126.25)" x1="0" x2="30" y1="0" y2="0" /><line stroke="#888888" stroke-dasharray="1,0" stroke-width="1" transform="translate(5,151.5)" x1="0" x2="30" y1="0" y2="0" /></g></g></g></g><rect fill="none" height="171.5" stroke="#008080" stroke-width="1" width="388.0" x="0" y="0" /></g><g transform="translate(0,191.5)"><g><g transform="translate(0,0)"><g><g transform="translate(0,0)"><rect fill="#888888" height="20" stroke="#888888" stroke-width="1" width="133.0" x="0" y="0" /><text alignment-baseline="text-after-edge" fill="#ffffff" font-family="Trebuchet MS" font-size="10" text-anchor="start" transform="translate(5,15)">Habit</text></g><g transform="translate(0,20)"><line stroke="#888888" stroke-dasharray="1,0" stroke-width="1" transform="translate(5,25.25)" x1="0" x2="123.0" y1="0" y2="0" /><line stroke="#888888" stroke-dasharray="1,0" stroke-width="1" transform="translate(5,50.5)" x1="0" x2="123.0" y1="0" y2="0" /><line stroke="#888888" stroke-dasharray="1,0" stroke-width="1" transform="translate(5,75.75)" x1="0" x2="123.0" y1="0" y2="0" /><line stroke="#888888" stroke-dasharray="1,0" stroke-width="1" transform="translate(5,101.0)" x1="0" x2="123.0" y1="0" y2="0" /><line stroke="#888888" stroke-dasharray="1,0" stroke-width="1" transform="translate(5,126.25)" x1="0" x2="123.0" y1="0" y2="0" /><line stroke="#888888" stroke-dasharray="1,0" stroke-width="1" transform="translate(5,151.5)" x1="0" x2="123.0" y1="0" y2="0" /></g></g></g><g transform="translate(133.0,0)"><g><g transform="translate(0,0)"><rect fill="#888888" height="20" stroke="#888888" stroke-width="1" width="40" x="0" y="0" /><text alignment-baseline="text-after-edge" fill="#ffffff" font-family="Trebuchet MS" font-size="10" text-anchor="start" transform="translate(5,15)">Target</text></g><g transform="translate(0,20)"><line stroke="#888888" stroke-dasharray="1,0" stroke-width="1" transform="translate(5,25.25)" x1="0" x2="30" y1="0" y2="0" /><line stroke="#888888" stroke-dasharray="1,0" stroke-width="1" transform="translate(5,50.5)" x1="0" x2="30" y1="0" y2="0" /><line stroke="#888888" stroke-dasharray="1,0" stroke-width="1" transform="translate(5,75.75)" x1="0" x2="30" y1="0" y2="0" /><line stroke="#888888" stroke-dasharray="1,0" stroke-width="1" transform="translate(5,101.0)" x1="0" x2="30" y1="0" y2="0" /><line stroke="#888888" stroke-dasharray="1,0" stroke-width="1" transform="translate(5,126.25)" x1="0" x2="30" y1="0" y2="0" /><line stroke="#888888" stroke-dasharray="1,0" stroke-width="1" transform="translate(5,151.5)" x1="0" x2="30" y1="0" y2="0" /></g></g></g><g transform="translate(173.0,0)"><g><g transform="translate(0,0)"><rect fill="#888888" height="20" stroke="#888888" stroke-width="1" width="25" x="0" y="0" /><text alignment-baseline="text-after-edge" fill="#ffffff" font-family="Trebuchet MS" font-size="10" text-anchor="start" transform="translate(5,15)">Mon</text></g><g transform="translate(0,20)"><line stroke="#888888" stroke-dasharray="1,0" stroke-width="1" transform="translate(5,25.25)" x1="0" x2="15" y1="0" y2="0" /><line stroke="#888888" stroke-dasharray="1,0" stroke-width="1" transform="translate(5,50.5)" x1="0" x2="15" y1="0" y2="0" /><line stroke="#888888" stroke-dasharray="1,0" stroke-width="1" transform="translate(5,75.75)" x1="0" x2="15" y1="0" y2="0" /><line stroke="#888888" stroke-dasharray="1,0" stroke-width="1" transform="translate(5,101.0)" x1="0" x2="15" y1="0" y2="0" /><line stroke="#888888" stroke-dasharray="1,0" stroke-width="1" transform="translate(5,126.25)" x1="0" x2="15" y1="0" y2="0" /><line stroke="#888888" stroke-dasharray="1,0" stroke-width="1" transform="translate(5,151.5)" x1="0" x2="15" y1="0" y2="0" /></g></g></g><g transform="translate(198.0,0)"><g><g transform="translate(0,0)"><rect fill="#888888" height="20" stroke="#888888" stroke-width="1" width="25" x="0" y="0" /><text alignment-baseline="text-after-edge" fill="#ffffff" font-family="Trebuchet MS" font-size="10" text-anchor="start" transform="translate(5,15)">Tue</text></g><g transform="translate(0,20)"><line stroke="#888888" stroke-dasharray="1,0" stroke-width="1" transform="translate(5,25.25)" x1="0" x2="15" y1="0" y2="0" /><line stroke="#888888" stroke-dasharray="1,0" stroke-width="1" transform="translate(5,50.5)" x1="0" x2="15" y1="0" y2="0" /><line stroke="#888888" stroke-dasharray="1,0" stroke-width="1" transform="translate(5,75.75)" x1="0" x2="15" y1="0" y2="0" /><line stroke="#888888" stroke-dasharray="1,0" stroke-width="1" transform="translate(5,101.0)" x1="0" x2="15" y1="0" y2="0" /><line stroke="#888888" stroke-dasharray="1,0" stroke-width="1" transform="translate(5,126.25)" x1="0" x2="15" y1="0" y2="0" /><line stroke="#888888" stroke-dasharray="1,0" stroke-width="1" transform="translate(5,151.5)" x1="0" x2="15" y1="0" y2="0" /></g></g></g><g transform="translate(223.0,0)"><g><g transform="translate(0,0)"><rect fill="#888888" height="20" stroke="#888888" stroke-width="1" width="25" x="0" y="0" /><text alignment-baseline="text-after-edge" fill="#ffffff" font-family="Trebuchet MS" font-size="10" text-anchor="start" transform="translate(5,15)">Wed</text></g><g transform="translate(0,20)"><line stroke="#888888" stroke-dasharray="1,0" stroke-width="1" transform="translate(5,25.25)" x1="0" x2="15" y1="0" y2="0" /><line stroke="#888888" stroke-dasharray="1,0" stroke-width="1" transform="translate(5,50.5)" x1="0" x2="15" y1="0" y2="0" /><line stroke="#888888" stroke-dasharray="1,0" stroke-width="1" transform="translate(5,75.75)" x1="0" x2="15" y1="0" y2="0" /><line stroke="#888888" stroke-dasharray="1,0" stroke-width="1" transform="translate(5,101.0)" x1="0" x2="15" y1="0" y2="0" /><line stroke="#888888" stroke-dasharray="1,0" stroke-width="1" transform="translate(5,126.25)" x1="0" x2="15" y1="0" y2="0" /><line stroke="#888888" stroke-dasharray="1,0" stroke-width="1" transform="translate(5,151.5)" x1="0" x2="15" y1="0" y2="0" /></g></g></g><g transform="translate(248.0,0)"><g><g transform="translate(0,0)"><rect fill="#888888" height="20" stroke="#888888" stroke-width="1" width="25" x="0" y="0" /><text alignment-baseline="text-after-edge" fill="#ffffff" font-family="Trebuchet MS" font-size="10" text-anchor="start" transform="translate(5,15)">Thu</text></g><g transform="translate(0,20)"><line stroke="#888888" stroke-dasharray="1,0" stroke-width="1" transform="translate(5,25.25)" x1="0" x2="15" y1="0" y2="0" /><line stroke="#888888" stroke-dasharray="1,0" stroke-width="1" transform="translate(5,50.5)" x1="0" x2="15" y1="0" y2="0" /><line stroke="#888888" stroke-dasharray="1,0" stroke-width="1" transform="translate(5,75.75)" x1="0" x2="15" y1="0" y2="0" /><line stroke="#888888" stroke-dasharray="1,0" stroke-width="1" transform="translate(5,101.0)" x1="0" x2="15" y1="0" y2="0" /><line stroke="#888888" stroke-dasharray="1,0" stroke-width="1" transform="translate(5,126.25)" x1="0" x2="15" y1="0" y2="0" /><line stroke="#888888" stroke-dasharray="1,0" stroke-width="1" transform="translate(5,151.5)" x1="0" x2="15" y1="0" y2="0" /></g></g></g><g transform="translate(273.0,0)"><g><g transform="translate(0,0)"><rect fill="#888888" height="20" stroke="#888888" stroke-width="1" width="25" x="0" y="0" /><text alignment-baseline="text-after-edge" fill="#ffffff" font-family="Trebuchet MS" font-size="10" text-anchor="start" transform="translate(5,15)">Fri</text></g><g transform="translate(0,20)"><line stroke="#888888" stroke-dasharray="1,0" stroke-width="1" transform="translate(5,25.25)" x1="0" x2="15" y1="0" y2="0" /><line stroke="#888888" stroke-dasharray="1,0" stroke-width="1" transform="translate(5,50.5)" x1="0" x2="15" y1="0" y2="0" /><line stroke="#888888" stroke-dasharray="1,0" stroke-width="1" transform="translate(5,75.75)" x1="0" x2="15" y1="0" y2="0" /><line stroke="#888888" stroke-dasharray="1,0" stroke-width="1" transform="translate(5,101.0)" x1="0" x2="15" y1="0" y2="0" /><line stroke="#888888" stroke-dasharray="1,0" stroke-width="1" transform="translate(5,126.25)" x1="0" x2="15" y1="0" y2="0" /><line stroke="#888888" stroke-dasharray="1,0" stroke-width="1" transform="translate(5,151.5)" x1="0" x2="15" y1="0" y2="0" /></g></g></g><g transform="translate(298.0,0)"><g><g transform="translate(0,0)"><rect fill="#888888" height="20" stroke="#888888" stroke-width="1" width="25" x="0" y="0" /><text alignment-baseline="text-after-edge" fill="#ffffff" font-family="Trebuchet MS" font-size="10" text-anchor="start" transform="translate(5,15)">Sat</text></g><g transform="translate(0,20)"><line stroke="#888888" stroke-dasharray="1,0" stroke-width="1" transform="translate(5,25.25)" x1="0" x2="15" y1="0" y2="0" /><line stroke="#888888" stroke-dasharray="1,0" stroke-width="1" transform="translate(5,50.5)" x1="0" x2="15" y1="0" y2="0" /><line stroke="#888888" stroke-dasharray="1,0" stroke-width="1" transform="translate(5,75.75)" x1="0" x2="15" y1="0" y2="0" /><line stroke="#888888" stroke-dasharray="1,0" stroke-width="1" transform="translate(5,101.0)" x1="0" x2="15" y1="0" y2="0" /><line stroke="#888888" stroke-dasharray="1,0" stroke-width="1" transform="translate(5,126.25)" x1="0" x2="15" y1="0" y2="0" /><line stroke="#888888" stroke-dasharray="1,0" stroke-width="1" transform="translate(5,151.5)" x1="0" x2="15" y1="0" y2="0" /></g></g></g><g transform="translate(323.0,0)"><g><g transform="translate(0,0)"><rect fill="#888888" height="20" stroke="#888888" stroke-width="1" width="25" x="0" y="0" /><text alignment-baseline="text-after-edge" fill="#ffffff" font-family="Trebuchet MS" font-size="10" text-anchor="start" transform="translate(5,15)">Sun</text></g><g transform="translate(0,20)"><line stroke="#888888" stroke-dasharray="1,0" stroke-width="1" transform="translate(5,25.25)" x1="0" x2="15" y1="0" y2="0" /><line stroke="#888888" stroke-dasharray="1,0" stroke-width="1" transform="translate(5,50.5)" x1="0" x2="15" y1="0" y2="0" /><line stroke="#888888" stroke-dasharray="1,0" stroke-width="1" transform="translate(5,75.75)" x1="0" x2="15" y1="0" y2="0" /><line stroke="#888888" stroke-dasharray="1,0" stroke-width="1" transform="translate(5,101.0)" x1="0" x2="15" y1="0" y2="0" /><line stroke="#888888" stroke-dasharray="1,0" stroke-width="1" transform="translate(5,126.25)" x1="0" x2="15" y1="0" y2="0" /><line stroke="#888888" stroke-dasharray="1,0" stroke-width="1" transform="translate(5,151.5)" x1="0" x2="15" y1="0" y2="0" /></g></g></g><g transform="translate(348.0,0)"><g><g transform="translate(0,0)"><rect fill="#888888" height="20" stroke="#888888" stroke-width="1" width="40" x="0" y="0" /><text alignment-baseline="text-after-edge" fill="#ffffff" font-family="Trebuchet MS" font-size="10" text-anchor="start" transform="translate(5,15)">Tally</text></g><g transform="translate(0,20)"><line stroke="#888888" stroke-dasharray="1,0" stroke-width="1" transform="translate(5,25.25)" x1="0" x2="30" y1="0" y2="0" /><line stroke="#888888" stroke-dasharray="1,0" stroke-width="1" transform="translate(5,50.5)" x1="0" x2="30" y1="0" y2="0" /><line stroke="#888888" stroke-dasharray="1,0" stroke-width="1" transform="translate(5,75.75)" x1="0" x2="30" y1="0" y2="0" /><line stroke="#888888" stroke-dasharray="1,0" stroke-width="1" transform="translate(5,101.0)" x1="0" x2="30" y1="0" y2="0" /><line stroke="#888888" stroke-dasharray="1,0" stroke-width="1" transform="translate(5,126.25)" x1="0" x2="30" y1="0" y2="0" /><line stroke="#888888" stroke-dasharray="1,0" stroke-width="1" transform="translate(5,151.5)" x1="0" x2="30" y1="0" y2="0" /></g></g></g></g><rect fill="none" height="171.5" stroke="#008080" stroke-width="1" width="388.0" x="0" y="0" /></g><g transform="translate(0,373.0)"><g><g transform="translate(0,0)"><g><g transform="translate(0,0)"><rect fill="#888888" height="20" stroke="#888888" stroke-width="1" width="133.0" x="0" y="0" /><text alignment-baseline="text-after-edge" fill="#ffffff" font-family="Trebuchet MS" font-size="10" text-anchor="start" transform="translate(5,15)">Habit</text></g><g transform="translate(0,20)"><line stroke="#888888" stroke-dasharray="1,0" stroke-width="1" transform="translate(5,25.25)" x1="0" x2="123.0" y1="0" y2="0" /><line stroke="#888888" stroke-dasharray="1,0" stroke-width="1" transform="translate(5,50.5)" x1="0" x2="123.0" y1="0" y2="0" /><line stroke="#888888" stroke-dasharray="1,0" stroke-width="1" transform="translate(5,75.75)" x1="0" x2="123.0" y1="0" y2="0" /><line stroke="#888888" stroke-dasharray="1,0" stroke-width="1" transform="translate(5,101.0)" x1="0" x2="123.0" y1="0" y2="0" /><line stroke="#888888" stroke-dasharray="1,0" stroke-width="1" transform="translate(5,126.25)" x1="0" x2="123.0" y1="0" y2="0" /><line stroke="#888888" stroke-dasharray="1,0" stroke-width="1" transform="translate(5,151.5)" x1="0" x2="123.0" y1="0" y2="0" /></g></g></g><g transform="translate(133.0,0)"><g><g transform="translate(0,0)"><rect fill="#888888" height="20" stroke="#888888" stroke-width="1" width="40" x="0" y="0" /><text alignment-baseline="text-after-edge" fill="#ffffff" font-family="Trebuchet MS" font-size="10" text-anchor="start" transform="translate(5,15)">Target</text></g><g transform="translate(0,20)"><line stroke="#888888" stroke-dasharray="1,0" stroke-width="1" transform="translate(5,25.25)" x1="0" x2="30" y1="0" y2="0" /><line stroke="#888888" stroke-dasharray="1,0" stroke-width="1" transform="translate(5,50.5)" x1="0" x2="30" y1="0" y2="0" /><line stroke="#888888" stroke-dasharray="1,0" stroke-width="1" transform="translate(5,75.75)" x1="0" x2="30" y1="0" y2="0" /><line stroke="#888888" stroke-dasharray="1,0" stroke-width="1" transform="translate(5,101.0)" x1="0" x2="30" y1="0" y2="0" /><line stroke="#888888" stroke-dasharray="1,0" stroke-width="1" transform="translate(5,126.25)" x1="0" x2="30" y1="0" y2="0" /><line stroke="#888888" stroke-dasharray="1,0" stroke-width="1" transform="translate(5,151.5)" x1="0" x2="30" y1="0" y2="0" /></g></g></g><g transform="translate(173.0,0)"><g><g transform="translate(0,0)"><rect fill="#888888" height="20" stroke="#888888" stroke-width="1" width="25" x="0" y="0" /><text alignment-baseline="text-after-edge" fill="#ffffff" font-family="Trebuchet MS" font-size="10" text-anchor="start" transform="translate(5,15)">Mon</text></g><g transform="translate(0,20)"><line stroke="#888888" stroke-dasharray="1,0" stroke-width="1" transform="translate(5,25.25)" x1="0" x2="15" y1="0" y2="0" /><line stroke="#888888" stroke-dasharray="1,0" stroke-width="1" transform="translate(5,50.5)" x1="0" x2="15" y1="0" y2="0" /><line stroke="#888888" stroke-dasharray="1,0" stroke-width="1" transform="translate(5,75.75)" x1="0" x2="15" y1="0" y2="0" /><line stroke="#888888" stroke-dasharray="1,0" stroke-width="1" transform="translate(5,101.0)" x1="0" x2="15" y1="0" y2="0" /><line stroke="#888888" stroke-dasharray="1,0" stroke-width="1" transform="translate(5,126.25)" x1="0" x2="15" y1="0" y2="0" /><line stroke="#888888" stroke-dasharray="1,0" stroke-width="1" transform="translate(5,151.5)" x1="0" x2="15" y1="0" y2="0" /></g></g></g><g transform="translate(198.0,0)"><g><g transform="translate(0,0)"><rect fill="#888888" height="20" stroke="#888888" stroke-width="1" width="25" x="0" y="0" /><text alignment-baseline="text-after-edge" fill="#ffffff" font-family="Trebuchet MS" font-size="10" text-anchor="start" transform="translate(5,15)">Tue</text></g><g transform="translate(0,20)"><line stroke="#888888" stroke-dasharray="1,0" stroke-width="1" transform="translate(5,25.25)" x1="0" x2="15" y1="0" y2="0" /><line stroke="#888888" stroke-dasharray="1,0" stroke-width="1" transform="translate(5,50.5)" x1="0" x2="15" y1="0" y2="0" /><line stroke="#888888" stroke-dasharray="1,0" stroke-width="1" transform="translate(5,75.75)" x1="0" x2="15" y1="0" y2="0" /><line stroke="#888888" stroke-dasharray="1,0" stroke-width="1" transform="translate(5,101.0)" x1="0" x2="15" y1="0" y2="0" /><line stroke="#888888" stroke-dasharray="1,0" stroke-width="1" transform="translate(5,126.25)" x1="0" x2="15" y1="0" y2="0" /><line stroke="#888888" stroke-dasharray="1,0" stroke-width="1" transform="translate(5,151.5)" x1="0" x2="15" y1="0" y2="0" /></g></g></g><g transform="translate(223.0,0)"><g><g transform="translate(0,0)"><rect fill="#888888" height="20" stroke="#888888" stroke-width="1" width="25" x="0" y="0" /><text alignment-baseline="text-after-edge" fill="#ffffff" font-family="Trebuchet MS" font-size="10" text-anchor="start" transform="translate(5,15)">Wed</text></g><g transform="translate(0,20)"><line stroke="#888888" stroke-dasharray="1,0" stroke-width="1" transform="translate(5,25.25)" x1="0" x2="15" y1="0" y2="0" /><line stroke="#888888" stroke-dasharray="1,0" stroke-width="1" transform="translate(5,50.5)" x1="0" x2="15" y1="0" y2="0" /><line stroke="#888888" stroke-dasharray="1,0" stroke-width="1" transform="translate(5,75.75)" x1="0" x2="15" y1="0" y2="0" /><line stroke="#888888" stroke-dasharray="1,0" stroke-width="1" transform="translate(5,101.0)" x1="0" x2="15" y1="0" y2="0" /><line stroke="#888888" stroke-dasharray="1,0" stroke-width="1" transform="translate(5,126.25)" x1="0" x2="15" y1="0" y2="0" /><line stroke="#888888" stroke-dasharray="1,0" stroke-width="1" transform="translate(5,151.5)" x1="0" x2="15" y1="0" y2="0" /></g></g></g><g transform="translate(248.0,0)"><g><g transform="translate(0,0)"><rect fill="#888888" height="20" stroke="#888888" stroke-width="1" width="25" x="0" y="0" /><text alignment-baseline="text-after-edge" fill="#ffffff" font-family="Trebuchet MS" font-size="10" text-anchor="start" transform="translate(5,15)">Thu</text></g><g transform="translate(0,20)"><line stroke="#888888" stroke-dasharray="1,0" stroke-width="1" transform="translate(5,25.25)" x1="0" x2="15" y1="0" y2="0" /><line stroke="#888888" stroke-dasharray="1,0" stroke-width="1" transform="translate(5,50.5)" x1="0" x2="15" y1="0" y2="0" /><line stroke="#888888" stroke-dasharray="1,0" stroke-width="1" transform="translate(5,75.75)" x1="0" x2="15" y1="0" y2="0" /><line stroke="#888888" stroke-dasharray="1,0" stroke-width="1" transform="translate(5,101.0)" x1="0" x2="15" y1="0" y2="0" /><line stroke="#888888" stroke-dasharray="1,0" stroke-width="1" transform="translate(5,126.25)" x1="0" x2="15" y1="0" y2="0" /><line stroke="#888888" stroke-dasharray="1,0" stroke-width="1" transform="translate(5,151.5)" x1="0" x2="15" y1="0" y2="0" /></g></g></g><g transform="translate(273.0,0)"><g><g transform="translate(0,0)"><rect fill="#888888" height="20" stroke="#888888" stroke-width="1" width="25" x="0" y="0" /><text alignment-baseline="text-after-edge" fill="#ffffff" font-family="Trebuchet MS" font-size="10" text-anchor="start" transform="translate(5,15)">Fri</text></g><g transform="translate(0,20)"><line stroke="#888888" stroke-dasharray="1,0" stroke-width="1" transform="translate(5,25.25)" x1="0" x2="15" y1="0" y2="0" /><line stroke="#888888" stroke-dasharray="1,0" stroke-width="1" transform="translate(5,50.5)" x1="0" x2="15" y1="0" y2="0" /><line stroke="#888888" stroke-dasharray="1,0" stroke-width="1" transform="translate(5,75.75)" x1="0" x2="15" y1="0" y2="0" /><line stroke="#888888" stroke-dasharray="1,0" stroke-width="1" transform="translate(5,101.0)" x1="0" x2="15" y1="0" y2="0" /><line stroke="#888888" stroke-dasharray="1,0" stroke-width="1" transform="translate(5,126.25)" x1="0" x2="15" y1="0" y2="0" /><line stroke="#888888" stroke-dasharray="1,0" stroke-width="1" transform="translate(5,151.5)" x1="0" x2="15" y1="0" y2="0" /></g></g></g><g transform="translate(298.0,0)"><g><g transform="translate(0,0)"><rect fill="#888888" height="20" stroke="#888888" stroke-width="1" width="25" x="0" y="0" /><text alignment-baseline="text-after-edge" fill="#ffffff" font-family="Trebuchet MS" font-size="10" text-anchor="start" transform="translate(5,15)">Sat</text></g><g transform="translate(0,20)"><line stroke="#888888" stroke-dasharray="1,0" stroke-width="1" transform="translate(5,25.25)" x1="0" x2="15" y1="0" y2="0" /><line stroke="#888888" stroke-dasharray="1,0" stroke-width="1" transform="translate(5,50.5)" x1="0" x2="15" y1="0" y2="0" /><line stroke="#888888" stroke-dasharray="1,0" stroke-width="1" transform="translate(5,75.75)" x1="0" x2="15" y1="0" y2="0" /><line stroke="#888888" stroke-dasharray="1,0" stroke-width="1" transform="translate(5,101.0)" x1="0" x2="15" y1="0" y2="0" /><line stroke="#888888" stroke-dasharray="1,0" stroke-width="1" transform="translate(5,126.25)" x1="0" x2="15" y1="0" y2="0" /><line stroke="#888888" stroke-dasharray="1,0" stroke-width="1" transform="translate(5,151.5)" x1="0" x2="15" y1="0" y2="0" /></g></g></g><g transform="translate(323.0,0)"><g><g transform="translate(0,0)"><rect fill="#888888" height="20" stroke="#888888" stroke-width="1" width="25" x="0" y="0" /><text alignment-baseline="text-after-edge" fill="#ffffff" font-family="Trebuchet MS" font-size="10" text-anchor="start" transform="translate(5,15)">Sun</text></g><g transform="translate(0,20)"><line stroke="#888888" stroke-dasharray="1,0" stroke-width="1" transform="translate(5,25.25)" x1="0" x2="15" y1="0" y2="0" /><line stroke="#888888" stroke-dasharray="1,0" stroke-width="1" transform="translate(5,50.5)" x1="0" x2="15" y1="0" y2="0" /><line stroke="#888888" stroke-dasharray="1,0" stroke-width="1" transform="translate(5,75.75)" x1="0" x2="15" y1="0" y2="0" /><line stroke="#888888" stroke-dasharray="1,0" stroke-width="1" transform="translate(5,101.0)" x1="0" x2="15" y1="0" y2="0" /><line stroke="#888888" stroke-dasharray="1,0" stroke-width="1" transform="translate(5,126.25)" x1="0" x2="15" y1="0" y2="0" /><line stroke="#888888" stroke-dasharray="1,0" stroke-width="1" transform="translate(5,151.5)" x1="0" x2="15" y1="0" y2="0" /></g></g></g><g transform="translate(348.0,0)"><g><g transform="translate(0,0)"><rect fill="#888888" height="20" stroke="#888888" stroke-width="1" width="40" x="0" y="0" /><text alignment-baseline="text-after-edge" fill="#ffffff" font-family="Trebuchet MS" font-size="10" text-anchor="start" transform="translate(5,15)">Tally</text></g><g transform="translate(0,20)"><line stroke="#888888" stroke-dasharray="1,0" stroke-width="1" transform="translate(5,25.25)" x1="0" x2="30" y1="0" y2="0" /><line stroke="#888888" stroke-dasharray="1,0" stroke-width="1" transform="translate(5,50.5)" x1="0" x2="30" y1="0" y2="0" /><line stroke="#888888" stroke-dasharray="1,0" stroke-width="1" transform="translate(5,75.75)" x1="0" x2="30" y1="0" y2="0" /><line stroke="#888888" stroke-dasharray="1,0" stroke-width="1" transform="translate(5,101.0)" x1="0" x2="30" y1="0" y2="0" /><line stroke="#888888" stroke-dasharray="1,0" stroke-width="1" transform="translate(5,126.25)" x1="0" x2="30" y1="0" y2="0" /><line stroke="#888888" stroke-dasharray="1,0" stroke-width="1" transform="translate(5,151.5)" x1="0" x2="30" y1="0" y2="0" /></g></g></g></g><rect fill="none" height="171.5" stroke="#008080" stroke-width="1" width="388.0" x="0" y="0" /></g><g transform="translate(0,554.5)"><g><g transform="translate(0,0)"><g><g transform="translate(0,0)"><rect fill="#888888" height="20" stroke="#888888" stroke-width="1" width="133.0" x="0" y="0" /><text alignment-baseline="text-after-edge" fill="#ffffff" font-family="Trebuchet MS" font-size="10" text-anchor="start" transform="translate(5,15)">Habit</text></g><g transform="translate(0,20)"><line stroke="#888888" stroke-dasharray="1,0" stroke-width="1" transform="translate(5,25.25)" x1="0" x2="123.0" y1="0" y2="0" /><line stroke="#888888" stroke-dasharray="1,0" stroke-width="1" transform="translate(5,50.5)" x1="0" x2="123.0" y1="0" y2="0" /><line stroke="#888888" stroke-dasharray="1,0" stroke-width="1" transform="translate(5,75.75)" x1="0" x2="123.0" y1="0" y2="0" /><line stroke="#888888" stroke-dasharray="1,0" stroke-width="1" transform="translate(5,101.0)" x1="0" x2="123.0" y1="0" y2="0" /><line stroke="#888888" stroke-dasharray="1,0" stroke-width="1" transform="translate(5,126.25)" x1="0" x2="123.0" y1="0" y2="0" /><line stroke="#888888" stroke-dasharray="1,0" stroke-width="1" transform="translate(5,151.5)" x1="0" x2="123.0" y1="0" y2="0" /></g></g></g><g transform="translate(133.0,0)"><g><g transform="translate(0,0)"><rect fill="#888888" height="20" stroke="#888888" stroke-width="1" width="40" x="0" y="0" /><text alignment-baseline="text-after-edge" fill="#ffffff" font-family="Trebuchet MS" font-size="10" text-anchor="start" transform="translate(5,15)">Target</text></g><g transform="translate(0,20)"><line stroke="#888888" stroke-dasharray="1,0" stroke-width="1" transform="translate(5,25.25)" x1="0" x2="30" y1="0" y2="0" /><line stroke="#888888" stroke-dasharray="1,0" stroke-width="1" transform="translate(5,50.5)" x1="0" x2="30" y1="0" y2="0" /><line stroke="#888888" stroke-dasharray="1,0" stroke-width="1" transform="translate(5,75.75)" x1="0" x2="30" y1="0" y2="0" /><line stroke="#888888" stroke-dasharray="1,0" stroke-width="1" transform="translate(5,101.0)" x1="0" x2="30" y1="0" y2="0" /><line stroke="#888888" stroke-dasharray="1,0" stroke-width="1" transform="translate(5,126.25)" x1="0" x2="30" y1="0" y2="0" /><line stroke="#888888" stroke-dasharray="1,0" stroke-width="1" transform="translate(5,151.5)" x1="0" x2="30" y1="0" y2="0" /></g></g></g><g transform="translate(173.0,0)"><g><g transform="translate(0,0)"><rect fill="#888888" height="20" stroke="#888888" stroke-width="1" width="25" x="0" y="0" /><text alignment-baseline="text-after-edge" fill="#ffffff" font-family="Trebuchet MS" font-size="10" text-anchor="start" transform="translate(5,15)">Mon</text></g><g transform="translate(0,20)"><line stroke="#888888" stroke-dasharray="1,0" stroke-width="1" transform="translate(5,25.25)" x1="0" x2="15" y1="0" y2="0" /><line stroke="#888888" stroke-dasharray="1,0" stroke-width="1" transform="translate(5,50.5)" x1="0" x2="15" y1="0" y2="0" /><line stroke="#888888" stroke-dasharray="1,0" stroke-width="1" transform="translate(5,75.75)" x1="0" x2="15" y1="0" y2="0" /><line stroke="#888888" stroke-dasharray="1,0" stroke-width="1" transform="translate(5,101.0)" x1="0" x2="15" y1="0" y2="0" /><line stroke="#888888" stroke-dasharray="1,0" stroke-width="1" transform="translate(5,126.25)" x1="0" x2="15" y1="0" y2="0" /><line stroke="#888888" stroke-dasharray="1,0" stroke-width="1" transform="translate(5,151.5)" x1="0" x2="15" y1="0" y2="0" /></g></g></g><g transform="translate(198.0,0)"><g><g transform="translate(0,0)"><rect fill="#888888" height="20" stroke="#888888" stroke-width="1" width="25" x="0" y="0" /><text alignment-baseline="text-after-edge" fill="#ffffff" font-family="Trebuchet MS" font-size="10" text-anchor="start" transform="translate(5,15)">Tue</text></g><g transform="translate(0,20)"><line stroke="#888888" stroke-dasharray="1,0" stroke-width="1" transform="translate(5,25.25)" x1="0" x2="15" y1="0" y2="0" /><line stroke="#888888" stroke-dasharray="1,0" stroke-width="1" transform="translate(5,50.5)" x1="0" x2="15" y1="0" y2="0" /><line stroke="#888888" stroke-dasharray="1,0" stroke-width="1" transform="translate(5,75.75)" x1="0" x2="15" y1="0" y2="0" /><line stroke="#888888" stroke-dasharray="1,0" stroke-width="1" transform="translate(5,101.0)" x1="0" x2="15" y1="0" y2="0" /><line stroke="#888888" stroke-dasharray="1,0" stroke-width="1" transform="translate(5,126.25)" x1="0" x2="15" y1="0" y2="0" /><line stroke="#888888" stroke-dasharray="1,0" stroke-width="1" transform="translate(5,151.5)" x1="0" x2="15" y1="0" y2="0" /></g></g></g><g transform="translate(223.0,0)"><g><g transform="translate(0,0)"><rect fill="#888888" height="20" stroke="#888888" stroke-width="1" width="25" x="0" y="0" /><text alignment-baseline="text-after-edge" fill="#ffffff" font-family="Trebuchet MS" font-size="10" text-anchor="start" transform="translate(5,15)">Wed</text></g><g transform="translate(0,20)"><line stroke="#888888" stroke-dasharray="1,0" stroke-width="1" transform="translate(5,25.25)" x1="0" x2="15" y1="0" y2="0" /><line stroke="#888888" stroke-dasharray="1,0" stroke-width="1" transform="translate(5,50.5)" x1="0" x2="15" y1="0" y2="0" /><line stroke="#888888" stroke-dasharray="1,0" stroke-width="1" transform="translate(5,75.75)" x1="0" x2="15" y1="0" y2="0" /><line stroke="#888888" stroke-dasharray="1,0" stroke-width="1" transform="translate(5,101.0)" x1="0" x2="15" y1="0" y2="0" /><line stroke="#888888" stroke-dasharray="1,0" stroke-width="1" transform="translate(5,126.25)" x1="0" x2="15" y1="0" y2="0" /><line stroke="#888888" stroke-dasharray="1,0" stroke-width="1" transform="translate(5,151.5)" x1="0" x2="15" y1="0" y2="0" /></g></g></g><g transform="translate(248.0,0)"><g><g transform="translate(0,0)"><rect fill="#888888" height="20" stroke="#888888" stroke-width="1" width="25" x="0" y="0" /><text alignment-baseline="text-after-edge" fill="#ffffff" font-family="Trebuchet MS" font-size="10" text-anchor="start" transform="translate(5,15)">Thu</text></g><g transform="translate(0,20)"><line stroke="#888888" stroke-dasharray="1,0" stroke-width="1" transform="translate(5,25.25)" x1="0" x2="15" y1="0" y2="0" /><line stroke="#888888" stroke-dasharray="1,0" stroke-width="1" transform="translate(5,50.5)" x1="0" x2="15" y1="0" y2="0" /><line stroke="#888888" stroke-dasharray="1,0" stroke-width="1" transform="translate(5,75.75)" x1="0" x2="15" y1="0" y2="0" /><line stroke="#888888" stroke-dasharray="1,0" stroke-width="1" transform="translate(5,101.0)" x1="0" x2="15" y1="0" y2="0" /><line stroke="#888888" stroke-dasharray="1,0" stroke-width="1" transform="translate(5,126.25)" x1="0" x2="15" y1="0" y2="0" /><line stroke="#888888" stroke-dasharray="1,0" stroke-width="1" transform="translate(5,151.5)" x1="0" x2="15" y1="0" y2="0" /></g></g></g><g transform="translate(273.0,0)"><g><g transform="translate(0,0)"><rect fill="#888888" height="20" stroke="#888888" stroke-width="1" width="25" x="0" y="0" /><text alignment-baseline="text-after-edge" fill="#ffffff" font-family="Trebuchet MS" font-size="10" text-anchor="start" transform="translate(5,15)">Fri</text></g><g transform="translate(0,20)"><line stroke="#888888" stroke-dasharray="1,0" stroke-width="1" transform="translate(5,25.25)" x1="0" x2="15" y1="0" y2="0" /><line stroke="#888888" stroke-dasharray="1,0" stroke-width="1" transform="translate(5,50.5)" x1="0" x2="15" y1="0" y2="0" /><line stroke="#888888" stroke-dasharray="1,0" stroke-width="1" transform="translate(5,75.75)" x1="0" x2="15" y1="0" y2="0" /><line stroke="#888888" stroke-dasharray="1,0" stroke-width="1" transform="translate(5,101.0)" x1="0" x2="15" y1="0" y2="0" /><line stroke="#888888" stroke-dasharray="1,0" stroke-width="1" transform="translate(5,126.25)" x1="0" x2="15" y1="0" y2="0" /><line stroke="#888888" stroke-dasharray="1,0" stroke-width="1" transform="translate(5,151.5)" x1="0" x2="15" y1="0" y2="0" /></g></g></g><g transform="translate(298.0,0)"><g><g transform="translate(0,0)"><rect fill="#888888" height="20" stroke="#888888" stroke-width="1" width="25" x="0" y="0" /><text alignment-baseline="text-after-edge" fill="#ffffff" font-family="Trebuchet MS" font-size="10" text-anchor="start" transform="translate(5,15)">Sat</text></g><g transform="translate(0,20)"><line stroke="#888888" stroke-dasharray="1,0" stroke-width="1" transform="translate(5,25.25)" x1="0" x2="15" y1="0" y2="0" /><line stroke="#888888" stroke-dasharray="1,0" stroke-width="1" transform="translate(5,50.5)" x1="0" x2="15" y1="0" y2="0" /><line stroke="#888888" stroke-dasharray="1,0" stroke-width="1" transform="translate(5,75.75)" x1="0" x2="15" y1="0" y2="0" /><line stroke="#888888" stroke-dasharray="1,0" stroke-width="1" transform="translate(5,101.0)" x1="0" x2="15" y1="0" y2="0" /><line stroke="#888888" stroke-dasharray="1,0" stroke-width="1" transform="translate(5,126.25)" x1="0" x2="15" y1="0" y2="0" /><line stroke="#888888" stroke-dasharray="1,0" stroke-width="1" transform="translate(5,151.5)" x1="0" x2="15" y1="0" y2="0" /></g></g></g><g transform="translate(323.0,0)"><g><g transform="translate(0,0)"><rect fill="#888888" height="20" stroke="#888888" stroke-width="1" width="25" x="0" y="0" /><text alignment-baseline="text-after-edge" fill="#ffffff" font-family="Trebuchet MS" font-size="10" text-anchor="start" transform="translate(5,15)">Sun</text></g><g transform="translate(0,20)"><line stroke="#888888" stroke-dasharray="1,0" stroke-width="1" transform="translate(5,25.25)" x1="0" x2="15" y1="0" y2="0" /><line stroke="#888888" stroke-dasharray="1,0" stroke-width="1" transform="translate(5,50.5)" x1="0" x2="15" y1="0" y2="0" /><line stroke="#888888" stroke-dasharray="1,0" stroke-width="1" transform="translate(5,75.75)" x1="0" x2="15" y1="0" y2="0" /><line stroke="#888888" stroke-dasharray="1,0" stroke-width="1" transform="translate(5,101.0)" x1="0" x2="15" y1="0" y2="0" /><line stroke="#888888" stroke-dasharray="1,0" stroke-width="1" transform="translate(5,126.25)" x1="0" x2="15" y1="0" y2="0" /><line stroke="#888888" stroke-dasharray="1,0" stroke-width="1" transform="translate(5,151.5)" x1="0" x2="15" y1="0" y2="0" /></g></g></g><g transform="translate(348.0,0)"><g><g transform="translate(0,0)"><rect fill="#888888" height="20" stroke="#888888" stroke-width="1" width="40" x="0" y="0" /><text alignment-baseline="text-after-edge" fill="#ffffff" font-family="Trebuchet MS" font-size="10" text-anchor="start" transform="translate(5,15)">Tally</text></g><g transform="translate(0,20)"><line stroke="#888888" stroke-dasharray="1,0" stroke-width="1" transform="translate(5,25.25)" x1="0" x2="30" y1="0" y2="0" /><line stroke="#888888" stroke-dasharray="1,0" stroke-width="1" transform="translate(5,50.5)" x1="0" x2="30" y1="0" y2="0" /><line stroke="#888888" stroke-dasharray="1,0" stroke-width="1" transform="translate(5,75.75)" x1="0" x2="30" y1="0" y2="0" /><line stroke="#888888" stroke-dasharray="1,0" stroke-width="1" transform="translate(5,101.0)" x1="0" x2="30" y1="0" y2="0" /><line stroke="#888888" stroke-dasharray="1,0" stroke-width="1" transform="translate(5,126.25)" x1="0" x2="30" y1="0" y2="0" /><line stroke="#888888" stroke-dasharray="1,0" stroke-width="1" transform="translate(5,151.5)" x1="0" x2="30" y1="0" y2="0" /></g></g></g></g><rect fill="none" height="171.5" stroke="#008080" stroke-width="1" width="388.0" x="0" y="0" /></g></g></g><g><line stroke="#888888" x1="528.0" x2="552.0" y1="24.0" y2="24.0" /><line stroke="#888888" x1="552.0" x2="552.0" y1="24.0" y2="72.0" /><line stroke="#888888" x1="552.0" x2="528.0" y1="72.0" y2="72.0" /></g><text alignment-baseline="text-after-edge" fill="#444444" font-family="Trebuchet MS" font-size="10" text-anchor="start" transform="rotate(90,533.0,29.0)" x="533.0" y="29.0">Today</text><line stroke="#888888" stroke-dasharray="2,6" x1="528.0" x2="528.0" y1="24.0" y2="788.0" /></svg>