<?xml version="1.0" encoding="utf-8" ?>
<svg baseProfile="tiny" height="8.5in" version="1.2" width="11in" xmlns="http://www.w3.org/2000/svg" xmlns:ev="http://www.w3.org/2001/xml-events" xmlns:xlink="http://www.w3.org/1999/xlink"><defs /><g transform="translate(96, 24.0)"><rect fill="none" height="768.0" stroke="#008080" width="408.0" x="0" y="0" /><g transform="translate(10, 10)"><rect fill="none" height="22" stroke="#008080" stroke-width="1" width="388.0" x="0" y="0" /><text alignment-baseline="text-after-edge" fill="#444444" font-family="Trebuchet MS" font-size="12" text-anchor="start" transform="translate(5,17)">Imagine a Future...</text></g><g transform="translate(10, 32)"><g transform="translate(0,0)"><g><line stroke="#888888" stroke-dasharray="1,5" stroke-width="1" transform="translate(0,29.833333333333332)" x1="0" x2="388.0" y1="0" y2="0" /><line stroke="#888888" stroke-dasharray="1,5" stroke-width="1" transform="translate(0,59.666666666666664)" x1="0" x2="388.0" y1="0" y2="0" /><line stroke="#888888" stroke-dasharray="1,5" stroke-width="1" transform="translate(0,89.5)" x1="0" x2="388.0" y1="0" y2="0" /><line stroke="#888888" stroke-dasharray="1,5" stroke-width="1" transform="translate(0,119.33333333333333)" x1="0" x2="388.0" y1="0" y2="0" /><line stroke="#888888" stroke-dasharray="1,5" stroke-width="1" transform="translate(0,149.16666666666666)" x1="0" x2="388.0" y1="0" y2="0" /><line stroke="#888888" stroke-dasharray="1,5" stroke-width="1" transform="translate(0,179.0)" x1="0" x2="388.0" y1="0" y2="0" /><line stroke="#888888" stroke-dasharray="1,5" stroke-width="1" transform="translate(0,208.83333333333334)" x1="0" x2="388.0" y1="0" y2="0" /><line stroke="#888888" stroke-dasharray="1,5" stroke-width="1" transform="translate(0,238.66666666666669)" x1="0" x2="388.0" y1="0" y2="0" /><line stroke="#888888" stroke-dasharray="1,5" stroke-width="1" transform="translate(0,268.5)" x1="0" x2="388.0" y1="0" y2="0" /><line stroke="#888888" stroke-dasharray="1,5" stroke-width="1" transform="translate(0,298.3333333333333)" x1="0" x2="388.0" y1="0" y2="0" /><line stroke="#888888" stroke-dasharray="1,5" stroke-width="1" transform="translate(0,328.16666666666663)" x1="0" x2="388.0" y1="0" y2="0" /><line stroke="#888888" stroke-dasharray="1,5" stroke-width="1" transform="translate(0,357.99999999999994)" x1="0" x2="388.0" y1="0" y2="0" /><line stroke="#888888" stroke-dasharray="1,5" stroke-width="1" transform="translate(0,387.83333333333326)" x1="0" x2="388.0" y1="0" y2="0" /><line stroke="#888888" stroke-dasharray="1,5" stroke-width="1" transform="translate(0,417.6666666666666)" x1="0" x2="388.0" y1="0" y2="0" /><line stroke="#888888" stroke-dasharray="1,5" stroke-width="1" transform="translate(0,447.4999999999999)" x1="0" x2="388.0" y1="0" y2="0" /><line stroke="#888888" stroke-dasharray="1,5" stroke-width="1" transform="translate(0,477.3333333333332)" x1="0" x2="388.0" y1="0" y2="0" /><line stroke="#888888" stroke-dasharray="1,5" stroke-width="1" transform="translate(0,507.1666666666665)" x1="0" x2="388.0" y1="0" y2="0" /><line stroke="#888888" stroke-dasharray="1,5" stroke-width="1" transform="translate(0,536.9999999999999)" x1="0" x2="388.0" y1="0" y2="0" /><line stroke="#888888" stroke-dasharray="1,5" stroke-width="1" transform="translate(0,566.8333333333333)" x1="0" x2="388.0" y1="0" y2="0" /><line stroke="#888888" stroke-dasharray="1,5" stroke-width="1" transform="translate(0,596.6666666666666)" x1="0" x2="388.0" y1="0" y2="0" /><line stroke="#888888" stroke-dasharray="1,5" stroke-width="1" transform="translate(0,626.5)" x1="0" x2="388.0" y1="0" y2="0" /><line stroke="#888888" stroke-dasharray="1,5" stroke-width="1" transform="translate(0,656.3333333333334)" x1="0" x2="388.0" y1="0" y2="0" /><line stroke="#888888" stroke-dasharray="1,5" stroke-width="1" transform="translate(0,686.1666666666667)" x1="0" x2="388.0" y1="0" y2="0" /><line stroke="#888888" stroke-dasharray="1,5" stroke-width="1" transform="translate(0,716.0000000000001)" x1="0" x2="388.0" y1="0" y2="0" /></g><g><line stroke="#888888" stroke-dasharray="1,0" stroke-width="1" transform="translate(0,19.888888888888886)" x1="0" x2="388.0" y1="0" y2="0" /><line stroke="#888888" stroke-dasharray="1,0" stroke-width="1" transform="translate(0,49.722222222222214)" x1="0" x2="388.0" y1="0" y2="0" /><line stroke="#888888" stroke-dasharray="1,0" stroke-width="1" transform="translate(0,79.55555555555554)" x1="0" x2="388.0" y1="0" y2="0" /><line stroke="#888888" stroke-dasharray="1,0" stroke-width="1" transform="translate(0,109.38888888888887)" x1="0" x2="388.0" y1="0" y2="0" /><line stroke="#888888" stroke-dasharray="1,0" stroke-width="1" transform="translate(0,139.2222222222222)" x1="0" x2="388.0" y1="0" y2="0" /><line stroke="#888888" stroke-dasharray="1,0" stroke-width="1" transform="translate(0,169.05555555555554)" x1="0" x2="388.0" y1="0" y2="0" /><line stroke="#888888" stroke-dasharray="1,0" stroke-width="1" transform="translate(0,198.88888888888889)" x1="0" x2="388.0" y1="0" y2="0" /><line stroke="#888888" stroke-dasharray="1,0" stroke-width="1" transform="translate(0,228.72222222222223)" x1="0" x2="388.0" y1="0" y2="0" /><line stroke="#888888" stroke-dasharray="1,0" stroke-width="1" transform="translate(0,258.55555555555554)" x1="0" x2="388.0" y1="0" y2="0" /><line stroke="#888888" stroke-dasharray="1,0" stroke-width="1" transform="translate(0,288.38888888888886)" x1="0" x2="388.0" y1="0" y2="0" /><line stroke="#888888" stroke-dasharray="1,0" stroke-width="1" transform="translate(0,318.2222222222222)" x1="0" x2="388.0" y1="0" y2="0" /><line stroke="#888888" stroke-dasharray="1,0" stroke-width="1" transform="translate(0,348.0555555555555)" x1="0" x2="388.0" y1="0" y2="0" /><line stroke="#888888" stroke-dasharray="1,0" stroke-width="1" transform="translate(0,377.8888888888888)" x1="0" x2="388.0" y1="0" y2="0" /><line stroke="#888888" stroke-dasharray="1,0" stroke-width="1" transform="translate(0,407.7222222222221)" x1="0" x2="388.0" y1="0" y2="0" /><line stroke="#888888" stroke-dasharray="1,0" stroke-width="1" transform="translate(0,437.55555555555543)" x1="0" x2="388.0" y1="0" y2="0" /><line stroke="#888888" stroke-dasharray="1,0" stroke-width="1" transform="translate(0,467.38888888888874)" x1="0" x2="388.0" y1="0" y2="0" /><line stroke="#888888" stroke-dasharray="1,0" stroke-width="1" transform="translate(0,497.22222222222206)" x1="0" x2="388.0" y1="0" y2="0" /><line stroke="#888888" stroke-dasharray="1,0" stroke-width="1" transform="translate(0,527.0555555555554)" x1="0" x2="388.0" y1="0" y2="0" /><line stroke="#888888" stroke-dasharray="1,0" stroke-width="1" transform="translate(0,556.8888888888888)" x1="0" x2="388.0" y1="0" y2="0" /><line stroke="#888888" stroke-dasharray="1,0" stroke-width="1" transform="translate(0,586.7222222222222)" x1="0" x2="388.0" y1="0" y2="0" /><line stroke="#888888" stroke-dasharray="1,0" stroke-width="1" transform="translate(0,616.5555555555555)" x1="0" x2="388.0" y1="0" y2="0" /><line stroke="#888888" stroke-dasharray="1,0" stroke-width="1" transform="translate(0,646.3888888888889)" x1="0" x2="388.0" y1="0" y2="0" /><line stroke="#888888" stroke-dasharray="1,0" stroke-width="1" transform="translate(0,676.2222222222223)" x1="0" x2="388.0" y1="0" y2="0" /><line stroke="#888888" stroke-dasharray="1,0" stroke-width="1" transform="translate(0,706.0555555555557)" x1="0" x2="388.0" y1="0" y2="0" /></g></g></g></g><g transform="translate(624.0, 24.0)"><rect fill="none" height="768.0" stroke="#008080" width="408.0" x="0" y="0" /><g transform="translate(10, 10)"><rect fill="none" height="22" stroke="#008080" stroke-width="1" width="388.0" x="0" y="0" /><text alignment-baseline="text-after-edge" fill="#444444" font-family="Trebuchet MS" font-size="12" text-anchor="start" transform="translate(5,17)">The Consequences of Inaction</text></g><g transform="translate(10, 32)"><g transform="translate(0,0)"><rect fill="none" height="70.0" stroke="#008080" stroke-width="1" width="388.0" x="0" y="0" /><text alignment-baseline="text-after-edge" fill="#444444" font-family="Ubuntu Mono" font-size="10" text-anchor="start" transform="translate(5,17.0)">Though it may feel unsettling, envision the genuine consequences of</text><text alignment-baseline="text-after-edge" fill="#444444" font-family="Ubuntu Mono" font-size="10" text-anchor="start" transform="translate(5,29.0)">not honoring your commitments. Picture the most serious yet</text><text alignment-baseline="text-after-edge" fill="#444444" font-family="Ubuntu Mono" font-size="10" text-anchor="start" transform="translate(5,41.0)">believable outcome. What does that scenario look like? Who do you</text><text alignment-baseline="text-after-edge" fill="#444444" font-family="Ubuntu Mono" font-size="10" text-anchor="start" transform="translate(5,53.0)">become, and how are your health, finances, and relationships</text><text alignment-baseline="text-after-edge" fill="#444444" font-family="Ubuntu Mono" font-size="10" text-anchor="start" transform="translate(5,65.0)">affected?</text></g><g transform="translate(0,70.0)"><g><line stroke="#888888" stroke-dasharray="1,5" stroke-width="1" transform="translate(0,32.3)" x1="0" x2="388.0" y1="0" y2="0" /><line stroke="#888888" stroke-dasharray="1,5" stroke-width="1" transform="translate(0,64.6)" x1="0" x2="388.0" y1="0" y2="0" /><line stroke="#888888" stroke-dasharray="1,5" stroke-width="1" transform="translate(0,96.89999999999999)" x1="0" x2="388.0" y1="0" y2="0" /><line stroke="#888888" stroke-dasharray="1,5" stroke-width="1" transform="translate(0,129.2)" x1="0" x2="388.0" y1="0" y2="0" /><line stroke="#888888" stroke-dasharray="1,5" stroke-width="1" transform="translate(0,161.5)" x1="0" x2="388.0" y1="0" y2="0" /><line stroke="#888888" stroke-dasharray="1,5" stroke-width="1" transform="translate(0,193.8)" x1="0" x2="388.0" y1="0" y2="0" /><line stroke="#888888" stroke-dasharray="1,5" stroke-width="1" transform="translate(0,226.10000000000002)" x1="0" x2="388.0" y1="0" y2="0" /><line stroke="#888888" stroke-dasharray="1,5" stroke-width="1" transform="translate(0,258.40000000000003)" x1="0" x2="388.0" y1="0" y2="0" /><line stroke="#888888" stroke-dasharray="1,5" stroke-width="1" transform="translate(0,290.70000000000005)" x1="0" x2="388.0" y1="0" y2="0" /><line stroke="#888888" stroke-dasharray="1,5" stroke-width="1" transform="translate(0,323.00000000000006)" x1="0" x2="388.0" y1="0" y2="0" /><line stroke="#888888" stroke-dasharray="1,5" stroke-width="1" transform="translate(0,355.30000000000007)" x1="0" x2="388.0" y1="0" y2="0" /><line stroke="#888888" stroke-dasharray="1,5" stroke-width="1" transform="translate(0,387.6000000000001)" x1="0" x2="388.0" y1="0" y2="0" /><line stroke="#888888" stroke-dasharray="1,5" stroke-width="1" transform="translate(0,419.9000000000001)" x1="0" x2="388.0" y1="0" y2="0" /><line stroke="#888888" stroke-dasharray="1,5" stroke-width="1" transform="translate(0,452.2000000000001)" x1="0" x2="388.0" y1="0" y2="0" /><line stroke="#888888" stroke-dasharray="1,5" stroke-width="1" transform="translate(0,484.5000000000001)" x1="0" x2="388.0" y1="0" y2="0" /><line stroke="#888888" stroke-dasharray="1,5" stroke-width="1" transform="translate(0,516.8000000000001)" x1="0" x2="388.0" y1="0" y2="0" /><line stroke="#888888" stroke-dasharray="1,5" stroke-width="1" transform="translate(0,549.1)" x1="0" x2="388.0" y1="0" y2="0" /><line stroke="#888888" stroke-dasharray="1,5" stroke-width="1" transform="translate(0,581.4)" x1="0" x2="388.0" y1="0" y2="0" /><line stroke="#888888" stroke-dasharray="1,5" stroke-width="1" transform="translate(0,613.6999999999999)" x1="0" x2="388.0" y1="0" y2="0" /><line stroke="#888888" stroke-dasharray="1,5" stroke-width="1" transform="translate(0,645.9999999999999)" x1="0" x2="388.0" y1="0" y2="0" /></g><g><line stroke="#888888" stroke-dasharray="1,0" stroke-width="1" transform="translate(0,21.53333333333333)" x1="0" x2="388.0" y1="0" y2="0" /><line stroke="#888888" stroke-dasharray="1,0" stroke-width="1" transform="translate(0,53.83333333333333)" x1="0" x2="388.0" y1="0" y2="0" /><line stroke="#888888" stroke-dasharray="1,0" stroke-width="1" transform="translate(0,86.13333333333333)" x1="0" x2="388.0" y1="0" y2="0" /><line stroke="#888888" stroke-dasharray="1,0" stroke-width="1" transform="translate(0,118.43333333333332)" x1="0" x2="388.0" y1="0" y2="0" /><line stroke="#888888" stroke-dasharray="1,0" stroke-width="1" transform="translate(0,150.73333333333332)" x1="0" x2="388.0" y1="0" y2="0" /><line stroke="#888888" stroke-dasharray="1,0" stroke-width="1" transform="translate(0,183.0333333333333)" x1="0" x2="388.0" y1="0" y2="0" /><line stroke="#888888" stroke-dasharray="1,0" stroke-width="1" transform="translate(0,215.33333333333331)" x1="0" x2="388.0" y1="0" y2="0" /><line stroke="#888888" stroke-dasharray="1,0" stroke-width="1" transform="translate(0,247.63333333333333)" x1="0" x2="388.0" y1="0" y2="0" /><line stroke="#888888" stroke-dasharray="1,0" stroke-width="1" transform="translate(0,279.93333333333334)" x1="0" x2="388.0" y1="0" y2="0" /><line stroke="#888888" stroke-dasharray="1,0" stroke-width="1" transform="translate(0,312.23333333333335)" x1="0" x2="388.0" y1="0" y2="0" /><line stroke="#888888" stroke-dasharray="1,0" stroke-width="1" transform="translate(0,344.53333333333336)" x1="0" x2="388.0" y1="0" y2="0" /><line stroke="#888888" stroke-dasharray="1,0" stroke-width="1" transform="translate(0,376.83333333333337)" x1="0" x2="388.0" y1="0" y2="0" /><line stroke="#888888" stroke-dasharray="1,0" stroke-width="1" transform="translate(0,409.1333333333334)" x1="0" x2="388.0" y1="0" y2="0" /><line stroke="#888888" stroke-dasharray="1,0" stroke-width="1" transform="translate(0,441.4333333333334)" x1="0" x2="388.0" y1="0" y2="0" /><line stroke="#888888" stroke-dasharray="1,0" stroke-width="1" transform="translate(0,473.7333333333334)" x1="0" x2="388.0" y1="0" y2="0" /><line stroke="#888888" stroke-dasharray="1,0" stroke-width="1" transform="translate(0,506.0333333333334)" x1="0" x2="388.0" y1="0" y2="0" /><line stroke="#888888" stroke-dasharray="1,0" stroke-width="1" transform="translate(0,538.3333333333334)" x1="0" x2="388.0" y1="0" y2="0" /><line stroke="#888888" stroke-dasharray="1,0" stroke-width="1" transform="translate(0,570.6333333333333)" x1="0" x2="388.0" y1="0" y2="0" /><line stroke="#888888" stroke-dasharray="1,0" stroke-width="1" transform="translate(0,602.9333333333333)" x1="0" x2="388.0" y1="0" y2="0" /><line stroke="#888888" stroke-dasharray="1,0" stroke-width="1" transform="translate(0,635.2333333333332)" x1="0" x2="388.0" y1="0" y2="0" /></g></g></g></g></svg>