<?xml version="1.0" encoding="utf-8" ?>
<svg baseProfile="tiny" height="8.5in" version="1.2" width="11in" xmlns="http://www.w3.org/2000/svg" xmlns:ev="http://www.w3.org/2001/xml-events" xmlns:xlink="http://www.w3.org/1999/xlink"><defs /><g transform="translate(96, 24.0)"><rect fill="none" height="768.0" stroke="#008080" width="408.0" x="0" y="0" /><g transform="translate(10, 10)"><rect fill="none" height="22" stroke="#008080" stroke-width="1" width="388.0" x="0" y="0" /><text alignment-baseline="text-after-edge" fill="#444444" font-family="Trebuchet MS" font-size="12" text-anchor="start" transform="translate(5,17)">Week #            Reflections and Insights</text></g><g transform="translate(10, 32)"><g transform="translate(0,10)"><text alignment-baseline="text-after-edge" fill="#444444" font-family="Ubuntu Mono" font-size="10" text-anchor="start" transform="translate(5,15)">Last week I built momentum:    disagree  -2  -1   0  +1  +2  agree</text></g><g transform="translate(0,40)"><g><g transform="translate(0,0)"><rect fill="#888888" height="20" stroke="#888888" stroke-width="1" width="388.0" x="0" y="0" /><text alignment-baseline="text-after-edge" fill="#ffffff" font-family="Trebuchet MS" font-size="10" text-anchor="start" transform="translate(5,15)">Notable achievements from last week:</text></g><g transform="translate(0,20)"><g><line stroke="#888888" stroke-dasharray="1,5" stroke-width="1" transform="translate(0,30.0)" x1="0" x2="388.0" y1="0" y2="0" /><line stroke="#888888" stroke-dasharray="1,5" stroke-width="1" transform="translate(0,60.0)" x1="0" x2="388.0" y1="0" y2="0" /></g><g><line stroke="#888888" stroke-dasharray="1,0" stroke-width="1" transform="translate(0,20.0)" x1="0" x2="388.0" y1="0" y2="0" /><line stroke="#888888" stroke-dasharray="1,0" stroke-width="1" transform="translate(0,50.0)" x1="0" x2="388.0" y1="0" y2="0" /></g></g></g></g><g transform="translate(0,130)"><g><g transform="translate(0,0)"><text alignment-baseline="text-after-edge" fill="#444444" font-family="Trebuchet MS" font-size="10" text-anchor="start" transform="translate(5,15)">Lessons Learned From Last Week</text></g><g transform="translate(0,20)"><g><line stroke="#888888" stroke-dasharray="1,5" stroke-width="1" transform="translate(0,30.0)" x1="0" x2="388.0" y1="0" y2="0" /><line stroke="#888888" stroke-dasharray="1,5" stroke-width="1" transform="translate(0,60.0)" x1="0" x2="388.0" y1="0" y2="0" /></g><g><line stroke="#888888" stroke-dasharray="1,0" stroke-width="1" transform="translate(0,20.0)" x1="0" x2="388.0" y1="0" y2="0" /><line stroke="#888888" stroke-dasharray="1,0" stroke-width="1" transform="translate(0,50.0)" x1="0" x2="388.0" y1="0" y2="0" /></g></g></g><rect fill="none" height="80" stroke="#008080" stroke-width="1" width="388.0" x="0" y="0" /></g><g transform="translate(0,220)"><g><g transform="translate(0,0)"><rect fill="#888888" height="20" stroke="#888888" stroke-width="1" width="388.0" x="0" y="0" /><text alignment-baseline="text-after-edge" fill="#ffffff" font-family="Trebuchet MS" font-size="10" text-anchor="start" transform="translate(5,15)">Unfinished Business</text></g><g transform="translate(0,20)"><g><line stroke="#888888" stroke-dasharray="1,5" stroke-width="1" transform="translate(0,30.0)" x1="0" x2="388.0" y1="0" y2="0" /><line stroke="#888888" stroke-dasharray="1,5" stroke-width="1" transform="translate(0,60.0)" x1="0" x2="388.0" y1="0" y2="0" /></g><g><line stroke="#888888" stroke-dasharray="1,0" stroke-width="1" transform="translate(0,20.0)" x1="0" x2="388.0" y1="0" y2="0" /><line stroke="#888888" stroke-dasharray="1,0" stroke-width="1" transform="translate(0,50.0)" x1="0" x2="388.0" y1="0" y2="0" /></g></g></g></g><g transform="translate(0,310)"><g><g transform="translate(0,0)"><rect fill="#888888" height="20" stroke="#888888" stroke-width="1" width="388.0" x="0" y="0" /><text alignment-baseline="text-after-edge" fill="#ffffff" font-family="Trebuchet MS" font-size="10" text-anchor="start" transform="translate(5,15)">I appreciate...</text></g><g transform="translate(0,20)"><g><line stroke="#888888" stroke-dasharray="1,5" stroke-width="1" transform="translate(0,36.0)" x1="0" x2="388.0" y1="0" y2="0" /></g><g><line stroke="#888888" stroke-dasharray="1,5" stroke-width="1" transform="translate(0,24.0)" x1="0" x2="388.0" y1="0" y2="0" /></g></g></g><rect fill="none" height="56.0" stroke="#008080" stroke-width="1" width="388.0" x="0" y="0" /></g><g transform="translate(0,376.0)"><g><g transform="translate(0,0)"><text alignment-baseline="text-after-edge" fill="#444444" font-family="Ubuntu Mono" font-size="10" text-anchor="start" transform="translate(5,15)">What do I need to prioritize for growth?</text></g><g transform="translate(0,20)"><g><line stroke="#888888" stroke-dasharray="1,5" stroke-width="1" transform="translate(0,30.0)" x1="0" x2="388.0" y1="0" y2="0" /><line stroke="#888888" stroke-dasharray="1,5" stroke-width="1" transform="translate(0,60.0)" x1="0" x2="388.0" y1="0" y2="0" /></g><g><line stroke="#888888" stroke-dasharray="1,0" stroke-width="1" transform="translate(0,20.0)" x1="0" x2="388.0" y1="0" y2="0" /><line stroke="#888888" stroke-dasharray="1,0" stroke-width="1" transform="translate(0,50.0)" x1="0" x2="388.0" y1="0" y2="0" /></g></g></g></g><g transform="translate(0,466.0)"><g><g transform="translate(0,0)"><text alignment-baseline="text-after-edge" fill="#444444" font-family="Ubuntu Mono" font-size="10" text-anchor="start" transform="translate(5,15)">Thoughts and Reflections</text></g><g transform="translate(0,20)"><g><line stroke="#888888" stroke-dasharray="1,5" stroke-width="1" transform="translate(0,30.0)" x1="0" x2="388.0" y1="0" y2="0" /><line stroke="#888888" stroke-dasharray="1,5" stroke-width="1" transform="translate(0,60.0)" x1="0" x2="388.0" y1="0" y2="0" /><line stroke="#888888" stroke-dasharray="1,5" stroke-width="1" transform="translate(0,90.0)" x1="0" x2="388.0" y1="0" y2="0" /><line stroke="#888888" stroke-dasharray="1,5" stroke-width="1" transform="translate(0,120.0)" x1="0" x2="388.0" y1="0" y2="0" /><line stroke="#888888" stroke-dasharray="1,5" stroke-width="1" transform="translate(0,150.0)" x1="0" x2="388.0" y1="0" y2="0" /><line stroke="#888888" stroke-dasharray="1,5" stroke-width="1" transform="translate(0,180.0)" x1="0" x2="388.0" y1="0" y2="0" /><line stroke="#888888" stroke-dasharray="1,5" stroke-width="1" transform="translate(0,210.0)" x1="0" x2="388.0" y1="0" y2="0" /><line stroke="#888888" stroke-dasharray="1,5" stroke-width="1" transform="translate(0,240.0)" x1="0" x2="388.0" y1="0" y2="0" /></g><g><line stroke="#888888" stroke-dasharray="1,0" stroke-width="1" transform="translate(0,20.0)" x1="0" x2="388.0" y1="0" y2="0" /><line stroke="#888888" stroke-dasharray="1,0" stroke-width="1" transform="translate(0,50.0)" x1="0" x2="388.0" y1="0" y2="0" /><line stroke="#888888" stroke-dasharray="1,0" stroke-width="1" transform="translate(0,80.0)" x1="0" x2="388.0" y1="0" y2="0" /><line stroke="#888888" stroke-dasharray="1,0" stroke-width="1" transform="translate(0,110.0)" x1="0" x2="388.0" y1="0" y2="0" /><line stroke="#888888" stroke-dasharray="1,0" stroke-width="1" transform="translate(0,140.0)" x1="0" x2="388.0" y1="0" y2="0" /><line stroke="#888888" stroke-dasharray="1,0" stroke-width="1" transform="translate(0,170.0)" x1="0" x2="388.0" y1="0" y2="0" /><line stroke="#888888" stroke-dasharray="1,0" stroke-width="1" transform="translate(0,200.0)" x1="0" x2="388.0" y1="0" y2="0" /><line stroke="#888888" stroke-dasharray="1,0" stroke-width="1" transform="translate(0,230.0)" x1="0" x2="388.0" y1="0" y2="0" /></g></g></g><rect fill="none" height="260" stroke="#008080" stroke-width="1" width="388.0" x="0" y="0" /></g></g></g><g transform="translate(624.0, 24.0)"><rect fill="none" height="768.0" stroke="#008080" width="408.0" x="0" y="0" /><g transform="translate(10, 10)"><rect fill="none" height="22" stroke="#008080" stroke-width="1" width="388.0" x="0" y="0" /><text alignment-baseline="text-after-edge" fill="#444444" font-family="Trebuchet MS" font-size="12" text-anchor="start" transform="translate(5,17)">Goals for Week #             /          /  20          →          /          /  20          </text></g><g transform="translate(10, 32)"><g transform="translate(0,10)"><g><g transform="translate(0,0)"><g><g transform="translate(0,0)"><text alignment-baseline="text-after-edge" fill="#444444" font-family="Trebuchet MS" font-size="10" text-anchor="start" transform="translate(5,15)">Goal 1</text></g><g transform="translate(0,20)"><g><line stroke="#888888" stroke-dasharray="1,5" stroke-width="1" transform="translate(5,30.0)" x1="0" x2="184.0" y1="0" y2="0" /><line stroke="#888888" stroke-dasharray="1,5" stroke-width="1" transform="translate(5,60.0)" x1="0" x2="184.0" y1="0" y2="0" /><line stroke="#888888" stroke-dasharray="1,5" stroke-width="1" transform="translate(5,90.0)" x1="0" x2="184.0" y1="0" y2="0" /></g><g><line stroke="#888888" stroke-dasharray="1,0" stroke-width="1" transform="translate(5,20.0)" x1="0" x2="184.0" y1="0" y2="0" /><line stroke="#888888" stroke-dasharray="1,0" stroke-width="1" transform="translate(5,50.0)" x1="0" x2="184.0" y1="0" y2="0" /><line stroke="#888888" stroke-dasharray="1,0" stroke-width="1" transform="translate(5,80.0)" x1="0" x2="184.0" y1="0" y2="0" /></g></g></g></g><g transform="translate(194.0,0)"><g><g transform="translate(0,0)"><text alignment-baseline="text-after-edge" fill="#444444" font-family="Trebuchet MS" font-size="10" text-anchor="start" transform="translate(5,15)">Goal 2</text></g><g transform="translate(0,20)"><g><line stroke="#888888" stroke-dasharray="1,5" stroke-width="1" transform="translate(5,30.0)" x1="0" x2="184.0" y1="0" y2="0" /><line stroke="#888888" stroke-dasharray="1,5" stroke-width="1" transform="translate(5,60.0)" x1="0" x2="184.0" y1="0" y2="0" /><line stroke="#888888" stroke-dasharray="1,5" stroke-width="1" transform="translate(5,90.0)" x1="0" x2="184.0" y1="0" y2="0" /></g><g><line stroke="#888888" stroke-dasharray="1,0" stroke-width="1" transform="translate(5,20.0)" x1="0" x2="184.0" y1="0" y2="0" /><line stroke="#888888" stroke-dasharray="1,0" stroke-width="1" transform="translate(5,50.0)" x1="0" x2="184.0" y1="0" y2="0" /><line stroke="#888888" stroke-dasharray="1,0" stroke-width="1" transform="translate(5,80.0)" x1="0" x2="184.0" y1="0" y2="0" /></g></g></g></g></g></g><g transform="translate(0,130)"><g><g transform="translate(0,0)"><g><g transform="translate(0,0)"><text alignment-baseline="text-after-edge" fill="#444444" font-family="Trebuchet MS" font-size="10" text-anchor="start" transform="translate(5,15)">Goal 3</text></g><g transform="translate(0,20)"><g><line stroke="#888888" stroke-dasharray="1,5" stroke-width="1" transform="translate(5,30.0)" x1="0" x2="184.0" y1="0" y2="0" /><line stroke="#888888" stroke-dasharray="1,5" stroke-width="1" transform="translate(5,60.0)" x1="0" x2="184.0" y1="0" y2="0" /><line stroke="#888888" stroke-dasharray="1,5" stroke-width="1" transform="translate(5,90.0)" x1="0" x2="184.0" y1="0" y2="0" /></g><g><line stroke="#888888" stroke-dasharray="1,0" stroke-width="1" transform="translate(5,20.0)" x1="0" x2="184.0" y1="0" y2="0" /><line stroke="#888888" stroke-dasharray="1,0" stroke-width="1" transform="translate(5,50.0)" x1="0" x2="184.0" y1="0" y2="0" /><line stroke="#888888" stroke-dasharray="1,0" stroke-width="1" transform="translate(5,80.0)" x1="0" x2="184.0" y1="0" y2="0" /></g></g></g></g><g transform="translate(194.0,0)"><g><g transform="translate(0,0)"><text alignment-baseline="text-after-edge" fill="#444444" font-family="Trebuchet MS" font-size="10" text-anchor="start" transform="translate(5,15)">Goal 4</text></g><g transform="translate(0,20)"><g><line stroke="#888888" stroke-dasharray="1,5" stroke-width="1" transform="translate(5,30.0)" x1="0" x2="184.0" y1="0" y2="0" /><line stroke="#888888" stroke-dasharray="1,5" stroke-width="1" transform="translate(5,60.0)" x1="0" x2="184.0" y1="0" y2="0" /><line stroke="#888888" stroke-dasharray="1,5" stroke-width="1" transform="translate(5,90.0)" x1="0" x2="184.0" y1="0" y2="0" /></g><g><line stroke="#888888" stroke-dasharray="1,0" stroke-width="1" transform="translate(5,20.0)" x1="0" x2="184.0" y1="0" y2="0" /><line stroke="#888888" stroke-dasharray="1,0" stroke-width="1" transform="translate(5,50.0)" x1="0" x2="184.0" y1="0" y2="0" /><line stroke="#888888" stroke-dasharray="1,0" stroke-width="1" transform="translate(5,80.0)" x1="0" x2="184.0" y1="0" y2="0" /></g></g></g></g></g></g><g transform="translate(0,250)"><g transform="translate(0,0)"><rect fill="#d7d7d7" height="20" stroke="#d7d7d7" stroke-width="1" width="388.0" x="0" y="0" /><text alignment-baseline="text-after-edge" fill="#444444" font-family="Trebuchet MS" font-size="10" text-anchor="start" transform="translate(5,15)">Visualize Your Week</text></g><g transform="translate(0,20)"><g><g transform="translate(0,0)"><text alignment-baseline="text-after-edge" fill="#444444" font-family="Ubuntu Mono" font-size="10" text-anchor="start" transform="translate(5,15)">Sketch a visual of your expectations for the week.</text></g><g transform="translate(0,20)"><line stroke="#888888" stroke-dasharray="1,0" stroke-width="1" transform="translate(0,130.0)" x1="0" x2="388.0" y1="0" y2="0" /></g></g></g><rect fill="none" height="170" stroke="#008080" stroke-width="1" width="388.0" x="0" y="0" /></g><g transform="translate(0,430)"><g transform="translate(0,0)"><rect fill="none" height="20" stroke="#008080" stroke-width="1" width="388.0" x="0" y="0" /><text alignment-baseline="text-after-edge" fill="#444444" font-family="Trebuchet MS" font-size="10" text-anchor="start" transform="translate(5,15)">How can I find the most fulfillment in these areas?</text></g><g transform="translate(0,20)"><g><g transform="translate(0,0)"><g><g transform="translate(0,0)"><rect fill="#d7d7d7" height="20" stroke="#d7d7d7" stroke-width="1" width="194.0" x="0" y="0" /><text alignment-baseline="text-after-edge" fill="#444444" font-family="Trebuchet MS" font-size="10" text-anchor="start" transform="translate(5,15)">Health</text></g><g transform="translate(0,20)"><line stroke="#888888" stroke-dasharray="1,0" stroke-width="1" transform="translate(0,80.0)" x1="0" x2="194.0" y1="0" y2="0" /></g></g></g><g transform="translate(194.0,0)"><g><g transform="translate(0,0)"><rect fill="#d7d7d7" height="20" stroke="#d7d7d7" stroke-width="1" width="194.0" x="0" y="0" /><text alignment-baseline="text-after-edge" fill="#444444" font-family="Trebuchet MS" font-size="10" text-anchor="start" transform="translate(5,15)">Connections</text></g><g transform="translate(0,20)"><line stroke="#888888" stroke-dasharray="1,0" stroke-width="1" transform="translate(0,80.0)" x1="0" x2="194.0" y1="0" y2="0" /></g></g></g></g><rect fill="none" height="100" stroke="#008080" stroke-width="1" width="388.0" x="0" y="0" /></g><g transform="translate(0,120)"><g><g transform="translate(0,0)"><g><g transform="translate(0,0)"><rect fill="#d7d7d7" height="20" stroke="#d7d7d7" stroke-width="1" width="194.0" x="0" y="0" /><text alignment-baseline="text-after-edge" fill="#444444" font-family="Trebuchet MS" font-size="10" text-anchor="start" transform="translate(5,15)">Enjoyment</text></g><g transform="translate(0,20)"><line stroke="#888888" stroke-dasharray="1,0" stroke-width="1" transform="translate(0,80.0)" x1="0" x2="194.0" y1="0" y2="0" /></g></g></g><g transform="translate(194.0,0)"><g><g transform="translate(0,0)"><rect fill="#d7d7d7" height="20" stroke="#d7d7d7" stroke-width="1" width="194.0" x="0" y="0" /><text alignment-baseline="text-after-edge" fill="#444444" font-family="Trebuchet MS" font-size="10" text-anchor="start" transform="translate(5,15)">Job</text></g><g transform="translate(0,20)"><line stroke="#888888" stroke-dasharray="1,0" stroke-width="1" transform="translate(0,80.0)" x1="0" x2="194.0" y1="0" y2="0" /></g></g></g></g><rect fill="none" height="100" stroke="#008080" stroke-width="1" width="388.0" x="0" y="0" /></g></g><g transform="translate(0,660)"><g><g transform="translate(0,0)"><rect fill="none" height="22.0" stroke="#008080" stroke-width="1" width="388.0" x="0" y="0" /><text alignment-baseline="text-after-edge" fill="#444444" font-family="Ubuntu Mono" font-size="10" text-anchor="start" transform="translate(5,17.0)">In the coming week, I’m eager to experience:</text></g><g transform="translate(0,22.0)"><g><line stroke="#888888" stroke-dasharray="1,5" stroke-width="1" transform="translate(0,44.0)" x1="0" x2="388.0" y1="0" y2="0" /></g><g><line stroke="#888888" stroke-dasharray="1,5" stroke-width="1" transform="translate(0,29.333333333333336)" x1="0" x2="388.0" y1="0" y2="0" /></g></g></g><rect fill="none" height="66.0" stroke="#008080" stroke-width="1" width="388.0" x="0" y="0" /></g></g></g></svg>