<?xml version="1.0" encoding="utf-8" ?>
<svg baseProfile="tiny" height="8.5in" version="1.2" width="11in" xmlns="http://www.w3.org/2000/svg" xmlns:ev="http://www.w3.org/2001/xml-events" xmlns:xlink="http://www.w3.org/1999/xlink"><defs /><g transform="translate(96, 24.0)"><rect fill="none" height="768.0" stroke="#008080" width="408.0" x="0" y="0" /><g transform="translate(10, 10)"><rect fill="none" height="22" stroke="#008080" stroke-width="1" width="388.0" x="0" y="0" /><text alignment-baseline="text-after-edge" fill="#444444" font-family="Trebuchet MS" font-size="12" text-anchor="start" transform="translate(5,17)">Mon    Tue    Wed    Thu    Fri    Sat    Sun</text><g transform="translate(215.04,0)"><text alignment-baseline="text-after-edge" fill="#444444" font-family="Trebuchet MS" font-size="12" text-anchor="start" transform="translate(5,17)">              /              /  20          </text></g></g><g transform="translate(10, 42)"><g transform="translate(0,0)"><g><g transform="translate(0,0)"><text alignment-baseline="text-after-edge" fill="#444444" font-family="Ubuntu Mono" font-size="10" text-anchor="start" transform="translate(5,15)">Values</text></g><g transform="translate(0,20)"><g><line stroke="#888888" stroke-dasharray="1,5" stroke-width="1" transform="translate(5,30.0)" x1="0" x2="174.0" y1="0" y2="0" /><line stroke="#888888" stroke-dasharray="1,5" stroke-width="1" transform="translate(5,60.0)" x1="0" x2="174.0" y1="0" y2="0" /><line stroke="#888888" stroke-dasharray="1,5" stroke-width="1" transform="translate(5,90.0)" x1="0" x2="174.0" y1="0" y2="0" /></g><g><line stroke="#888888" stroke-dasharray="1,0" stroke-width="1" transform="translate(5,20.0)" x1="0" x2="174.0" y1="0" y2="0" /><line stroke="#888888" stroke-dasharray="1,0" stroke-width="1" transform="translate(5,50.0)" x1="0" x2="174.0" y1="0" y2="0" /><line stroke="#888888" stroke-dasharray="1,0" stroke-width="1" transform="translate(5,80.0)" x1="0" x2="174.0" y1="0" y2="0" /></g></g></g></g><g transform="translate(0,120.0)"><g><g transform="translate(0,0)"><text alignment-baseline="text-after-edge" fill="#444444" font-family="Ubuntu Mono" font-size="10" text-anchor="start" transform="translate(5,15)">A tiny triumph or epic win...</text></g><g transform="translate(0,20)"><line stroke="#888888" stroke-dasharray="1,0" stroke-width="1" transform="translate(0,66.0)" x1="0" x2="184.0" y1="0" y2="0" /></g></g><rect fill="none" height="86.0" stroke="#008080" stroke-width="1" width="184.0" x="0" y="0" /></g><g transform="translate(0,216.0)"><g><g transform="translate(0,0)"><g><g transform="translate(0,0)"><rect fill="#888888" height="20" stroke="#888888" stroke-width="1" width="92.0" x="0" y="0" /><text alignment-baseline="text-after-edge" fill="#ffffff" font-family="Trebuchet MS" font-size="10" text-anchor="start" transform="translate(5,15)">Primary Efforts</text></g><g transform="translate(0,20)"><g><line stroke="#888888" stroke-dasharray="1,5" stroke-width="1" transform="translate(0,30.0)" x1="0" x2="92.0" y1="0" y2="0" /><line stroke="#888888" stroke-dasharray="1,5" stroke-width="1" transform="translate(0,60.0)" x1="0" x2="92.0" y1="0" y2="0" /><line stroke="#888888" stroke-dasharray="1,5" stroke-width="1" transform="translate(0,90.0)" x1="0" x2="92.0" y1="0" y2="0" /></g><g><line stroke="#888888" stroke-dasharray="1,0" stroke-width="1" transform="translate(0,20.0)" x1="0" x2="92.0" y1="0" y2="0" /><line stroke="#888888" stroke-dasharray="1,0" stroke-width="1" transform="translate(0,50.0)" x1="0" x2="92.0" y1="0" y2="0" /><line stroke="#888888" stroke-dasharray="1,0" stroke-width="1" transform="translate(0,80.0)" x1="0" x2="92.0" y1="0" y2="0" /></g></g></g></g><g transform="translate(92.0,0)"><g><g transform="translate(0,0)"><rect fill="#888888" height="20" stroke="#888888" stroke-width="1" width="92.0" x="0" y="0" /><text alignment-baseline="text-after-edge" fill="#ffffff" font-family="Trebuchet MS" font-size="10" text-anchor="start" transform="translate(5,15)">Alignment</text></g><g transform="translate(0,20)"><g><line stroke="#888888" stroke-dasharray="1,5" stroke-width="1" transform="translate(0,30.0)" x1="0" x2="92.0" y1="0" y2="0" /><line stroke="#888888" stroke-dasharray="1,5" stroke-width="1" transform="translate(0,60.0)" x1="0" x2="92.0" y1="0" y2="0" /><line stroke="#888888" stroke-dasharray="1,5" stroke-width="1" transform="translate(0,90.0)" x1="0" x2="92.0" y1="0" y2="0" /></g><g><line stroke="#888888" stroke-dasharray="1,0" stroke-width="1" transform="translate(0,20.0)" x1="0" x2="92.0" y1="0" y2="0" /><line stroke="#888888" stroke-dasharray="1,0" stroke-width="1" transform="translate(0,50.0)" x1="0" x2="92.0" y1="0" y2="0" /><line stroke="#888888" stroke-dasharray="1,0" stroke-width="1" transform="translate(0,80.0)" x1="0" x2="92.0" y1="0" y2="0" /></g></g></g></g></g></g><g transform="translate(0,336.0)"><g><g transform="translate(0,0)"><rect fill="#888888" height="20" stroke="#888888" stroke-width="1" width="184.0" x="0" y="0" /><text alignment-baseline="text-after-edge" fill="#ffffff" font-family="Ubuntu Mono" font-size="10" text-anchor="start" transform="translate(5,15)">To Do</text></g><g transform="translate(0,20)"><g><line stroke="#888888" stroke-dasharray="1,5" stroke-width="1" transform="translate(0,30.0)" x1="0" x2="184.0" y1="0" y2="0" /><line stroke="#888888" stroke-dasharray="1,5" stroke-width="1" transform="translate(0,60.0)" x1="0" x2="184.0" y1="0" y2="0" /><line stroke="#888888" stroke-dasharray="1,5" stroke-width="1" transform="translate(0,90.0)" x1="0" x2="184.0" y1="0" y2="0" /><line stroke="#888888" stroke-dasharray="1,5" stroke-width="1" transform="translate(0,120.0)" x1="0" x2="184.0" y1="0" y2="0" /><line stroke="#888888" stroke-dasharray="1,5" stroke-width="1" transform="translate(0,150.0)" x1="0" x2="184.0" y1="0" y2="0" /><line stroke="#888888" stroke-dasharray="1,5" stroke-width="1" transform="translate(0,180.0)" x1="0" x2="184.0" y1="0" y2="0" /><line stroke="#888888" stroke-dasharray="1,5" stroke-width="1" transform="translate(0,210.0)" x1="0" x2="184.0" y1="0" y2="0" /><line stroke="#888888" stroke-dasharray="1,5" stroke-width="1" transform="translate(0,240.0)" x1="0" x2="184.0" y1="0" y2="0" /><line stroke="#888888" stroke-dasharray="1,5" stroke-width="1" transform="translate(0,270.0)" x1="0" x2="184.0" y1="0" y2="0" /><line stroke="#888888" stroke-dasharray="1,5" stroke-width="1" transform="translate(0,300.0)" x1="0" x2="184.0" y1="0" y2="0" /><line stroke="#888888" stroke-dasharray="1,5" stroke-width="1" transform="translate(0,330.0)" x1="0" x2="184.0" y1="0" y2="0" /><line stroke="#888888" stroke-dasharray="1,5" stroke-width="1" transform="translate(0,360.0)" x1="0" x2="184.0" y1="0" y2="0" /></g><g><line stroke="#888888" stroke-dasharray="1,0" stroke-width="1" transform="translate(0,20.0)" x1="0" x2="184.0" y1="0" y2="0" /><line stroke="#888888" stroke-dasharray="1,0" stroke-width="1" transform="translate(0,50.0)" x1="0" x2="184.0" y1="0" y2="0" /><line stroke="#888888" stroke-dasharray="1,0" stroke-width="1" transform="translate(0,80.0)" x1="0" x2="184.0" y1="0" y2="0" /><line stroke="#888888" stroke-dasharray="1,0" stroke-width="1" transform="translate(0,110.0)" x1="0" x2="184.0" y1="0" y2="0" /><line stroke="#888888" stroke-dasharray="1,0" stroke-width="1" transform="translate(0,140.0)" x1="0" x2="184.0" y1="0" y2="0" /><line stroke="#888888" stroke-dasharray="1,0" stroke-width="1" transform="translate(0,170.0)" x1="0" x2="184.0" y1="0" y2="0" /><line stroke="#888888" stroke-dasharray="1,0" stroke-width="1" transform="translate(0,200.0)" x1="0" x2="184.0" y1="0" y2="0" /><line stroke="#888888" stroke-dasharray="1,0" stroke-width="1" transform="translate(0,230.0)" x1="0" x2="184.0" y1="0" y2="0" /><line stroke="#888888" stroke-dasharray="1,0" stroke-width="1" transform="translate(0,260.0)" x1="0" x2="184.0" y1="0" y2="0" /><line stroke="#888888" stroke-dasharray="1,0" stroke-width="1" transform="translate(0,290.0)" x1="0" x2="184.0" y1="0" y2="0" /><line stroke="#888888" stroke-dasharray="1,0" stroke-width="1" transform="translate(0,320.0)" x1="0" x2="184.0" y1="0" y2="0" /><line stroke="#888888" stroke-dasharray="1,0" stroke-width="1" transform="translate(0,350.0)" x1="0" x2="184.0" y1="0" y2="0" /></g></g></g></g></g><g transform="translate(204.0,42)"><g><rect fill="none" height="20" stroke="none" width="194.0" x="0" y="10" /><text alignment-baseline="text-after-edge" fill="#444444" font-family="Ubuntu Mono" font-size="10" text-anchor="start" x="5" y="25">Time Well Spent</text></g><g><text alignment-baseline="text-after-edge" fill="#444444" font-family="Ubuntu Mono" font-size="8" text-anchor="start" x="0" y="55.44">06:00</text><line stroke="#888888" x1="0" x2="194.0" y1="57.44" y2="57.44" /><line stroke="#888888" x1="0" x2="194.0" y1="84.88" y2="84.88" /><text alignment-baseline="text-after-edge" fill="#444444" font-family="Ubuntu Mono" font-size="8" text-anchor="start" x="0" y="110.32">07:00</text><line stroke="#888888" x1="0" x2="194.0" y1="112.32" y2="112.32" /><line stroke="#888888" x1="0" x2="194.0" y1="139.76" y2="139.76" /><text alignment-baseline="text-after-edge" fill="#444444" font-family="Ubuntu Mono" font-size="8" text-anchor="start" x="0" y="165.2">08:00</text><line stroke="#888888" x1="0" x2="194.0" y1="167.2" y2="167.2" /><line stroke="#888888" x1="0" x2="194.0" y1="194.64000000000001" y2="194.64000000000001" /><text alignment-baseline="text-after-edge" fill="#444444" font-family="Ubuntu Mono" font-size="8" text-anchor="start" x="0" y="220.08">09:00</text><line stroke="#888888" x1="0" x2="194.0" y1="222.08" y2="222.08" /><line stroke="#888888" x1="0" x2="194.0" y1="249.52" y2="249.52" /><text alignment-baseline="text-after-edge" fill="#444444" font-family="Ubuntu Mono" font-size="8" text-anchor="start" x="0" y="274.96000000000004">10:00</text><line stroke="#888888" x1="0" x2="194.0" y1="276.96000000000004" y2="276.96000000000004" /><line stroke="#888888" x1="0" x2="194.0" y1="304.4" y2="304.4" /><text alignment-baseline="text-after-edge" fill="#444444" font-family="Ubuntu Mono" font-size="8" text-anchor="start" x="0" y="329.84000000000003">11:00</text><line stroke="#888888" x1="0" x2="194.0" y1="331.84000000000003" y2="331.84000000000003" /><line stroke="#888888" x1="0" x2="194.0" y1="359.28000000000003" y2="359.28000000000003" /><text alignment-baseline="text-after-edge" fill="#444444" font-family="Ubuntu Mono" font-size="8" text-anchor="start" x="0" y="384.72">12:00</text><line stroke="#888888" x1="0" x2="194.0" y1="386.72" y2="386.72" /><line stroke="#888888" x1="0" x2="194.0" y1="414.16" y2="414.16" /><text alignment-baseline="text-after-edge" fill="#444444" font-family="Ubuntu Mono" font-size="8" text-anchor="start" x="0" y="439.6">13:00</text><line stroke="#888888" x1="0" x2="194.0" y1="441.6" y2="441.6" /><line stroke="#888888" x1="0" x2="194.0" y1="469.04" y2="469.04" /><text alignment-baseline="text-after-edge" fill="#444444" font-family="Ubuntu Mono" font-size="8" text-anchor="start" x="0" y="494.48">14:00</text><line stroke="#888888" x1="0" x2="194.0" y1="496.48" y2="496.48" /><line stroke="#888888" x1="0" x2="194.0" y1="523.9200000000001" y2="523.9200000000001" /><text alignment-baseline="text-after-edge" fill="#444444" font-family="Ubuntu Mono" font-size="8" text-anchor="start" x="0" y="549.36">15:00</text><line stroke="#888888" x1="0" x2="194.0" y1="551.36" y2="551.36" /><line stroke="#888888" x1="0" x2="194.0" y1="578.8" y2="578.8" /><text alignment-baseline="text-after-edge" fill="#444444" font-family="Ubuntu Mono" font-size="8" text-anchor="start" x="0" y="604.24">16:00</text><line stroke="#888888" x1="0" x2="194.0" y1="606.24" y2="606.24" /><line stroke="#888888" x1="0" x2="194.0" y1="633.6800000000001" y2="633.6800000000001" /><text alignment-baseline="text-after-edge" fill="#444444" font-family="Ubuntu Mono" font-size="8" text-anchor="start" x="0" y="659.1200000000001">17:00</text><line stroke="#888888" x1="0" x2="194.0" y1="661.1200000000001" y2="661.1200000000001" /><line stroke="#888888" x1="0" x2="194.0" y1="688.56" y2="688.56" /><text alignment-baseline="text-after-edge" fill="#444444" font-family="Ubuntu Mono" font-size="8" text-anchor="start" x="0" y="714.0">18:00</text><line stroke="#888888" x1="0" x2="194.0" y1="716.0" y2="716.0" /></g></g></g><g transform="translate(624.0, 24.0)"><rect fill="none" height="768.0" stroke="#008080" width="408.0" x="0" y="0" /><g transform="translate(10, 10)"><rect fill="none" height="22" stroke="#008080" stroke-width="1" width="388.0" x="0" y="0" /><text alignment-baseline="text-after-edge" fill="#444444" font-family="Trebuchet MS" font-size="12" text-anchor="start" transform="translate(5,17)">Mon    Tue    Wed    Thu    Fri    Sat    Sun</text><g transform="translate(215.04,0)"><text alignment-baseline="text-after-edge" fill="#444444" font-family="Trebuchet MS" font-size="12" text-anchor="start" transform="translate(5,17)">              /              /  20          </text></g></g><g transform="translate(10, 42)"><g transform="translate(0,0)"><g><g transform="translate(0,0)"><text alignment-baseline="text-after-edge" fill="#444444" font-family="Ubuntu Mono" font-size="10" text-anchor="start" transform="translate(5,15)">Values</text></g><g transform="translate(0,20)"><g><line stroke="#888888" stroke-dasharray="1,5" stroke-width="1" transform="translate(5,30.0)" x1="0" x2="174.0" y1="0" y2="0" /><line stroke="#888888" stroke-dasharray="1,5" stroke-width="1" transform="translate(5,60.0)" x1="0" x2="174.0" y1="0" y2="0" /><line stroke="#888888" stroke-dasharray="1,5" stroke-width="1" transform="translate(5,90.0)" x1="0" x2="174.0" y1="0" y2="0" /></g><g><line stroke="#888888" stroke-dasharray="1,0" stroke-width="1" transform="translate(5,20.0)" x1="0" x2="174.0" y1="0" y2="0" /><line stroke="#888888" stroke-dasharray="1,0" stroke-width="1" transform="translate(5,50.0)" x1="0" x2="174.0" y1="0" y2="0" /><line stroke="#888888" stroke-dasharray="1,0" stroke-width="1" transform="translate(5,80.0)" x1="0" x2="174.0" y1="0" y2="0" /></g></g></g></g><g transform="translate(0,120.0)"><g><g transform="translate(0,0)"><text alignment-baseline="text-after-edge" fill="#444444" font-family="Ubuntu Mono" font-size="10" text-anchor="start" transform="translate(5,15)">A tiny triumph or epic win...</text></g><g transform="translate(0,20)"><line stroke="#888888" stroke-dasharray="1,0" stroke-width="1" transform="translate(0,66.0)" x1="0" x2="184.0" y1="0" y2="0" /></g></g><rect fill="none" height="86.0" stroke="#008080" stroke-width="1" width="184.0" x="0" y="0" /></g><g transform="translate(0,216.0)"><g><g transform="translate(0,0)"><g><g transform="translate(0,0)"><rect fill="#888888" height="20" stroke="#888888" stroke-width="1" width="92.0" x="0" y="0" /><text alignment-baseline="text-after-edge" fill="#ffffff" font-family="Trebuchet MS" font-size="10" text-anchor="start" transform="translate(5,15)">Primary Efforts</text></g><g transform="translate(0,20)"><g><line stroke="#888888" stroke-dasharray="1,5" stroke-width="1" transform="translate(0,30.0)" x1="0" x2="92.0" y1="0" y2="0" /><line stroke="#888888" stroke-dasharray="1,5" stroke-width="1" transform="translate(0,60.0)" x1="0" x2="92.0" y1="0" y2="0" /><line stroke="#888888" stroke-dasharray="1,5" stroke-width="1" transform="translate(0,90.0)" x1="0" x2="92.0" y1="0" y2="0" /></g><g><line stroke="#888888" stroke-dasharray="1,0" stroke-width="1" transform="translate(0,20.0)" x1="0" x2="92.0" y1="0" y2="0" /><line stroke="#888888" stroke-dasharray="1,0" stroke-width="1" transform="translate(0,50.0)" x1="0" x2="92.0" y1="0" y2="0" /><line stroke="#888888" stroke-dasharray="1,0" stroke-width="1" transform="translate(0,80.0)" x1="0" x2="92.0" y1="0" y2="0" /></g></g></g></g><g transform="translate(92.0,0)"><g><g transform="translate(0,0)"><rect fill="#888888" height="20" stroke="#888888" stroke-width="1" width="92.0" x="0" y="0" /><text alignment-baseline="text-after-edge" fill="#ffffff" font-family="Trebuchet MS" font-size="10" text-anchor="start" transform="translate(5,15)">Alignment</text></g><g transform="translate(0,20)"><g><line stroke="#888888" stroke-dasharray="1,5" stroke-width="1" transform="translate(0,30.0)" x1="0" x2="92.0" y1="0" y2="0" /><line stroke="#888888" stroke-dasharray="1,5" stroke-width="1" transform="translate(0,60.0)" x1="0" x2="92.0" y1="0" y2="0" /><line stroke="#888888" stroke-dasharray="1,5" stroke-width="1" transform="translate(0,90.0)" x1="0" x2="92.0" y1="0" y2="0" /></g><g><line stroke="#888888" stroke-dasharray="1,0" stroke-width="1" transform="translate(0,20.0)" x1="0" x2="92.0" y1="0" y2="0" /><line stroke="#888888" stroke-dasharray="1,0" stroke-width="1" transform="translate(0,50.0)" x1="0" x2="92.0" y1="0" y2="0" /><line stroke="#888888" stroke-dasharray="1,0" stroke-width="1" transform="translate(0,80.0)" x1="0" x2="92.0" y1="0" y2="0" /></g></g></g></g></g></g><g transform="translate(0,336.0)"><g><g transform="translate(0,0)"><rect fill="#888888" height="20" stroke="#888888" stroke-width="1" width="184.0" x="0" y="0" /><text alignment-baseline="text-after-edge" fill="#ffffff" font-family="Ubuntu Mono" font-size="10" text-anchor="start" transform="translate(5,15)">To Do</text></g><g transform="translate(0,20)"><g><line stroke="#888888" stroke-dasharray="1,5" stroke-width="1" transform="translate(0,30.0)" x1="0" x2="184.0" y1="0" y2="0" /><line stroke="#888888" stroke-dasharray="1,5" stroke-width="1" transform="translate(0,60.0)" x1="0" x2="184.0" y1="0" y2="0" /><line stroke="#888888" stroke-dasharray="1,5" stroke-width="1" transform="translate(0,90.0)" x1="0" x2="184.0" y1="0" y2="0" /><line stroke="#888888" stroke-dasharray="1,5" stroke-width="1" transform="translate(0,120.0)" x1="0" x2="184.0" y1="0" y2="0" /><line stroke="#888888" stroke-dasharray="1,5" stroke-width="1" transform="translate(0,150.0)" x1="0" x2="184.0" y1="0" y2="0" /><line stroke="#888888" stroke-dasharray="1,5" stroke-width="1" transform="translate(0,180.0)" x1="0" x2="184.0" y1="0" y2="0" /><line stroke="#888888" stroke-dasharray="1,5" stroke-width="1" transform="translate(0,210.0)" x1="0" x2="184.0" y1="0" y2="0" /><line stroke="#888888" stroke-dasharray="1,5" stroke-width="1" transform="translate(0,240.0)" x1="0" x2="184.0" y1="0" y2="0" /><line stroke="#888888" stroke-dasharray="1,5" stroke-width="1" transform="translate(0,270.0)" x1="0" x2="184.0" y1="0" y2="0" /><line stroke="#888888" stroke-dasharray="1,5" stroke-width="1" transform="translate(0,300.0)" x1="0" x2="184.0" y1="0" y2="0" /><line stroke="#888888" stroke-dasharray="1,5" stroke-width="1" transform="translate(0,330.0)" x1="0" x2="184.0" y1="0" y2="0" /><line stroke="#888888" stroke-dasharray="1,5" stroke-width="1" transform="translate(0,360.0)" x1="0" x2="184.0" y1="0" y2="0" /></g><g><line stroke="#888888" stroke-dasharray="1,0" stroke-width="1" transform="translate(0,20.0)" x1="0" x2="184.0" y1="0" y2="0" /><line stroke="#888888" stroke-dasharray="1,0" stroke-width="1" transform="translate(0,50.0)" x1="0" x2="184.0" y1="0" y2="0" /><line stroke="#888888" stroke-dasharray="1,0" stroke-width="1" transform="translate(0,80.0)" x1="0" x2="184.0" y1="0" y2="0" /><line stroke="#888888" stroke-dasharray="1,0" stroke-width="1" transform="translate(0,110.0)" x1="0" x2="184.0" y1="0" y2="0" /><line stroke="#888888" stroke-dasharray="1,0" stroke-width="1" transform="translate(0,140.0)" x1="0" x2="184.0" y1="0" y2="0" /><line stroke="#888888" stroke-dasharray="1,0" stroke-width="1" transform="translate(0,170.0)" x1="0" x2="184.0" y1="0" y2="0" /><line stroke="#888888" stroke-dasharray="1,0" stroke-width="1" transform="translate(0,200.0)" x1="0" x2="184.0" y1="0" y2="0" /><line stroke="#888888" stroke-dasharray="1,0" stroke-width="1" transform="translate(0,230.0)" x1="0" x2="184.0" y1="0" y2="0" /><line stroke="#888888" stroke-dasharray="1,0" stroke-width="1" transform="translate(0,260.0)" x1="0" x2="184.0" y1="0" y2="0" /><line stroke="#888888" stroke-dasharray="1,0" stroke-width="1" transform="translate(0,290.0)" x1="0" x2="184.0" y1="0" y2="0" /><line stroke="#888888" stroke-dasharray="1,0" stroke-width="1" transform="translate(0,320.0)" x1="0" x2="184.0" y1="0" y2="0" /><line stroke="#888888" stroke-dasharray="1,0" stroke-width="1" transform="translate(0,350.0)" x1="0" x2="184.0" y1="0" y2="0" /></g></g></g></g></g><g transform="translate(204.0,42)"><g><rect fill="none" height="20" stroke="none" width="194.0" x="0" y="10" /><text alignment-baseline="text-after-edge" fill="#444444" font-family="Ubuntu Mono" font-size="10" text-anchor="start" x="5" y="25">Time Well Spent</text></g><g><text alignment-baseline="text-after-edge" fill="#444444" font-family="Ubuntu Mono" font-size="8" text-anchor="start" x="0" y="55.44">06:00</text><line stroke="#888888" x1="0" x2="194.0" y1="57.44" y2="57.44" /><line stroke="#888888" x1="0" x2="194.0" y1="84.88" y2="84.88" /><text alignment-baseline="text-after-edge" fill="#444444" font-family="Ubuntu Mono" font-size="8" text-anchor="start" x="0" y="110.32">07:00</text><line stroke="#888888" x1="0" x2="194.0" y1="112.32" y2="112.32" /><line stroke="#888888" x1="0" x2="194.0" y1="139.76" y2="139.76" /><text alignment-baseline="text-after-edge" fill="#444444" font-family="Ubuntu Mono" font-size="8" text-anchor="start" x="0" y="165.2">08:00</text><line stroke="#888888" x1="0" x2="194.0" y1="167.2" y2="167.2" /><line stroke="#888888" x1="0" x2="194.0" y1="194.64000000000001" y2="194.64000000000001" /><text alignment-baseline="text-after-edge" fill="#444444" font-family="Ubuntu Mono" font-size="8" text-anchor="start" x="0" y="220.08">09:00</text><line stroke="#888888" x1="0" x2="194.0" y1="222.08" y2="222.08" /><line stroke="#888888" x1="0" x2="194.0" y1="249.52" y2="249.52" /><text alignment-baseline="text-after-edge" fill="#444444" font-family="Ubuntu Mono" font-size="8" text-anchor="start" x="0" y="274.96000000000004">10:00</text><line stroke="#888888" x1="0" x2="194.0" y1="276.96000000000004" y2="276.96000000000004" /><line stroke="#888888" x1="0" x2="194.0" y1="304.4" y2="304.4" /><text alignment-baseline="text-after-edge" fill="#444444" font-family="Ubuntu Mono" font-size="8" text-anchor="start" x="0" y="329.84000000000003">11:00</text><line stroke="#888888" x1="0" x2="194.0" y1="331.84000000000003" y2="331.84000000000003" /><line stroke="#888888" x1="0" x2="194.0" y1="359.28000000000003" y2="359.28000000000003" /><text alignment-baseline="text-after-edge" fill="#444444" font-family="Ubuntu Mono" font-size="8" text-anchor="start" x="0" y="384.72">12:00</text><line stroke="#888888" x1="0" x2="194.0" y1="386.72" y2="386.72" /><line stroke="#888888" x1="0" x2="194.0" y1="414.16" y2="414.16" /><text alignment-baseline="text-after-edge" fill="#444444" font-family="Ubuntu Mono" font-size="8" text-anchor="start" x="0" y="439.6">13:00</text><line stroke="#888888" x1="0" x2="194.0" y1="441.6" y2="441.6" /><line stroke="#888888" x1="0" x2="194.0" y1="469.04" y2="469.04" /><text alignment-baseline="text-after-edge" fill="#444444" font-family="Ubuntu Mono" font-size="8" text-anchor="start" x="0" y="494.48">14:00</text><line stroke="#888888" x1="0" x2="194.0" y1="496.48" y2="496.48" /><line stroke="#888888" x1="0" x2="194.0" y1="523.9200000000001" y2="523.9200000000001" /><text alignment-baseline="text-after-edge" fill="#444444" font-family="Ubuntu Mono" font-size="8" text-anchor="start" x="0" y="549.36">15:00</text><line stroke="#888888" x1="0" x2="194.0" y1="551.36" y2="551.36" /><line stroke="#888888" x1="0" x2="194.0" y1="578.8" y2="578.8" /><text alignment-baseline="text-after-edge" fill="#444444" font-family="Ubuntu Mono" font-size="8" text-anchor="start" x="0" y="604.24">16:00</text><line stroke="#888888" x1="0" x2="194.0" y1="606.24" y2="606.24" /><line stroke="#888888" x1="0" x2="194.0" y1="633.6800000000001" y2="633.6800000000001" /><text alignment-baseline="text-after-edge" fill="#444444" font-family="Ubuntu Mono" font-size="8" text-anchor="start" x="0" y="659.1200000000001">17:00</text><line stroke="#888888" x1="0" x2="194.0" y1="661.1200000000001" y2="661.1200000000001" /><line stroke="#888888" x1="0" x2="194.0" y1="688.56" y2="688.56" /><text alignment-baseline="text-after-edge" fill="#444444" font-family="Ubuntu Mono" font-size="8" text-anchor="start" x="0" y="714.0">18:00</text><line stroke="#888888" x1="0" x2="194.0" y1="716.0" y2="716.0" /></g></g></g></svg>